<svg width="20" height="20" viewBox="0 0 20 20" fill="none" xmlns="http://www.w3.org/2000/svg">
<path d="M19.111 16.1563H16.24C15.4779 12.8141 10.742 12.8141 9.97995 16.1563H0.668449C0.491165 16.1563 0.321143 16.2268 0.195784 16.3521C0.0704257 16.4775 0 16.6475 0 16.8248C0 17.0021 0.0704257 17.1721 0.195784 17.2975C0.321143 17.4228 0.491165 17.4932 0.668449 17.4932H9.98997C10.7553 20.8355 15.4913 20.8355 16.25 17.4932H19.111C19.2882 17.4932 19.4583 17.4228 19.5836 17.2975C19.709 17.1721 19.7794 17.0021 19.7794 16.8248C19.7794 16.6475 19.709 16.4775 19.5836 16.3521C19.4583 16.2268 19.2882 16.1563 19.111 16.1563ZM13.1217 18.6898C10.6551 18.6029 10.6551 15.0467 13.1217 14.9598C15.5882 15.0467 15.5882 18.6029 13.1217 18.6898Z" fill="#2DBDB6"/>
<path d="M19.111 9.33164H8.7266C7.96457 5.98939 3.22861 5.98939 2.46658 9.33164H0.668449C0.491165 9.33164 0.321143 9.40206 0.195784 9.52742C0.0704257 9.65278 0 9.8228 0 10.0001C0 10.1774 0.0704257 10.3474 0.195784 10.4728C0.321143 10.5981 0.491165 10.6685 0.668449 10.6685H2.46658C3.22861 14.0108 7.96457 14.0108 8.7266 10.6685H19.111C19.2882 10.6685 19.4583 10.5981 19.5836 10.4728C19.709 10.3474 19.7794 10.1774 19.7794 10.0001C19.7794 9.8228 19.709 9.65278 19.5836 9.52742C19.4583 9.40206 19.2882 9.33164 19.111 9.33164ZM5.59826 11.8651C3.13168 11.7848 3.13503 8.21198 5.59826 8.13511C8.0615 8.21533 8.0615 11.7882 5.59826 11.8651Z" fill="#2DBDB6"/>
<path d="M0.668449 3.84358H6.75802C7.5234 7.18583 12.2594 7.18583 13.0214 3.84358H19.111C19.2882 3.84358 19.4583 3.77316 19.5836 3.6478C19.709 3.52244 19.7794 3.35242 19.7794 3.17513C19.7794 2.99785 19.709 2.82783 19.5836 2.70247C19.4583 2.57711 19.2882 2.50668 19.111 2.50668H13.0214C12.256 -0.835562 7.52005 -0.835562 6.75802 2.50668H0.668449C0.491165 2.50668 0.321143 2.57711 0.195784 2.70247C0.0704257 2.82783 0 2.99785 0 3.17513C0 3.35242 0.0704257 3.52244 0.195784 3.6478C0.321143 3.77316 0.491165 3.84358 0.668449 3.84358ZM9.88971 1.31016C12.3563 1.39706 12.3563 4.95321 9.88971 5.04011C7.42313 4.95321 7.42313 1.39706 9.88971 1.31016Z" fill="#2DBDB6"/>
</svg>
