<svg width="12" height="12" viewBox="0 0 12 12" fill="none" xmlns="http://www.w3.org/2000/svg">
<path d="M9.3544 1.74767C8.40825 1.27691 7.25045 1 6 1C4.74955 1 3.59175 1.27691 2.64558 1.74767C2.18159 1.97853 1.94959 2.09396 1.7248 2.45689C1.5 2.81983 1.5 3.17124 1.5 3.87407V5.61855C1.5 8.46025 3.77118 10.0402 5.0865 10.7169C5.45335 10.9056 5.63675 11 6 11C6.36325 11 6.54665 10.9056 6.91345 10.7169C8.2288 10.0402 10.5 8.46025 10.5 5.61855V3.87407C10.5 3.17124 10.5 2.81983 10.2752 2.45689C10.0504 2.09396 9.8184 1.97853 9.3544 1.74767Z" stroke="#FF748B" stroke-width="0.75" stroke-linecap="round" stroke-linejoin="round"/>
<path d="M4.5 5.75C4.5 5.75 5.20395 5.87595 5.5 6.75C5.5 6.75 6.25 5.25 7.5 4.75" stroke="#FF748B" stroke-width="0.75" stroke-linecap="round" stroke-linejoin="round"/>
</svg>
