<svg width="16" height="16" viewBox="0 0 16 16" fill="none" xmlns="http://www.w3.org/2000/svg">
<path d="M1.33325 8.33333C1.33325 7.59693 1.93021 7 2.66659 7C3.77115 7 4.66658 7.8954 4.66658 9V11.6667C4.66658 12.7713 3.77115 13.6667 2.66659 13.6667C1.93021 13.6667 1.33325 13.0697 1.33325 12.3333V8.33333Z" fill="white" stroke="#2dbdb6" stroke-linecap="round" stroke-linejoin="round"/>
<path d="M10.3192 5.20421L10.1417 5.7776C9.99622 6.24745 9.92348 6.48237 9.97941 6.66791C10.0247 6.81797 10.124 6.94737 10.2594 7.03251C10.4267 7.13771 10.6799 7.13771 11.1861 7.13771H11.4555C13.1689 7.13771 14.0255 7.13771 14.4302 7.64491C14.4764 7.70284 14.5175 7.76451 14.5531 7.82917C14.8644 8.39477 14.5105 9.15677 13.8027 10.6808C13.1532 12.0793 12.8284 12.7786 12.2254 13.1902C12.1671 13.23 12.1071 13.2676 12.0456 13.3028C11.4107 13.6667 10.6242 13.6667 9.05101 13.6667H8.70982C6.80388 13.6667 5.85093 13.6667 5.25884 13.093C4.66675 12.5193 4.66675 11.596 4.66675 9.74931V9.10024C4.66675 8.12977 4.66675 7.64457 4.83897 7.20044C5.0112 6.75631 5.34098 6.39113 6.00054 5.66079L8.72815 2.64041C8.79655 2.56467 8.83075 2.52679 8.86095 2.50054C9.14241 2.25556 9.57688 2.28313 9.82301 2.56161C9.84941 2.59144 9.87821 2.63331 9.93581 2.71707C10.0259 2.84807 10.071 2.91358 10.1103 2.97847C10.4619 3.55946 10.5683 4.24961 10.4073 4.90481C10.3893 4.97799 10.3659 5.05344 10.3192 5.20421Z" fill="white" stroke="#2dbdb6" stroke-linecap="round" stroke-linejoin="round"/>
</svg>