<svg width="28" height="10" viewBox="0 0 28 10" fill="none" xmlns="http://www.w3.org/2000/svg">
<path fill-rule="evenodd" clip-rule="evenodd" d="M26.2116 8.56183C26.4519 8.54105 26.684 8.46323 26.8892 8.33459C27.2207 8.02145 27.1203 7.04471 27.1151 6.54434C27.1138 6.42243 26.8111 6.42157 26.8028 6.29503C26.7593 5.52345 26.4316 4.10555 26.3489 3.31276C26.3292 3.10772 26.2599 2.91076 26.1474 2.73939C26.0349 2.56802 25.8824 2.4276 25.7037 2.33054C25.1188 1.96307 23.4451 0.961415 22.8091 0.68981C22.3896 0.510946 22.4919 0.467884 22.0415 0.402739C19.8045 0.0763624 15.7351 -0.309202 13.5431 0.398984C11.7406 0.981333 10.1712 1.82573 8.54355 2.85477C5.66421 3.35957 3.31458 3.78821 1.91598 4.17067C1.66377 4.22105 1.42654 4.33051 1.22318 4.49041C1.01983 4.65031 0.85594 4.85622 0.744539 5.09172C0.517587 5.5385 0.409874 5.80015 0.305848 6.05391C0.0567458 6.07599 -0.00341628 6.30853 0.00179456 6.62426C0.00896022 7.12006 -0.036426 7.4736 0.0993085 7.96471C0.151219 8.13744 0.257415 8.28809 0.401617 8.3936C0.545812 8.49912 0.720057 8.55363 0.897645 8.54876L1.59871 8.57083C1.93899 8.5046 2.04345 8.52403 2.01434 8.06141C2.00435 7.90261 2.00201 7.73969 2.00201 7.57208C2.00201 6.78108 2.31102 6.02246 2.86109 5.46314C3.41115 4.90383 4.15726 4.58957 4.93518 4.58957C5.71311 4.58957 6.45915 4.90383 7.00922 5.46314C7.55929 6.02246 7.86836 6.78108 7.86836 7.57208C7.86836 7.80241 7.86836 8.0265 7.85313 8.24184C7.8025 8.97605 7.57772 8.89989 8.27141 8.93633L19.2364 8.92307C19.7404 8.86061 19.8755 8.92307 19.8056 8.22636C19.7862 8.00899 19.7776 7.79075 19.7798 7.57251C19.7864 6.78589 20.0984 6.03387 20.6478 5.48004C21.1971 4.92621 21.9395 4.61547 22.7131 4.61547C23.4867 4.61547 24.229 4.92621 24.7783 5.48004C25.3277 6.03387 25.6396 6.78589 25.6463 7.57251C25.6463 7.7207 25.6463 7.86531 25.6413 8.00578C25.6226 8.57151 25.5 8.6859 26.2123 8.56183H26.2116ZM17.6406 3.10452C17.8213 1.60028 17.8434 1.16461 17.9824 0.79912C18.008 0.751797 18.0439 0.711103 18.0875 0.680202C18.131 0.649295 18.1809 0.629007 18.2335 0.620916C19.2976 0.672808 19.6614 0.654481 20.6926 0.89759C21.0589 1.00187 21.8088 1.86927 21.9956 2.13049C22.0682 2.23119 22.6068 2.86735 22.5201 2.99857C22.4911 3.04741 22.4497 3.08756 22.4003 3.11475C22.3508 3.14189 22.2952 3.15514 22.239 3.15311C20.6355 3.20744 19.6673 3.37967 18.0662 3.39934C17.6174 3.40489 17.5911 3.51614 17.6406 3.10452ZM11.5516 3.63454C11.6057 3.46619 11.6412 3.29229 11.6576 3.11605C11.6811 2.71854 10.8219 2.68851 10.3783 2.71854C11.4371 1.98255 12.5888 1.3953 13.8022 0.972699C14.7447 0.651829 16.0135 0.644324 17.0236 0.622242C17.1991 0.620472 17.193 0.695335 17.1708 0.843076C17.1002 1.3152 16.9282 2.33498 16.8233 3.01972C16.7732 3.351 16.6963 3.4287 16.364 3.43135C15.052 3.44263 11.5347 3.69855 11.5508 3.63473L11.5516 3.63454ZM22.7116 5.27833C23.1579 5.27833 23.5941 5.41288 23.9651 5.66498C24.3362 5.91707 24.6254 6.27535 24.7961 6.69456C24.9669 7.11377 25.0116 7.57504 24.9245 8.02009C24.8375 8.46508 24.6226 8.87387 24.307 9.19472C23.9915 9.51557 23.5895 9.73405 23.1518 9.82261C22.7141 9.9111 22.2605 9.86565 21.8482 9.69206C21.436 9.5184 21.0836 9.22432 20.8356 8.8471C20.5877 8.46982 20.4554 8.02626 20.4554 7.57251C20.4554 7.27121 20.5137 6.97287 20.6271 6.69456C20.7405 6.4162 20.9067 6.16324 21.1161 5.95025C21.3257 5.73719 21.5744 5.56822 21.8482 5.45291C22.1219 5.33765 22.4153 5.27833 22.7116 5.27833ZM4.93339 5.27833C5.37968 5.27833 5.81591 5.41288 6.18689 5.66498C6.55794 5.91707 6.84716 6.27535 7.01791 6.69456C7.18867 7.11377 7.23338 7.57504 7.1463 8.02009C7.05923 8.46508 6.84438 8.87387 6.52883 9.19472C6.21329 9.51557 5.81128 9.73405 5.37357 9.82261C4.93592 9.9111 4.48224 9.86565 4.07 9.69206C3.6577 9.5184 3.30533 9.22432 3.05743 8.8471C2.80953 8.46982 2.6772 8.02626 2.6772 7.57251C2.6772 6.96405 2.91492 6.38056 3.33802 5.95031C3.76117 5.52006 4.33504 5.27833 4.93339 5.27833Z" fill="black"/>
</svg>
