<svg width="30" height="10" viewBox="0 0 30 10" fill="none" xmlns="http://www.w3.org/2000/svg">
<path fill-rule="evenodd" clip-rule="evenodd" d="M23.7964 5.19811C24.233 5.19805 24.6597 5.33015 25.0226 5.57775C25.3856 5.82535 25.6685 6.17727 25.8355 6.589C26.0026 7.00079 26.0464 7.45383 25.9612 7.89098C25.8761 8.32813 25.6659 8.72967 25.3573 9.04483C25.0487 9.36 24.6554 9.57466 24.2273 9.66158C23.7991 9.74856 23.3554 9.70398 22.9521 9.53342C22.5488 9.36285 22.2041 9.07401 21.9616 8.70346C21.7191 8.33286 21.5896 7.89723 21.5896 7.45153C21.5896 6.85389 21.8221 6.28075 22.236 5.85816C22.6498 5.43557 23.2111 5.19817 23.7964 5.19811ZM21.7447 1.20271L21.5975 3.16723C22.0298 3.14382 22.4473 3.12386 22.835 3.1104C22.8899 3.11246 22.9444 3.09942 22.9927 3.07273C23.0411 3.04604 23.0816 3.00662 23.11 2.95858C23.2163 2.77843 23.3055 2.58833 23.3764 2.39096C23.4123 2.28251 23.4047 2.23301 23.3138 2.10594C23.192 1.9361 22.382 1.50466 21.7447 1.20271ZM21.2695 3.18525L21.4505 1.06697C21.3097 1.00091 21.1654 0.942985 21.0182 0.89343C20.5241 0.740183 20.0119 0.656193 19.4957 0.643777L17.8085 0.622086C17.7632 0.620139 17.7181 0.629449 17.677 0.649205C17.636 0.668961 17.6003 0.698579 17.5729 0.735524C17.437 1.09475 17.4053 1.58381 17.2286 3.06139C17.1801 3.4659 17.206 3.35636 17.6454 3.35071C18.7275 3.33749 20.0427 3.2527 21.2695 3.18391V3.18525ZM27.2147 8.44859C27.6626 8.41347 28.1707 8.37052 28.5707 8.30022C28.8057 8.28003 29.0328 8.20354 29.2335 8.07707C29.5579 7.76949 29.5207 6.81034 29.515 6.3186C29.5137 6.19868 29.2176 6.19844 29.2097 6.07373C29.1672 5.31566 29.1145 4.47649 29.0334 3.69754C28.9361 2.76248 27.0578 2.72802 25.9076 2.3562C25.0893 2.09162 24.4152 1.52461 23.3641 1.05004C22.2066 0.527299 21.1962 0.0479429 19.9792 0.0479429C18.0014 0.0479429 15.0617 -0.192824 13.2205 0.404745C11.4573 0.97671 9.85093 2.00986 8.17859 2.81694C6.04867 3.05951 3.93688 3.44637 1.85719 3.97498C1.60955 4.01793 1.37551 4.12056 1.17449 4.27438C0.973468 4.42814 0.811263 4.62867 0.70133 4.85928C0.537936 5.21727 0.394727 5.58454 0.272421 5.95921C0.109906 5.97268 0.103744 5.93059 0.0523379 6.02751C0.0165146 6.15895 0.00441968 6.29598 0.0166479 6.43184C-0.0202733 6.83818 0.00430447 7.24785 0.0895137 7.64648C0.125282 7.88097 0.241911 8.09466 0.418365 8.24909C0.541866 8.34935 0.692887 8.40789 0.850458 8.4165L1.60141 8.44143C2.04965 8.3573 1.9651 8.29852 1.93663 7.71635C1.93239 7.62961 1.93034 7.5413 1.93048 7.45153C1.93048 6.67453 2.23276 5.92943 2.77083 5.38001C3.30891 4.83065 4.03866 4.52204 4.79964 4.52204C5.56057 4.52204 6.29032 4.83065 6.8284 5.38001C7.36647 5.92943 7.66878 6.67453 7.66878 7.45153C7.66878 7.61591 7.66557 7.77689 7.65477 7.93453C7.58738 8.91606 7.49798 8.74665 8.3696 8.79111L20.4076 8.77765C21.0483 8.68745 21.012 8.76964 20.9449 7.94775C20.9317 7.78641 20.9273 7.62045 20.9273 7.45153C20.9338 6.6789 21.2389 5.94017 21.7763 5.39621C22.3137 4.85219 23.0398 4.54703 23.7965 4.54703C24.5533 4.54703 25.2793 4.85219 25.8167 5.39621C26.3541 5.94017 26.6592 6.6789 26.6658 7.45153C26.6658 7.59031 26.662 7.7283 26.6515 7.86362C26.6002 8.53605 26.7846 8.48116 27.2147 8.44756V8.44859ZM11.2725 3.58284C11.3254 3.4175 11.3601 3.24669 11.3762 3.07352C11.3991 2.68308 10.6994 2.6536 10.2654 2.68308C11.2506 1.96079 12.3305 1.38341 13.4731 0.968036C14.1924 0.776746 14.9302 0.668269 15.6731 0.644644L16.624 0.622953C16.7956 0.621 16.8183 0.702558 16.768 0.839871C16.598 1.30358 16.5309 2.30525 16.4281 2.97786C16.3788 3.30322 16.3036 3.37934 15.9786 3.3822C14.6953 3.39305 11.2547 3.64465 11.2704 3.58193L11.2725 3.58284ZM4.80007 5.19811C5.23655 5.19811 5.66326 5.33028 6.02616 5.57787C6.38913 5.82547 6.67203 6.17739 6.83901 6.58919C7.00606 7.00092 7.04979 7.45401 6.96463 7.8911C6.87947 8.32825 6.6693 8.72979 6.36062 9.04489C6.05194 9.36006 5.65871 9.57466 5.2306 9.66164C4.8025 9.74856 4.35874 9.70392 3.9555 9.53342C3.5522 9.36285 3.20749 9.07401 2.96499 8.70346C2.72249 8.33286 2.59305 7.89717 2.59305 7.45153C2.59305 6.85389 2.8256 6.28069 3.23946 5.8581C3.65337 5.43551 4.21474 5.19811 4.80007 5.19811Z" fill="#2DBDB6"/>
</svg>
