<svg width="33" height="13" viewBox="0 0 33 13" fill="none" xmlns="http://www.w3.org/2000/svg">
<path fill-rule="evenodd" clip-rule="evenodd" d="M26.2096 7.71105C26.6903 7.71105 27.1603 7.85366 27.56 8.12072C27.9597 8.38779 28.2713 8.76744 28.4553 9.21156C28.6393 9.65574 28.6874 10.1444 28.5937 10.616C28.4999 11.0875 28.2684 11.5206 27.9284 11.8606C27.5885 12.2005 27.1555 12.432 26.6839 12.5258C26.2124 12.6197 25.7237 12.5716 25.2796 12.3876C24.8354 12.2037 24.4557 11.8922 24.1886 11.4925C23.9215 11.0927 23.7789 10.6228 23.7788 10.1421C23.7788 9.49736 24.035 8.8791 24.4908 8.42327C24.9466 7.96745 25.5649 7.71105 26.2096 7.71105ZM29.6853 11.1973C30.2369 11.1505 30.9377 11.0955 31.4679 10.9937C31.7302 10.9677 31.9815 10.875 32.1979 10.7244C32.5551 10.3533 32.514 9.19633 32.5079 8.60324C32.5065 8.45888 32.1804 8.45864 32.1714 8.30797C32.144 7.37648 32.0273 6.44972 31.8228 5.54049C31.648 4.83858 31.3008 4.36201 31.0348 3.81611C30.798 3.32994 30.2283 1.76021 29.415 0.861281C29.3135 0.727771 29.2686 0.559676 29.29 0.393334C29.3022 -0.0027783 29.2409 0.0514964 28.8724 0.0189789C28.455 -0.0177542 27.7478 0.00914649 26.7999 0.0147632L15.6375 0.0788703C15.1137 0.0816786 14.6183 0.128942 14.1635 0.162399C11.6639 0.345834 8.6674 2.45534 6.53335 3.73659C5.34219 4.15469 3.5116 4.8461 1.91285 5.4324C1.67753 5.50106 1.46125 5.6231 1.28089 5.78912C1.10052 5.95513 0.960952 6.16057 0.873067 6.38937C0.731176 6.73049 0.62151 7.08418 0.545502 7.44575C0.482184 7.69298 0.40005 7.93499 0.299834 8.16967C0.121076 8.18605 0.114288 8.13504 0.0576723 8.25204C0.0181491 8.41133 0.00487165 8.57607 0.0183615 8.73965C-0.02229 9.22945 0.004635 9.72252 0.0983784 10.205C0.19712 10.5972 0.28743 10.7874 0.460572 10.9318C0.591795 11.0509 0.759568 11.1221 0.936471 11.1337L1.70227 11.1617C2.21701 11.1089 2.24298 11.2003 2.15665 10.5808C2.09144 10.1139 2.13153 9.63827 2.27398 9.18887C2.41643 8.73947 2.65764 8.32762 2.97991 7.98352C3.30219 7.63942 3.69739 7.37181 4.13648 7.20027C4.57563 7.02874 5.04759 6.95759 5.51773 6.99216C5.98794 7.02668 6.44443 7.16594 6.8538 7.39983C7.26316 7.63366 7.61502 7.95616 7.88355 8.34363C8.15207 8.7311 8.33058 9.17377 8.40585 9.63918C8.48113 10.1045 8.45129 10.5809 8.31857 11.0333C8.14194 11.6337 8.22965 11.5375 8.72193 11.5862L22.6141 11.5693C23.1207 11.5204 23.3441 11.6496 23.1569 10.961C23.0846 10.6933 23.0483 10.417 23.0491 10.1397C23.0499 9.70141 23.142 9.26809 23.3193 8.86721C23.4967 8.4664 23.7555 8.10683 24.0793 7.81144C24.4031 7.51605 24.7848 7.2912 25.2002 7.15126C25.6156 7.01133 26.0556 6.95935 26.4921 6.99859C26.9287 7.03784 27.3523 7.16752 27.736 7.37933C28.1198 7.59108 28.4553 7.88041 28.7212 8.22887C28.9871 8.57728 29.1777 8.97724 29.2806 9.40329C29.3836 9.82933 29.3969 10.2722 29.3196 10.7036C29.258 11.0445 29.3492 11.2251 29.6853 11.1962V11.1973ZM16.7879 4.05643C16.9826 2.27424 17.0289 1.47406 17.1784 1.04097C17.2066 0.998114 17.2451 0.963098 17.2904 0.939199C17.3358 0.915301 17.3864 0.903303 17.4377 0.904334L21.7522 0.874613C22.0278 0.872745 22.1941 0.88117 22.2052 1.25038L22.2802 3.77262C22.2896 4.08869 22.3299 4.24901 21.9686 4.26211C20.2412 4.3264 18.9726 4.38233 17.247 4.4055C16.7634 4.41205 16.7349 4.54404 16.7879 4.05643ZM9.76406 4.66171C9.82247 4.46124 9.86074 4.25538 9.87821 4.04727C9.90351 3.57584 9.13281 3.54074 8.65478 3.57561C10.1424 2.33859 12.6955 0.925151 14.601 0.921876L16.1122 0.919304C16.3015 0.916496 16.3097 1.00892 16.2708 1.18112C16.1398 1.76605 16.0205 3.14393 15.9087 3.95513C15.8546 4.34654 15.7718 4.4394 15.4138 4.44292C14.0004 4.45584 9.74695 4.73729 9.76406 4.66171ZM23.0668 3.8835C23.0286 3.0604 22.9903 2.2372 22.9519 1.41393C22.9523 1.29987 22.9694 1.18649 23.003 1.07747C23.0193 1.00728 23.1417 0.942699 23.2472 0.941061C24.2086 0.927493 23.8301 0.930071 24.7915 0.917673C25.0509 0.914161 26.7145 1.24523 27.2482 1.71318C27.9627 2.34163 28.7014 3.14908 28.8706 3.47827C29.014 3.75763 28.9506 3.9544 28.5912 3.96775C26.8708 4.03186 25.288 4.20964 23.565 4.23281C23.0823 4.23918 23.0895 4.37038 23.0668 3.8835ZM5.28675 7.71105C5.76745 7.71111 6.23741 7.85372 6.63713 8.12084C7.03679 8.38797 7.34832 8.76762 7.53229 9.21174C7.7162 9.65592 7.76436 10.1446 7.67052 10.6161C7.57675 11.0876 7.34523 11.5207 7.00531 11.8606C6.6654 12.2005 6.23226 12.4321 5.76078 12.5258C5.2893 12.6197 4.80054 12.5716 4.35642 12.3876C3.91223 12.2036 3.53265 11.8921 3.26551 11.4925C2.9984 11.0927 2.85581 10.6228 2.85576 10.1421C2.85573 9.82284 2.91858 9.50671 3.04074 9.21174C3.1629 8.91677 3.34196 8.64879 3.56771 8.42303C3.79347 8.19727 4.06145 8.01822 4.35642 7.89605C4.65139 7.77389 4.96746 7.71105 5.28675 7.71105Z" fill="black"/>
</svg>
