<svg width="78" height="30" viewBox="0 0 78 30" fill="none" xmlns="http://www.w3.org/2000/svg">
<path d="M43.5266 16.0403C43.5177 15.6192 43.5199 15.1982 43.5266 14.7772C43.5357 14.6628 43.5082 14.5486 43.4479 14.451C43.3877 14.3534 43.2979 14.2775 43.1916 14.2344C43.0129 14.1506 42.8353 14.0624 42.6633 13.9664C42.6406 13.9524 42.6212 13.9335 42.6068 13.9111C42.5923 13.8887 42.583 13.8633 42.5796 13.8368C42.5751 11.6382 42.5751 9.43925 42.5796 7.23991C42.5804 7.22586 42.5831 7.21198 42.5874 7.19859C43.1123 7.36164 43.5266 7.96806 43.5266 8.58118C43.5266 9.80407 43.5266 11.0281 43.5266 12.251C43.5266 12.8652 43.7935 13.3242 44.3452 13.6068C45.1638 14.0256 46.2438 13.4526 46.3476 12.5391C46.3636 12.4064 46.3718 12.2729 46.3722 12.1393C46.3722 9.86549 46.3722 7.5917 46.3722 5.31902C46.3848 5.18691 46.3546 5.05426 46.286 4.94064C46.2174 4.82702 46.1141 4.73845 45.9914 4.68803C45.4174 4.41441 44.8523 4.11847 44.2816 3.8348C44.0459 3.71642 43.8349 3.74434 43.6819 3.90516C43.6305 3.95768 43.5922 4.02149 43.5699 4.09149C43.5477 4.16149 43.5421 4.23573 43.5537 4.30826C43.5654 4.38079 43.5938 4.44958 43.6368 4.50913C43.6798 4.56868 43.7362 4.61733 43.8014 4.65118C44.0348 4.77961 44.276 4.89241 44.5127 5.0119C44.4189 5.50664 44.6881 6.1287 45.3079 6.46374C45.3458 6.4781 45.3781 6.50436 45.3998 6.53859C45.4216 6.57281 45.4316 6.61316 45.4285 6.65359C45.4285 8.52609 45.4285 10.3986 45.4285 12.2711C45.4285 12.6385 45.1415 12.8719 44.8165 12.7736C44.7163 12.7431 44.629 12.6801 44.5684 12.5946C44.5077 12.5091 44.4772 12.4059 44.4815 12.3012C44.4815 11.9662 44.4815 11.6311 44.4815 11.2961C44.4815 10.4027 44.4692 9.50254 44.4815 8.60687C44.5005 7.45992 43.6439 6.52069 42.7348 6.2415C42.603 6.20017 42.5751 6.1421 42.5762 6.01814C42.5822 5.11204 42.5822 4.20557 42.5762 3.29874C42.5836 2.86764 42.4421 2.44718 42.1756 2.10825C41.9091 1.76932 41.5339 1.53265 41.1132 1.43816L40.9133 1.39014H34.7709C34.5353 1.47166 34.2807 1.5208 34.0674 1.64142C33.4107 2.01219 33.0801 2.59069 33.0801 3.35011C33.0801 6.81664 33.0801 10.2839 33.0801 13.7519C33.0801 13.8815 33.0555 13.9597 32.9249 14.011C32.7596 14.0747 32.6066 14.1685 32.4469 14.2456C32.3456 14.2877 32.2602 14.3606 32.2026 14.454C32.1451 14.5474 32.1184 14.6566 32.1264 14.766C32.1264 15.168 32.1409 15.5701 32.1264 15.9699C32.113 16.2826 32.228 16.4937 32.5161 16.6098H43.167C43.4283 16.5071 43.5344 16.315 43.5266 16.0403ZM42.5751 15.646H33.0824C33.0824 15.4472 33.0824 15.2585 33.0824 15.072C33.0865 15.0475 33.0958 15.0242 33.1096 15.0035C33.1235 14.9829 33.1416 14.9655 33.1628 14.9525C33.3314 14.8598 33.5034 14.7727 33.6787 14.6934C33.7922 14.6489 33.8881 14.5685 33.9516 14.4645C34.0151 14.3604 34.0428 14.2384 34.0305 14.1171C34.0305 10.5546 34.0361 6.99309 34.0216 3.43163C34.0216 2.74034 34.5007 2.32936 35.1194 2.33383C36.9386 2.34835 38.7579 2.33941 40.5772 2.33941C41.2472 2.33941 41.6236 2.71131 41.6236 3.38697C41.6236 6.94359 41.6217 10.5006 41.618 14.0579C41.618 14.393 41.7297 14.6041 42.039 14.728C42.1924 14.7932 42.3416 14.8678 42.4858 14.9514C42.5068 14.9642 42.5247 14.9814 42.5384 15.0018C42.5521 15.0223 42.5612 15.0455 42.5651 15.0698C42.5796 15.2596 42.5751 15.4472 42.5751 15.646Z" fill="#404040"/>
<path d="M40.1126 3.76667H35.5337C35.1685 3.76667 34.9843 3.94983 34.9831 4.31279V7.96695C34.9831 8.33995 35.1663 8.52534 35.5415 8.52534H40.1204C40.4945 8.52534 40.6788 8.34442 40.6788 7.96695C40.6788 6.75411 40.6788 5.54089 40.6788 4.32731C40.6754 3.94536 40.4968 3.76667 40.1126 3.76667ZM39.7183 7.56378H35.9402V4.72377H39.7183V7.56378Z" fill="#404040"/>
<path d="M31.9299 23.056C31.9299 23.52 31.7699 23.9067 31.4499 24.216C31.1353 24.52 30.6526 24.672 30.0019 24.672H28.9299V27H28.2019V21.424H30.0019C30.6313 21.424 31.1086 21.576 31.4339 21.88C31.7646 22.184 31.9299 22.576 31.9299 23.056ZM30.0019 24.072C30.4073 24.072 30.7059 23.984 30.8979 23.808C31.0899 23.632 31.1859 23.3813 31.1859 23.056C31.1859 22.368 30.7913 22.024 30.0019 22.024H28.9299V24.072H30.0019ZM36.8348 24.64C36.8348 24.7787 36.8268 24.9253 36.8108 25.08H33.3068C33.3334 25.512 33.4801 25.8507 33.7468 26.096C34.0188 26.336 34.3468 26.456 34.7308 26.456C35.0454 26.456 35.3068 26.384 35.5148 26.24C35.7281 26.0907 35.8774 25.8933 35.9628 25.648H36.7468C36.6294 26.0693 36.3948 26.4133 36.0428 26.68C35.6908 26.9413 35.2534 27.072 34.7308 27.072C34.3148 27.072 33.9414 26.9787 33.6108 26.792C33.2854 26.6053 33.0294 26.3413 32.8428 26C32.6561 25.6533 32.5628 25.2533 32.5628 24.8C32.5628 24.3467 32.6534 23.9493 32.8348 23.608C33.0161 23.2667 33.2694 23.0053 33.5948 22.824C33.9254 22.6373 34.3041 22.544 34.7308 22.544C35.1468 22.544 35.5148 22.6347 35.8348 22.816C36.1548 22.9973 36.4001 23.248 36.5708 23.568C36.7468 23.8827 36.8348 24.24 36.8348 24.64ZM36.0828 24.488C36.0828 24.2107 36.0214 23.9733 35.8988 23.776C35.7761 23.5733 35.6081 23.4213 35.3948 23.32C35.1868 23.2133 34.9548 23.16 34.6988 23.16C34.3308 23.16 34.0161 23.2773 33.7548 23.512C33.4988 23.7467 33.3521 24.072 33.3148 24.488H36.0828ZM38.6837 23.216V25.8C38.6837 26.0133 38.729 26.1653 38.8197 26.256C38.9104 26.3413 39.0677 26.384 39.2917 26.384H39.8277V27H39.1717C38.7664 27 38.4624 26.9067 38.2597 26.72C38.057 26.5333 37.9557 26.2267 37.9557 25.8V23.216H37.3877V22.616H37.9557V21.512H38.6837V22.616H39.8277V23.216H38.6837ZM41.4378 23.328C41.5658 23.0773 41.7471 22.8827 41.9818 22.744C42.2218 22.6053 42.5124 22.536 42.8538 22.536V23.288H42.6618C41.8458 23.288 41.4378 23.7307 41.4378 24.616V27H40.7098V22.616H41.4378V23.328ZM45.6061 27.072C45.1955 27.072 44.8221 26.9787 44.4861 26.792C44.1555 26.6053 43.8941 26.3413 43.7021 26C43.5155 25.6533 43.4221 25.2533 43.4221 24.8C43.4221 24.352 43.5181 23.9573 43.7101 23.616C43.9075 23.2693 44.1741 23.0053 44.5101 22.824C44.8461 22.6373 45.2221 22.544 45.6381 22.544C46.0541 22.544 46.4301 22.6373 46.7661 22.824C47.1021 23.0053 47.3661 23.2667 47.5581 23.608C47.7555 23.9493 47.8541 24.3467 47.8541 24.8C47.8541 25.2533 47.7528 25.6533 47.5501 26C47.3528 26.3413 47.0835 26.6053 46.7421 26.792C46.4008 26.9787 46.0221 27.072 45.6061 27.072ZM45.6061 26.432C45.8675 26.432 46.1128 26.3707 46.3421 26.248C46.5715 26.1253 46.7555 25.9413 46.8941 25.696C47.0381 25.4507 47.1101 25.152 47.1101 24.8C47.1101 24.448 47.0408 24.1493 46.9021 23.904C46.7635 23.6587 46.5821 23.4773 46.3581 23.36C46.1341 23.2373 45.8915 23.176 45.6301 23.176C45.3635 23.176 45.1181 23.2373 44.8941 23.36C44.6755 23.4773 44.4995 23.6587 44.3661 23.904C44.2328 24.1493 44.1661 24.448 44.1661 24.8C44.1661 25.1573 44.2301 25.4587 44.3581 25.704C44.4915 25.9493 44.6675 26.1333 44.8861 26.256C45.1048 26.3733 45.3448 26.432 45.6061 26.432ZM49.5393 21.08V27H48.8113V21.08H49.5393Z" fill="#404040"/>
</svg>
