<svg width="78" height="30" viewBox="0 0 78 30" fill="none" xmlns="http://www.w3.org/2000/svg">
<path d="M44.5922 2.21075C44.1325 2.17916 43.6768 2.31423 43.3086 2.59122C42.9404 2.86821 42.6842 3.26859 42.5871 3.71901C42.49 4.16944 42.5584 4.63977 42.7798 5.04387C43.0012 5.44797 43.3608 5.75879 43.7927 5.9194C43.8395 5.92778 43.8813 5.95386 43.9094 5.99223C43.9375 6.03061 43.9498 6.07834 43.9437 6.12551C43.9358 6.81736 43.9437 7.5092 43.9437 8.20104C43.9437 8.44129 43.8977 8.48592 43.6575 8.48592H39.4066V5.9811C39.8674 5.84525 40.2613 5.54295 40.5117 5.13293C40.7621 4.72291 40.8511 4.23446 40.7614 3.76248C40.6768 3.32678 40.4437 2.93393 40.1018 2.65088C39.76 2.36782 39.3305 2.2121 38.8867 2.21024C38.4428 2.20838 38.0121 2.3605 37.6679 2.64068C37.3236 2.92086 37.0872 3.31176 36.999 3.74673C36.9765 3.85081 36.9633 3.95669 36.9596 4.06311C36.9596 4.11693 36.9596 4.17076 36.9596 4.2259C36.9825 4.62486 37.1275 5.00713 37.375 5.32088C37.6226 5.63462 37.9606 5.86465 38.3433 5.97979V8.4741H33.8246V5.97979L33.9559 5.92859C34.3808 5.77539 34.7383 5.47783 34.9662 5.08786C35.194 4.69789 35.2777 4.24029 35.2025 3.79494C35.1273 3.34959 34.8981 2.94478 34.5549 2.65119C34.2117 2.3576 33.7763 2.19388 33.3247 2.18861C32.8731 2.18334 32.4339 2.33685 32.084 2.62235C31.734 2.90784 31.4954 3.30719 31.4099 3.75067C31.3243 4.19414 31.3973 4.65358 31.616 5.04876C31.8346 5.44394 32.1852 5.74976 32.6063 5.91284C32.6579 5.92365 32.7034 5.95368 32.7337 5.99684C32.7639 6.03999 32.7766 6.09304 32.7691 6.1452C32.7639 8.05314 32.7639 9.96019 32.7691 11.8664C32.7775 11.9208 32.7649 11.9763 32.734 12.0219C32.7031 12.0674 32.6561 12.0996 32.6024 12.1119C32.1868 12.2749 31.8414 12.5783 31.6262 12.9695C31.4111 13.3607 31.3397 13.8148 31.4246 14.2531C31.5094 14.6914 31.7451 15.0862 32.0907 15.3688C32.4363 15.6514 32.87 15.804 33.3164 15.8001C33.7628 15.7963 34.1938 15.6362 34.5344 15.3476C34.8751 15.0591 35.1039 14.6603 35.1812 14.2206C35.2584 13.7809 35.1792 13.328 34.9573 12.9406C34.7354 12.5533 34.3848 12.2558 33.9664 12.1001C33.8876 12.0699 33.8075 12.062 33.8089 11.9346C33.8089 11.1667 33.8089 10.3974 33.8089 9.62937C33.8102 9.6007 33.8137 9.57216 33.8194 9.54403H38.338V12.0383C37.8949 12.1667 37.513 12.4507 37.2625 12.8382C37.012 13.2256 36.9098 13.6905 36.9746 14.1472C37.0395 14.604 37.267 15.022 37.6154 15.3245C37.9638 15.6269 38.4097 15.7934 38.871 15.7934C39.3324 15.7934 39.7782 15.6269 40.1266 15.3245C40.475 15.022 40.7025 14.604 40.7674 14.1472C40.8322 13.6905 40.73 13.2256 40.4795 12.8382C40.229 12.4507 39.8471 12.1667 39.404 12.0383V9.53222H43.6496C44.4675 9.53222 44.9755 9.02548 44.9768 8.20892C44.9768 7.53283 44.9768 6.85674 44.9768 6.18065C44.9662 6.11903 44.9796 6.05569 45.0143 6.00366C45.049 5.95164 45.1023 5.9149 45.1632 5.90102C45.565 5.74327 45.9014 5.45393 46.1174 5.08027C46.3334 4.70662 46.4164 4.27075 46.3526 3.84387C46.2864 3.41299 46.0765 3.01715 45.7569 2.72067C45.4373 2.42419 45.0268 2.24449 44.5922 2.21075ZM34.1686 13.9012C34.1589 14.126 34.0625 14.3384 33.8996 14.4936C33.7368 14.6489 33.5201 14.7351 33.295 14.7341C33.07 14.7331 32.8541 14.6449 32.6927 14.4882C32.5312 14.3314 32.4368 14.1182 32.4291 13.8933C32.4273 13.7787 32.4487 13.6649 32.492 13.5588C32.5352 13.4527 32.5995 13.3564 32.6809 13.2757C32.7623 13.195 32.8592 13.1316 32.9657 13.0893C33.0723 13.047 33.1862 13.0267 33.3008 13.0295C33.4154 13.0284 33.529 13.0503 33.6351 13.0938C33.7411 13.1373 33.8373 13.2015 33.9182 13.2827C33.999 13.3639 34.0628 13.4605 34.1058 13.5667C34.1488 13.6729 34.1701 13.7866 34.1686 13.9012ZM33.3021 4.98863C33.1868 4.99239 33.0719 4.97264 32.9644 4.93058C32.8569 4.88852 32.7591 4.82503 32.677 4.74398C32.5948 4.66292 32.53 4.566 32.4865 4.4591C32.443 4.35221 32.4217 4.23757 32.4239 4.12218C32.4198 4.00512 32.4394 3.88844 32.4814 3.77913C32.5235 3.66982 32.5872 3.57012 32.6688 3.48602C32.7503 3.40192 32.848 3.33514 32.9559 3.28967C33.0639 3.24421 33.1799 3.22101 33.297 3.22145C33.4141 3.22189 33.53 3.24597 33.6376 3.29225C33.7452 3.33852 33.8423 3.40604 33.9232 3.49076C34.0041 3.57547 34.0671 3.67564 34.1083 3.78527C34.1496 3.8949 34.1683 4.01172 34.1633 4.12875C34.1635 4.24183 34.1413 4.35383 34.0981 4.45832C34.0549 4.56281 33.9914 4.65773 33.9114 4.73763C33.8314 4.81753 33.7364 4.88083 33.6318 4.9239C33.5272 4.96698 33.4152 4.98898 33.3021 4.98863ZM38.0046 4.12218C38.0133 3.89633 38.1092 3.68265 38.2721 3.52596C38.435 3.36926 38.6522 3.28173 38.8782 3.28173C39.1042 3.28173 39.3215 3.36926 39.4844 3.52596C39.6473 3.68265 39.7431 3.89633 39.7519 4.12218C39.7431 4.34803 39.6473 4.56172 39.4844 4.71841C39.3215 4.8751 39.1042 4.96263 38.8782 4.96263C38.6522 4.96263 38.435 4.8751 38.2721 4.71841C38.1092 4.56172 38.0133 4.34803 38.0046 4.12218ZM39.7519 13.8999C39.7431 14.1257 39.6473 14.3394 39.4844 14.4961C39.3215 14.6528 39.1042 14.7403 38.8782 14.7403C38.6522 14.7403 38.435 14.6528 38.2721 14.4961C38.1092 14.3394 38.0133 14.1257 38.0046 13.8999C38.0133 13.674 38.1092 13.4604 38.2721 13.3037C38.435 13.147 38.6522 13.0594 38.8782 13.0594C39.1042 13.0594 39.3215 13.147 39.4844 13.3037C39.6473 13.4604 39.7431 13.674 39.7519 13.8999ZM44.4504 4.99125C44.3373 4.9916 44.2253 4.96961 44.1207 4.92653C44.0162 4.88346 43.9212 4.82015 43.8411 4.74025C43.7611 4.66035 43.6977 4.56543 43.6544 4.46094C43.6112 4.35645 43.589 4.24445 43.5892 4.13137C43.5847 4.01432 43.6038 3.89754 43.6454 3.78805C43.6871 3.67857 43.7504 3.57862 43.8316 3.49419C43.9128 3.40976 44.0103 3.3426 44.1181 3.29672C44.2258 3.25084 44.3418 3.22719 44.4589 3.22719C44.5761 3.22719 44.692 3.25084 44.7998 3.29672C44.9076 3.3426 45.005 3.40976 45.0862 3.49419C45.1674 3.57862 45.2308 3.67857 45.2724 3.78805C45.3141 3.89754 45.3332 4.01432 45.3287 4.13137C45.3294 4.24595 45.3071 4.35949 45.2629 4.46523C45.2188 4.57096 45.1538 4.66671 45.0718 4.74674C44.9898 4.82677 44.8925 4.88944 44.7857 4.931C44.679 4.97256 44.5649 4.99216 44.4504 4.98863V4.99125Z" fill="#404040"/>
<path d="M44.457 11.978C44.0774 11.9782 43.7064 12.0912 43.3911 12.3025C43.0758 12.5139 42.8304 12.8141 42.6859 13.1651C42.5414 13.5162 42.5044 13.9022 42.5796 14.2742C42.6548 14.6463 42.8387 14.9877 43.1081 15.2551C43.3776 15.5224 43.7203 15.7038 44.0929 15.7762C44.4656 15.8485 44.8513 15.8086 45.2012 15.6615C45.5511 15.5144 45.8495 15.2667 46.0584 14.9498C46.2674 14.6329 46.3776 14.2611 46.375 13.8815C46.3711 13.3753 46.1674 12.8912 45.8081 12.5346C45.4488 12.178 44.9631 11.978 44.457 11.978ZM44.4688 14.7637C44.3518 14.7688 44.2349 14.7503 44.1253 14.7092C44.0156 14.6681 43.9153 14.6053 43.8305 14.5245C43.7457 14.4438 43.678 14.3467 43.6316 14.2392C43.5852 14.1317 43.5609 14.0159 43.5603 13.8988C43.5597 13.7816 43.5827 13.6656 43.628 13.5576C43.6733 13.4496 43.7399 13.3518 43.8239 13.2702C43.9079 13.1885 44.0074 13.1247 44.1167 13.0824C44.2259 13.0402 44.3425 13.0204 44.4596 13.0243C44.6845 13.0317 44.8978 13.126 45.0547 13.2874C45.2116 13.4487 45.2999 13.6645 45.3011 13.8896C45.3023 14.1146 45.2162 14.3314 45.0611 14.4943C44.9059 14.6573 44.6936 14.7539 44.4688 14.7637Z" fill="#404040"/>
<path d="M33.5175 25.76H31.0855L30.6375 27H29.8695L31.8855 21.456H32.7255L34.7335 27H33.9655L33.5175 25.76ZM33.3095 25.168L32.3015 22.352L31.2935 25.168H33.3095ZM39.5001 22.616V27H38.7721V26.352C38.6334 26.576 38.4388 26.752 38.1881 26.88C37.9428 27.0027 37.6708 27.064 37.3721 27.064C37.0308 27.064 36.7241 26.9947 36.4521 26.856C36.1801 26.712 35.9641 26.4987 35.8041 26.216C35.6494 25.9333 35.5721 25.5893 35.5721 25.184V22.616H36.2921V25.088C36.2921 25.52 36.4014 25.8533 36.6201 26.088C36.8388 26.3173 37.1374 26.432 37.5161 26.432C37.9054 26.432 38.2121 26.312 38.4361 26.072C38.6601 25.832 38.7721 25.4827 38.7721 25.024V22.616H39.5001ZM41.6173 23.216V25.8C41.6173 26.0133 41.6626 26.1653 41.7533 26.256C41.8439 26.3413 42.0013 26.384 42.2253 26.384H42.7613V27H42.1053C41.6999 27 41.3959 26.9067 41.1933 26.72C40.9906 26.5333 40.8893 26.2267 40.8893 25.8V23.216H40.3213V22.616H40.8893V21.512H41.6173V22.616H42.7613V23.216H41.6173ZM45.5553 27.072C45.1447 27.072 44.7713 26.9787 44.4353 26.792C44.1047 26.6053 43.8433 26.3413 43.6513 26C43.4647 25.6533 43.3713 25.2533 43.3713 24.8C43.3713 24.352 43.4673 23.9573 43.6593 23.616C43.8567 23.2693 44.1233 23.0053 44.4593 22.824C44.7953 22.6373 45.1713 22.544 45.5873 22.544C46.0033 22.544 46.3793 22.6373 46.7153 22.824C47.0513 23.0053 47.3153 23.2667 47.5073 23.608C47.7047 23.9493 47.8033 24.3467 47.8033 24.8C47.8033 25.2533 47.702 25.6533 47.4993 26C47.302 26.3413 47.0327 26.6053 46.6913 26.792C46.35 26.9787 45.9713 27.072 45.5553 27.072ZM45.5553 26.432C45.8167 26.432 46.062 26.3707 46.2913 26.248C46.5207 26.1253 46.7047 25.9413 46.8433 25.696C46.9873 25.4507 47.0593 25.152 47.0593 24.8C47.0593 24.448 46.99 24.1493 46.8513 23.904C46.7127 23.6587 46.5313 23.4773 46.3073 23.36C46.0833 23.2373 45.8407 23.176 45.5793 23.176C45.3127 23.176 45.0673 23.2373 44.8433 23.36C44.6247 23.4773 44.4487 23.6587 44.3153 23.904C44.182 24.1493 44.1153 24.448 44.1153 24.8C44.1153 25.1573 44.1793 25.4587 44.3073 25.704C44.4407 25.9493 44.6167 26.1333 44.8353 26.256C45.054 26.3733 45.294 26.432 45.5553 26.432Z" fill="#404040"/>
</svg>
