<svg width="78" height="30" viewBox="0 0 78 30" fill="none" xmlns="http://www.w3.org/2000/svg">
<path d="M43.453 6.18757L43.81 5.81406C44.067 5.54677 44.3335 5.27013 44.5929 4.997C44.727 4.86143 44.8183 4.69076 44.8558 4.50551C44.8934 4.32026 44.8756 4.12831 44.8045 3.95275C44.7335 3.77719 44.6123 3.62548 44.4555 3.51587C44.2987 3.40626 44.113 3.34341 43.9207 3.33488C43.775 3.33046 43.63 3.35696 43.4957 3.41256C43.3614 3.46816 43.2409 3.55155 43.1425 3.65703C42.7927 4.01887 42.4393 4.38655 42.0966 4.74372L41.2542 5.62847L41.2399 5.64131C41.0745 5.57595 40.9139 5.50708 40.7449 5.43471C41.0287 5.18948 41.2461 4.87904 41.3775 4.53119C41.509 4.18333 41.5505 3.80892 41.4983 3.44148C41.446 3.07404 41.3017 2.72504 41.0783 2.42574C40.8548 2.12643 40.5592 1.88616 40.2178 1.72644C40.0608 1.65766 39.8974 1.60373 39.73 1.56536C39.6562 1.54669 39.5872 1.52801 39.5182 1.507L39.4956 1.5H38.9482L38.9232 1.50817L38.8923 1.51984L38.8637 1.52918C37.9012 1.71127 37.2634 2.2762 37.0195 3.16329C36.7815 4.0142 37.0123 4.78457 37.6775 5.40087C37.5111 5.45827 37.3482 5.52491 37.1896 5.60046C35.4774 6.46771 34.5933 7.85671 34.5624 9.72777C34.5541 10.2752 34.5553 10.8308 34.5564 11.3677C34.5564 11.7482 34.5564 12.1404 34.5564 12.5268C34.5511 12.5773 34.5308 12.6251 34.4981 12.6645C34.3851 12.7941 34.2602 12.9213 34.1412 13.0438L33.996 13.1956L33.5201 13.68C33.1572 14.0582 32.78 14.4492 32.4135 14.8367C32.2797 14.9693 32.1874 15.1366 32.1474 15.3189C32.1073 15.5013 32.1213 15.691 32.1875 15.8658C32.2538 16.0407 32.3697 16.1932 32.5215 16.3056C32.6732 16.418 32.8546 16.4854 33.0441 16.5H33.1179C33.2544 16.499 33.3893 16.4714 33.5147 16.4187C33.6401 16.366 33.7536 16.2892 33.8485 16.193C33.9829 16.06 34.1162 15.9211 34.2447 15.7857C34.2916 15.941 34.3784 16.0819 34.4968 16.1949C34.6151 16.3079 34.761 16.3893 34.9205 16.4311C35.3429 16.542 35.7534 16.3798 36.0331 15.9864C36.0902 15.9071 36.1521 15.8324 36.2151 15.753C36.2782 15.6736 36.3258 15.6164 36.3781 15.5452C36.4091 15.5055 36.4364 15.4868 36.5221 15.4868H37.637C39.0363 15.4868 40.4832 15.4962 41.9074 15.474C42.3143 15.474 42.5404 15.5744 42.7403 15.8674C42.8093 15.9717 42.8996 16.061 43.0055 16.1295C43.1114 16.198 43.2305 16.2442 43.3555 16.2654C43.4868 16.2872 43.6212 16.283 43.7508 16.2529C43.8804 16.2228 44.0025 16.1675 44.1099 16.0903C44.2151 16.0152 44.304 15.9202 44.3714 15.811C44.4388 15.7018 44.4834 15.5805 44.5025 15.4542C44.5211 15.3242 44.5132 15.192 44.4791 15.0651C44.4449 14.9382 44.3854 14.8193 44.3038 14.7153C44.2205 14.6068 44.1313 14.5052 44.0456 14.406C43.9599 14.3068 43.8969 14.2356 43.8279 14.1492C43.7972 14.1123 43.7775 14.0679 43.7707 14.0208C43.7707 13.087 43.7707 12.1346 43.7707 11.2195C43.7707 10.7246 43.7707 10.2301 43.7707 9.73594C43.7809 8.70533 43.4321 7.70221 42.782 6.89258L42.9462 6.72216L43.453 6.18757ZM41.2102 14.6418H37.5858C38.1473 14.3617 38.7682 14.2158 39.398 14.2158C40.0278 14.2158 40.6487 14.3617 41.2102 14.6418ZM35.0669 15.432C35.1579 15.2879 35.2585 15.1499 35.3679 15.0188C36.4186 13.7734 37.7584 13.1512 39.4634 13.1057C41.1757 13.1594 42.5702 13.8597 43.6077 15.188C43.6274 15.2091 43.6422 15.2341 43.6513 15.2613C43.6603 15.2885 43.6633 15.3172 43.6601 15.3456C43.6557 15.3624 43.6475 15.3781 43.6362 15.3914C43.6249 15.4047 43.6107 15.4154 43.5946 15.4227C43.5589 15.4413 43.509 15.4682 43.4019 15.355L43.1806 15.1133C42.9775 14.8772 42.7555 14.6575 42.5166 14.4562C41.9936 14.0317 41.3853 13.7198 40.7314 13.5408C40.0775 13.3618 39.3925 13.3198 38.721 13.4174C38.0455 13.5132 37.3975 13.745 36.8178 14.0984C36.2381 14.4517 35.7392 14.9189 35.3525 15.4705L35.3334 15.4974C35.3168 15.5219 35.3013 15.5452 35.2858 15.5639C35.2763 15.5777 35.264 15.5895 35.2498 15.5986C35.2355 15.6077 35.2195 15.6139 35.2028 15.6169C35.186 15.6198 35.1689 15.6194 35.1523 15.6157C35.1357 15.612 35.12 15.6051 35.1062 15.5954C35.0924 15.5874 35.0805 15.5768 35.0711 15.5641C35.0616 15.5515 35.0549 15.5371 35.0512 15.5219C35.0475 15.5066 35.047 15.4908 35.0497 15.4754C35.0524 15.4599 35.0583 15.4452 35.0669 15.432ZM42.92 12.6225V13.3602C42.0355 12.7647 41.0126 12.3971 39.9453 12.291C39.7883 12.2781 39.63 12.2711 39.4694 12.2711C38.7045 12.2776 37.947 12.4179 37.2324 12.6855L42.2001 7.5077C42.5725 7.99979 42.81 8.57725 42.8902 9.18501C42.9116 9.34914 42.9224 9.51444 42.9224 9.67991C42.9117 10.6604 42.9105 11.6584 42.9105 12.6225H42.92ZM41.9336 6.55292L39.3575 9.23753L33.3035 15.5405L33.294 15.5511C33.2687 15.5792 33.2408 15.605 33.2107 15.6281C33.1839 15.6444 33.1522 15.6516 33.1208 15.6484C33.0894 15.6453 33.0599 15.6319 33.037 15.6106C33.0146 15.5903 33 15.5631 32.9959 15.5334C32.9918 15.5038 32.9983 15.4737 33.0144 15.4483C33.0347 15.4194 33.0578 15.3924 33.0834 15.3678L36.772 11.5265L43.7422 4.26049C43.81 4.18812 43.8517 4.16594 43.8921 4.16594C43.9046 4.16627 43.917 4.16823 43.929 4.17178C43.9552 4.17878 44.0206 4.19629 44.0313 4.32468V4.33052C44.0023 4.37967 43.9689 4.42616 43.9314 4.46942C43.2532 5.17209 42.5773 5.87593 41.9241 6.55642L41.9336 6.55292ZM39.1969 5.99031C39.6905 5.99215 40.1786 6.0918 40.6319 6.28329L35.4239 11.7109V11.3724C35.4239 10.8238 35.4239 10.2565 35.4239 9.69859C35.4242 8.7166 35.8214 7.7748 36.5285 7.07967C37.2355 6.38453 38.1947 5.99278 39.1957 5.99031H39.1969ZM39.2552 2.33807C39.5901 2.34207 39.913 2.46025 40.1687 2.67234C40.4245 2.88442 40.597 3.17719 40.6567 3.50042C40.7164 3.82365 40.6595 4.15718 40.4959 4.4438C40.3323 4.73042 40.0722 4.95225 39.76 5.07124C39.4479 5.19023 39.1033 5.19896 38.7853 5.09593C38.4674 4.9929 38.1959 4.78454 38.0174 4.50659C37.839 4.22864 37.7647 3.89842 37.8073 3.5726C37.8499 3.24678 38.0068 2.94567 38.251 2.72092C38.5098 2.47655 38.8544 2.33907 39.2136 2.3369L39.2552 2.33807Z" fill="#404040"/>
<path d="M28.6606 21.848H25.8526V23.672C25.9752 23.5013 26.1566 23.3627 26.3966 23.256C26.6366 23.144 26.8952 23.088 27.1726 23.088C27.6152 23.088 27.9752 23.1813 28.2526 23.368C28.5299 23.5493 28.7272 23.7867 28.8446 24.08C28.9672 24.368 29.0286 24.6747 29.0286 25C29.0286 25.384 28.9566 25.728 28.8126 26.032C28.6686 26.336 28.4472 26.576 28.1486 26.752C27.8552 26.928 27.4899 27.016 27.0526 27.016C26.4926 27.016 26.0392 26.872 25.6926 26.584C25.3459 26.296 25.1352 25.912 25.0606 25.432H25.7726C25.8419 25.736 25.9886 25.9733 26.2126 26.144C26.4366 26.3147 26.7192 26.4 27.0606 26.4C27.4819 26.4 27.7992 26.2747 28.0126 26.024C28.2259 25.768 28.3326 25.432 28.3326 25.016C28.3326 24.6 28.2259 24.28 28.0126 24.056C27.7992 23.8267 27.4846 23.712 27.0686 23.712C26.7859 23.712 26.5379 23.7813 26.3246 23.92C26.1166 24.0533 25.9646 24.2373 25.8686 24.472H25.1806V21.208H28.6606V21.848ZM33.8008 27.072C33.4648 27.072 33.1635 27.016 32.8968 26.904C32.6301 26.7867 32.4195 26.6267 32.2648 26.424C32.1101 26.216 32.0248 25.9787 32.0088 25.712H32.7608C32.7821 25.9307 32.8835 26.1093 33.0648 26.248C33.2515 26.3867 33.4941 26.456 33.7928 26.456C34.0701 26.456 34.2888 26.3947 34.4488 26.272C34.6088 26.1493 34.6888 25.9947 34.6888 25.808C34.6888 25.616 34.6035 25.4747 34.4328 25.384C34.2621 25.288 33.9981 25.1947 33.6408 25.104C33.3155 25.0187 33.0488 24.9333 32.8408 24.848C32.6381 24.7573 32.4621 24.6267 32.3128 24.456C32.1688 24.28 32.0968 24.0507 32.0968 23.768C32.0968 23.544 32.1635 23.3387 32.2968 23.152C32.4301 22.9653 32.6195 22.8187 32.8648 22.712C33.1101 22.6 33.3901 22.544 33.7048 22.544C34.1901 22.544 34.5821 22.6667 34.8808 22.912C35.1795 23.1573 35.3395 23.4933 35.3608 23.92H34.6328C34.6168 23.6907 34.5235 23.5067 34.3528 23.368C34.1875 23.2293 33.9635 23.16 33.6808 23.16C33.4195 23.16 33.2115 23.216 33.0568 23.328C32.9021 23.44 32.8248 23.5867 32.8248 23.768C32.8248 23.912 32.8701 24.032 32.9608 24.128C33.0568 24.2187 33.1741 24.2933 33.3128 24.352C33.4568 24.4053 33.6541 24.4667 33.9048 24.536C34.2195 24.6213 34.4755 24.7067 34.6728 24.792C34.8701 24.872 35.0381 24.9947 35.1768 25.16C35.3208 25.3253 35.3955 25.5413 35.4008 25.808C35.4008 26.048 35.3341 26.264 35.2008 26.456C35.0675 26.648 34.8781 26.8 34.6328 26.912C34.3928 27.0187 34.1155 27.072 33.8008 27.072ZM40.4285 24.64C40.4285 24.7787 40.4205 24.9253 40.4045 25.08H36.9005C36.9272 25.512 37.0738 25.8507 37.3405 26.096C37.6125 26.336 37.9405 26.456 38.3245 26.456C38.6392 26.456 38.9005 26.384 39.1085 26.24C39.3218 26.0907 39.4712 25.8933 39.5565 25.648H40.3405C40.2232 26.0693 39.9885 26.4133 39.6365 26.68C39.2845 26.9413 38.8472 27.072 38.3245 27.072C37.9085 27.072 37.5352 26.9787 37.2045 26.792C36.8792 26.6053 36.6232 26.3413 36.4365 26C36.2498 25.6533 36.1565 25.2533 36.1565 24.8C36.1565 24.3467 36.2472 23.9493 36.4285 23.608C36.6098 23.2667 36.8632 23.0053 37.1885 22.824C37.5192 22.6373 37.8978 22.544 38.3245 22.544C38.7405 22.544 39.1085 22.6347 39.4285 22.816C39.7485 22.9973 39.9938 23.248 40.1645 23.568C40.3405 23.8827 40.4285 24.24 40.4285 24.64ZM39.6765 24.488C39.6765 24.2107 39.6152 23.9733 39.4925 23.776C39.3698 23.5733 39.2018 23.4213 38.9885 23.32C38.7805 23.2133 38.5485 23.16 38.2925 23.16C37.9245 23.16 37.6098 23.2773 37.3485 23.512C37.0925 23.7467 36.9458 24.072 36.9085 24.488H39.6765ZM41.1174 24.792C41.1174 24.344 41.2081 23.952 41.3894 23.616C41.5708 23.2747 41.8188 23.0107 42.1334 22.824C42.4534 22.6373 42.8081 22.544 43.1974 22.544C43.5814 22.544 43.9148 22.6267 44.1974 22.792C44.4801 22.9573 44.6908 23.1653 44.8294 23.416V22.616H45.5654V27H44.8294V26.184C44.6854 26.44 44.4694 26.6533 44.1814 26.824C43.8988 26.9893 43.5681 27.072 43.1894 27.072C42.8001 27.072 42.4481 26.976 42.1334 26.784C41.8188 26.592 41.5708 26.3227 41.3894 25.976C41.2081 25.6293 41.1174 25.2347 41.1174 24.792ZM44.8294 24.8C44.8294 24.4693 44.7628 24.1813 44.6294 23.936C44.4961 23.6907 44.3148 23.504 44.0854 23.376C43.8614 23.2427 43.6134 23.176 43.3414 23.176C43.0694 23.176 42.8214 23.24 42.5974 23.368C42.3734 23.496 42.1948 23.6827 42.0614 23.928C41.9281 24.1733 41.8614 24.4613 41.8614 24.792C41.8614 25.128 41.9281 25.4213 42.0614 25.672C42.1948 25.9173 42.3734 26.1067 42.5974 26.24C42.8214 26.368 43.0694 26.432 43.3414 26.432C43.6134 26.432 43.8614 26.368 44.0854 26.24C44.3148 26.1067 44.4961 25.9173 44.6294 25.672C44.7628 25.4213 44.8294 25.1307 44.8294 24.8ZM47.6837 23.216V25.8C47.6837 26.0133 47.729 26.1653 47.8197 26.256C47.9104 26.3413 48.0677 26.384 48.2917 26.384H48.8277V27H48.1717C47.7664 27 47.4624 26.9067 47.2597 26.72C47.057 26.5333 46.9557 26.2267 46.9557 25.8V23.216H46.3877V22.616H46.9557V21.512H47.6837V22.616H48.8277V23.216H47.6837ZM51.2618 27.072C50.9258 27.072 50.6244 27.016 50.3578 26.904C50.0911 26.7867 49.8804 26.6267 49.7258 26.424C49.5711 26.216 49.4858 25.9787 49.4698 25.712H50.2218C50.2431 25.9307 50.3444 26.1093 50.5258 26.248C50.7124 26.3867 50.9551 26.456 51.2538 26.456C51.5311 26.456 51.7498 26.3947 51.9098 26.272C52.0698 26.1493 52.1498 25.9947 52.1498 25.808C52.1498 25.616 52.0644 25.4747 51.8938 25.384C51.7231 25.288 51.4591 25.1947 51.1018 25.104C50.7764 25.0187 50.5098 24.9333 50.3018 24.848C50.0991 24.7573 49.9231 24.6267 49.7738 24.456C49.6298 24.28 49.5578 24.0507 49.5578 23.768C49.5578 23.544 49.6244 23.3387 49.7578 23.152C49.8911 22.9653 50.0804 22.8187 50.3258 22.712C50.5711 22.6 50.8511 22.544 51.1658 22.544C51.6511 22.544 52.0431 22.6667 52.3418 22.912C52.6404 23.1573 52.8004 23.4933 52.8218 23.92H52.0938C52.0778 23.6907 51.9844 23.5067 51.8138 23.368C51.6484 23.2293 51.4244 23.16 51.1418 23.16C50.8804 23.16 50.6724 23.216 50.5178 23.328C50.3631 23.44 50.2858 23.5867 50.2858 23.768C50.2858 23.912 50.3311 24.032 50.4218 24.128C50.5178 24.2187 50.6351 24.2933 50.7738 24.352C50.9178 24.4053 51.1151 24.4667 51.3658 24.536C51.6804 24.6213 51.9364 24.7067 52.1338 24.792C52.3311 24.872 52.4991 24.9947 52.6378 25.16C52.7818 25.3253 52.8564 25.5413 52.8618 25.808C52.8618 26.048 52.7951 26.264 52.6618 26.456C52.5284 26.648 52.3391 26.8 52.0938 26.912C51.8538 27.0187 51.5764 27.072 51.2618 27.072Z" fill="#404040"/>
</svg>
