<svg width="78" height="30" viewBox="0 0 78 30" fill="none" xmlns="http://www.w3.org/2000/svg">
<path d="M46.3726 10.235C46.3726 10.1287 46.3726 10.019 46.3726 9.91158C46.3817 9.19085 46.0578 8.67455 45.4091 8.37771C45.0931 8.23217 44.7659 8.08202 44.441 7.92263C44.4017 7.90245 44.3683 7.8722 44.3439 7.83485C44.0438 7.35435 43.7391 6.85885 43.4108 6.31599C43.2455 6.02192 43.0055 5.7792 42.7162 5.61364C42.4269 5.44809 42.0992 5.36589 41.768 5.3758C40.291 5.3758 38.8276 5.3758 37.4544 5.3758C37.1499 5.36854 36.8483 5.43769 36.5759 5.57722C36.3035 5.71674 36.0686 5.9224 35.8917 6.17623C35.6999 6.43611 35.5035 6.69946 35.3128 6.95356C35.1222 7.20767 34.9021 7.50451 34.6979 7.78056C34.6637 7.8333 34.6113 7.87084 34.5512 7.88567C34.145 8.00117 33.7321 8.11667 33.3338 8.22293L32.5439 8.44355C32.223 8.52434 31.935 8.70612 31.7203 8.96331C31.5531 9.18608 31.4373 9.44473 31.3818 9.71985L31.375 9.74526V11.0158L31.3964 11.0527C31.4519 11.4192 31.6349 11.7528 31.9118 11.992C32.1886 12.2312 32.5405 12.3599 32.9027 12.3545H32.9163C33.0415 12.7266 33.2773 13.0492 33.5908 13.2771C33.9043 13.505 34.2796 13.6266 34.6641 13.625C35.0465 13.6222 35.4189 13.4988 35.7303 13.2714C36.0416 13.044 36.2769 12.7238 36.4039 12.3545C37.9339 12.3545 39.5373 12.3545 41.1688 12.3545C41.29 12.7141 41.5145 13.0278 41.8129 13.2545C42.1113 13.4813 42.4697 13.6104 42.841 13.625H42.9392C43.2895 13.6243 43.6321 13.5189 43.9247 13.3217C44.2174 13.1246 44.4474 12.8442 44.5865 12.515C44.6508 12.3602 44.6824 12.3394 44.8505 12.3418H44.8697C45.2409 12.3506 45.6013 12.2135 45.8769 11.9588C46.1524 11.704 46.3222 11.3508 46.3512 10.9719C46.3721 10.7269 46.3792 10.4808 46.3726 10.235ZM45.3944 10.3655C45.3944 10.5076 45.3944 10.6508 45.3944 10.7929C45.3993 10.8682 45.3885 10.9437 45.3627 11.0145C45.3369 11.0852 45.2967 11.1495 45.2447 11.203C45.1927 11.2566 45.1301 11.2982 45.0612 11.3251C44.9922 11.3519 44.9185 11.3634 44.8449 11.3588H44.7321C44.6474 10.9313 44.4212 10.5467 44.0916 10.2701C43.762 9.99358 43.3493 9.84194 42.9231 9.84085C42.4969 9.83977 42.0835 9.9893 41.7525 10.2642C41.4216 10.5391 41.1935 10.9225 41.1068 11.3496H36.4807C36.3851 10.8764 36.1152 10.459 35.7269 10.1842C35.3996 9.94266 35.0015 9.82285 34.5986 9.84459C34.1842 9.86102 33.787 10.0187 33.4701 10.2926C33.1533 10.5666 32.9349 10.941 32.8497 11.3565C32.723 11.3544 32.6018 11.3034 32.5104 11.2136C32.4189 11.1238 32.364 11.002 32.3566 10.8726C32.3386 10.5157 32.3465 10.1553 32.3566 9.8804C32.3631 9.77055 32.4046 9.66591 32.4747 9.58248C32.5448 9.49904 32.6397 9.44141 32.7448 9.41839C33.0934 9.31674 33.45 9.21741 33.7941 9.12039L34.171 9.01528L34.3526 8.96446C34.5433 8.91018 34.7419 8.84896 34.9371 8.80507C35.1233 8.76025 35.2873 8.6478 35.3986 8.48859C35.5667 8.25759 35.7371 8.02658 35.9086 7.80481C36.1455 7.48834 36.3904 7.16147 36.6251 6.8346C36.7257 6.6834 36.8623 6.56098 37.0221 6.47892C37.1818 6.39687 37.3593 6.35788 37.5379 6.36566H37.5458C39.0453 6.37374 40.405 6.37374 41.7025 6.36566H41.7127C41.8977 6.35385 42.0821 6.39693 42.2438 6.48974C42.4055 6.58255 42.5377 6.72113 42.6244 6.88888C42.9629 7.46639 43.3183 8.04391 43.5902 8.46665C43.6769 8.59891 43.796 8.70563 43.9355 8.77619C44.2108 8.9148 44.494 9.04531 44.7682 9.17237L45.0412 9.29827C45.1539 9.3398 45.2502 9.41795 45.3154 9.52077C45.3806 9.62359 45.4111 9.74544 45.4023 9.86769C45.3933 10.0363 45.3933 10.2038 45.3933 10.3655H45.3944ZM34.655 12.6247C34.4242 12.6238 34.2029 12.5299 34.0393 12.3632C33.8756 12.1965 33.7827 11.9705 33.7806 11.7342C33.7804 11.618 33.8026 11.5028 33.846 11.3954C33.8894 11.288 33.953 11.1904 34.0333 11.1082C34.1142 11.0233 34.2106 10.9556 34.3171 10.909C34.4236 10.8624 34.5381 10.8378 34.6539 10.8368C34.8851 10.8386 35.1063 10.9333 35.2699 11.1005C35.4335 11.2678 35.5263 11.4941 35.5283 11.7307C35.5295 11.8456 35.5082 11.9595 35.4658 12.0658C35.4233 12.1721 35.3606 12.2687 35.2812 12.3498C35.2002 12.4359 35.1032 12.5045 34.9958 12.5515C34.8884 12.5985 34.7729 12.6231 34.6562 12.6236L34.655 12.6247ZM42.2881 11.1105C42.369 11.0251 42.4655 10.957 42.5722 10.91C42.6789 10.863 42.7937 10.8381 42.9098 10.8368H42.9155C43.1465 10.8388 43.3675 10.9335 43.5311 11.1004C43.6948 11.2673 43.7881 11.4931 43.791 11.7296C43.7921 11.8443 43.7709 11.9581 43.7286 12.0644C43.6864 12.1706 43.624 12.2673 43.5451 12.3487C43.4637 12.435 43.3663 12.5038 43.2585 12.551C43.1508 12.5982 43.0349 12.6229 42.9177 12.6236H42.911C42.6806 12.6227 42.4598 12.529 42.2964 12.3628C42.133 12.1966 42.04 11.9712 42.0376 11.7354C42.0365 11.6195 42.0579 11.5045 42.1008 11.3972C42.1436 11.2899 42.2069 11.1924 42.287 11.1105H42.2881Z" fill="#404040"/>
<path d="M21.6878 22.016V23.88H23.7198V24.48H21.6878V26.4H23.9598V27H20.9598V21.416H23.9598V22.016H21.6878ZM24.7893 24.8C24.7893 24.3467 24.88 23.952 25.0613 23.616C25.2426 23.2747 25.4933 23.0107 25.8133 22.824C26.1386 22.6373 26.5093 22.544 26.9253 22.544C27.464 22.544 27.9066 22.6747 28.2533 22.936C28.6053 23.1973 28.8373 23.56 28.9493 24.024H28.1653C28.0906 23.7573 27.944 23.5467 27.7253 23.392C27.512 23.2373 27.2453 23.16 26.9253 23.16C26.5093 23.16 26.1733 23.304 25.9173 23.592C25.6613 23.8747 25.5333 24.2773 25.5333 24.8C25.5333 25.328 25.6613 25.736 25.9173 26.024C26.1733 26.312 26.5093 26.456 26.9253 26.456C27.2453 26.456 27.512 26.3813 27.7253 26.232C27.9386 26.0827 28.0853 25.8693 28.1653 25.592H28.9493C28.832 26.04 28.5973 26.4 28.2453 26.672C27.8933 26.9387 27.4533 27.072 26.9253 27.072C26.5093 27.072 26.1386 26.9787 25.8133 26.792C25.4933 26.6053 25.2426 26.3413 25.0613 26C24.88 25.6587 24.7893 25.2587 24.7893 24.8ZM31.8327 27.072C31.422 27.072 31.0487 26.9787 30.7127 26.792C30.382 26.6053 30.1207 26.3413 29.9287 26C29.742 25.6533 29.6487 25.2533 29.6487 24.8C29.6487 24.352 29.7447 23.9573 29.9367 23.616C30.134 23.2693 30.4007 23.0053 30.7367 22.824C31.0727 22.6373 31.4487 22.544 31.8647 22.544C32.2807 22.544 32.6567 22.6373 32.9927 22.824C33.3287 23.0053 33.5927 23.2667 33.7847 23.608C33.982 23.9493 34.0807 24.3467 34.0807 24.8C34.0807 25.2533 33.9794 25.6533 33.7767 26C33.5794 26.3413 33.31 26.6053 32.9687 26.792C32.6274 26.9787 32.2487 27.072 31.8327 27.072ZM31.8327 26.432C32.094 26.432 32.3394 26.3707 32.5687 26.248C32.798 26.1253 32.982 25.9413 33.1207 25.696C33.2647 25.4507 33.3367 25.152 33.3367 24.8C33.3367 24.448 33.2674 24.1493 33.1287 23.904C32.99 23.6587 32.8087 23.4773 32.5847 23.36C32.3607 23.2373 32.118 23.176 31.8567 23.176C31.59 23.176 31.3447 23.2373 31.1207 23.36C30.902 23.4773 30.726 23.6587 30.5927 23.904C30.4594 24.1493 30.3927 24.448 30.3927 24.8C30.3927 25.1573 30.4567 25.4587 30.5847 25.704C30.718 25.9493 30.894 26.1333 31.1127 26.256C31.3314 26.3733 31.5714 26.432 31.8327 26.432ZM37.1739 22.536C37.7072 22.536 38.1392 22.6987 38.4699 23.024C38.8005 23.344 38.9659 23.808 38.9659 24.416V27H38.2459V24.52C38.2459 24.0827 38.1365 23.7493 37.9179 23.52C37.6992 23.2853 37.4005 23.168 37.0219 23.168C36.6379 23.168 36.3312 23.288 36.1019 23.528C35.8779 23.768 35.7659 24.1173 35.7659 24.576V27H35.0379V22.616H35.7659V23.24C35.9099 23.016 36.1045 22.8427 36.3499 22.72C36.6005 22.5973 36.8752 22.536 37.1739 22.536ZM42.0671 27.072C41.6564 27.072 41.2831 26.9787 40.9471 26.792C40.6164 26.6053 40.3551 26.3413 40.1631 26C39.9764 25.6533 39.8831 25.2533 39.8831 24.8C39.8831 24.352 39.9791 23.9573 40.1711 23.616C40.3684 23.2693 40.6351 23.0053 40.9711 22.824C41.3071 22.6373 41.6831 22.544 42.0991 22.544C42.5151 22.544 42.8911 22.6373 43.2271 22.824C43.5631 23.0053 43.8271 23.2667 44.0191 23.608C44.2164 23.9493 44.3151 24.3467 44.3151 24.8C44.3151 25.2533 44.2137 25.6533 44.0111 26C43.8137 26.3413 43.5444 26.6053 43.2031 26.792C42.8617 26.9787 42.4831 27.072 42.0671 27.072ZM42.0671 26.432C42.3284 26.432 42.5737 26.3707 42.8031 26.248C43.0324 26.1253 43.2164 25.9413 43.3551 25.696C43.4991 25.4507 43.5711 25.152 43.5711 24.8C43.5711 24.448 43.5017 24.1493 43.3631 23.904C43.2244 23.6587 43.0431 23.4773 42.8191 23.36C42.5951 23.2373 42.3524 23.176 42.0911 23.176C41.8244 23.176 41.5791 23.2373 41.3551 23.36C41.1364 23.4773 40.9604 23.6587 40.8271 23.904C40.6937 24.1493 40.6271 24.448 40.6271 24.8C40.6271 25.1573 40.6911 25.4587 40.8191 25.704C40.9524 25.9493 41.1284 26.1333 41.3471 26.256C41.5657 26.3733 41.8057 26.432 42.0671 26.432ZM50.5443 22.536C50.8856 22.536 51.1896 22.608 51.4563 22.752C51.7229 22.8907 51.9336 23.1013 52.0883 23.384C52.2429 23.6667 52.3203 24.0107 52.3203 24.416V27H51.6003V24.52C51.6003 24.0827 51.4909 23.7493 51.2723 23.52C51.0589 23.2853 50.7683 23.168 50.4003 23.168C50.0216 23.168 49.7203 23.2907 49.4963 23.536C49.2723 23.776 49.1603 24.1253 49.1603 24.584V27H48.4403V24.52C48.4403 24.0827 48.3309 23.7493 48.1123 23.52C47.8989 23.2853 47.6083 23.168 47.2403 23.168C46.8616 23.168 46.5603 23.2907 46.3363 23.536C46.1123 23.776 46.0003 24.1253 46.0003 24.584V27H45.2723V22.616H46.0003V23.248C46.1443 23.0187 46.3363 22.8427 46.5763 22.72C46.8216 22.5973 47.0909 22.536 47.3843 22.536C47.7523 22.536 48.0776 22.6187 48.3603 22.784C48.6429 22.9493 48.8536 23.192 48.9923 23.512C49.1149 23.2027 49.3176 22.9627 49.6003 22.792C49.8829 22.6213 50.1976 22.536 50.5443 22.536ZM57.2904 22.616L54.6504 29.064H53.8984L54.7624 26.952L52.9944 22.616H53.8024L55.1784 26.168L56.5384 22.616H57.2904Z" fill="#404040"/>
</svg>
