<svg width="121" height="32" viewBox="0 0 121 32" fill="none" xmlns="http://www.w3.org/2000/svg">
<path fill-rule="evenodd" clip-rule="evenodd" d="M11.359 17.4638H6.96044L9.2972 9.8784L11.359 17.4638ZM4.8986 25.1315L6.27316 20.5089H11.9089L13.2834 25.1315H17.9569L13.0085 7.58769C12.7336 6.43548 12.1838 6.06512 10.9467 6.06512H4.07386V7.64256H4.62369C5.44842 7.64256 5.86079 7.90318 5.86079 8.53415C5.86079 8.93194 5.86079 9.19256 5.44842 10.139L0.5 25.1315" fill="#143861"/>
<path d="M23.8676 25.1315V7.46424C23.8676 6.54521 23.3177 6.06512 22.3555 6.06512H18.0944V7.64256H18.3693C19.194 7.64256 19.6064 7.98548 19.6064 8.72619V25.1315" fill="#143861"/>
<path d="M31.5651 25.1315V7.46424C31.5651 6.54521 31.0153 6.06512 30.0531 6.06512H25.7919V7.64256H26.0669C26.8916 7.64256 27.304 7.98548 27.304 8.72619V25.1315" fill="#143861"/>
<path fill-rule="evenodd" clip-rule="evenodd" d="M39.4001 7.75235C39.4001 6.4904 38.4379 5.74969 36.9259 5.74969C35.2764 5.74969 34.4517 6.4904 34.4517 7.75235C34.4517 9.04173 35.2764 9.79616 36.9259 9.79616C38.4379 9.79616 39.4001 9.04173 39.4001 7.75235ZM39.2627 25.1316V12.2652C39.2627 11.3736 38.7128 10.8524 37.8881 10.8524H33.627V12.4024H33.9019C34.7266 12.4024 35.0015 12.7453 35.0015 13.5271V25.1316" fill="#143861"/>
<path fill-rule="evenodd" clip-rule="evenodd" d="M49.4344 18.2045V21.0576C48.6097 21.8806 47.6475 22.347 46.8227 22.347C45.998 22.347 45.5856 21.9492 45.5856 20.8793C45.5856 19.6997 45.8605 19.247 46.8227 18.8767C47.51 18.5886 48.1973 18.4103 49.4344 18.2045ZM43.3863 14.789L43.7987 14.6244C44.8983 14.1855 45.5856 14.0209 46.4104 13.87C46.8227 13.8151 47.3726 13.7603 47.6475 13.7603C49.022 13.7603 49.4344 14.2129 49.4344 15.4749V15.8315C47.51 16.147 46.9602 16.2567 45.8605 16.4899C45.3107 16.6271 44.7609 16.8054 44.2111 17.0386C42.4241 17.7519 41.5994 19.1236 41.5994 21.2771C41.5994 23.9793 42.699 25.2687 45.1733 25.2687C46.1355 25.2687 47.0976 25.0492 47.7849 24.6103C48.4722 24.2948 48.7471 24.1302 49.5719 23.3758V23.8147C49.5719 24.7063 49.9842 25.1315 50.809 25.1315H54.9327V23.6638H54.7952C53.9705 23.6638 53.5581 23.2935 53.5581 22.5528V15.5435C53.5581 11.8948 52.321 10.6603 48.7471 10.6603C47.51 10.6603 46.4104 10.7974 45.3107 11.0581C44.2111 11.3187 43.6612 11.5107 42.4241 12.1554" fill="#143861"/>
<path fill-rule="evenodd" clip-rule="evenodd" d="M61.3931 25.1315V15.4475C62.3553 14.5559 63.0426 14.213 64.0048 14.213C64.967 14.213 65.2419 14.6245 65.2419 16.0785V25.1315H69.503V15.3926C69.503 13.39 69.2281 12.5258 68.6783 11.7714C67.991 11.0307 67.1663 10.6877 65.9291 10.6877C64.2797 10.6877 63.0426 11.2913 61.1182 12.951V12.1829C61.1182 11.2913 60.7058 10.8523 59.8811 10.8523H55.7574V12.4023H55.8948C56.7196 12.4023 57.132 12.7453 57.132 13.5271V25.1315" fill="#143861"/>
<mask id="mask0_2337_13375" style="mask-type:luminance" maskUnits="userSpaceOnUse" x="0" y="0" width="121" height="32">
<path d="M0.50061 0.742079H120.5V31.7421H0.50061V0.742079Z" fill="white"/>
</mask>
<g mask="url(#mask0_2337_13375)">
<path d="M82.6996 22.401H76.3767L82.4246 13.7868V10.8514H73.3525C72.2529 10.8514 71.8405 11.2903 71.8405 12.3465V14.939H73.3525V14.6509C73.3525 13.8691 73.7649 13.5536 74.5897 13.5536H77.8887L71.7031 22.1677V25.1306H82.6996" fill="#143861"/>
<path fill-rule="evenodd" clip-rule="evenodd" d="M107.029 24.3487V8.1903C107.029 6.8872 106.479 6.46197 105.242 6.46197H101.531V8.24522H101.943C102.631 8.24522 102.906 8.50578 102.906 9.30136V24.3487H107.029ZM109.228 24.3487H113.215V12.1545C113.215 10.92 112.665 10.4261 111.428 10.4261H109.228V24.3487ZM100.706 24.3487V10.4261H98.507C97.2699 10.4261 96.72 10.92 96.72 12.1545V24.3487H100.706ZM117.888 16.2284C117.888 23.7864 112.39 29.3005 104.967 29.3005C97.5447 29.3005 92.0464 23.7864 92.0464 16.2284C92.0464 8.67045 97.5447 3.15625 104.967 3.15625C112.39 3.15625 117.888 8.67045 117.888 16.2284ZM120.5 16.2284C120.5 7.38107 113.902 0.742079 104.967 0.742079C96.1702 0.742079 89.4349 7.38107 89.4349 16.2284C89.4349 25.1032 96.1702 31.7421 104.967 31.7421C113.902 31.7421 120.5 25.1032 120.5 16.2284Z" fill="#143861"/>
</g>
</svg>
