<svg width="121" height="32" viewBox="0 0 121 32" fill="none" xmlns="http://www.w3.org/2000/svg">
<g clip-path="url(#clip0_1958_19730)">
<path fill-rule="evenodd" clip-rule="evenodd" d="M23.6126 10.5252C21.1469 6.8979 18.2801 5.41844 13.7182 5.41844C10.2181 5.41844 6.92503 6.78149 4.44492 9.25675C1.90105 11.7959 0.5 15.2571 0.5 19.0031C0.5 26.1872 5.66063 31.6046 12.5041 31.6046C16.765 31.6046 19.9391 30.2102 22.4936 27.2159C22.5461 27.1539 22.5856 27.0819 22.6097 27.0042C22.6339 26.9265 22.6422 26.8447 22.6342 26.7636C22.6262 26.6826 22.602 26.6041 22.5631 26.5327C22.5242 26.4613 22.4714 26.3985 22.4079 26.3482L19.0318 23.7088C18.9125 23.615 18.7615 23.5721 18.6111 23.5892C18.4608 23.6064 18.3231 23.6822 18.2276 23.8005C16.8392 25.4944 14.9738 26.3526 12.6828 26.3526C9.04325 26.3526 6.40168 23.277 6.40168 19.0395C6.40168 16.7512 7.11319 14.6416 8.40461 13.0995C9.71675 11.533 11.5532 10.6704 13.5753 10.6704C15.9244 10.6704 17.6864 11.6409 18.9624 13.6376C19.0472 13.7701 19.177 13.8615 19.3281 13.8954C19.482 13.9295 19.6391 13.9007 19.771 13.8128L23.4508 11.3679C23.5166 11.3238 23.573 11.2669 23.6168 11.2006C23.6606 11.1343 23.6909 11.0599 23.7059 10.9817C23.7209 10.9032 23.7203 10.8224 23.7043 10.7441C23.6883 10.6658 23.6571 10.5914 23.6126 10.5252ZM57.9385 18.0383C62.474 18.0383 65.1021 15.9698 65.1021 11.3926C65.1021 7.47551 62.7706 5.97929 58.7016 5.97929H58.0064C57.9389 5.98019 57.8739 6.0051 57.8229 6.04962C57.7719 6.09414 57.7382 6.1554 57.7277 6.22254L55.7927 17.6938C55.7625 17.8735 55.8957 18.0386 56.0713 18.0386L57.9385 18.0383ZM68.6163 30.6692H63.1529C63.1009 30.6688 63.0501 30.6541 63.0059 30.6265C62.9617 30.5989 62.9259 30.5596 62.9025 30.5129L59.2545 23.3576C59.2293 23.3079 59.1901 23.2667 59.1417 23.2394C59.0933 23.2121 59.038 23.1998 58.9827 23.2042C58.6199 23.2314 58.252 23.2314 57.8537 23.2314H55.1239C55.0565 23.2323 54.9916 23.2571 54.9406 23.3015C54.8896 23.3459 54.8558 23.407 54.8452 23.474L53.6565 30.4269C53.6459 30.494 53.6121 30.5551 53.5611 30.5995C53.51 30.6439 53.445 30.6687 53.3776 30.6695H48.145C47.9691 30.6695 47.8356 30.5044 47.8664 30.3244L52.853 0.985126C52.8634 0.918012 52.8972 0.856796 52.9482 0.812327C52.9992 0.767858 53.0642 0.74301 53.1316 0.742188H59.2947C66.7127 0.742188 71.0785 4.65863 71.0785 11.3929C71.0785 15.6968 69.1733 19.7904 64.8068 21.5745C64.6497 21.6387 64.5778 21.8276 64.657 21.9826L68.8664 30.2381C68.9663 30.4339 68.8296 30.6692 68.6163 30.6692ZM87.2726 13.2678C87.2726 17.0381 85.0893 18.9496 80.7835 18.9496H79.0299C79.0261 18.9497 79.0223 18.9489 79.0188 18.9472C79.0153 18.9456 79.0122 18.9432 79.0098 18.9401C79.0074 18.9374 79.0057 18.9341 79.0048 18.9305C79.0038 18.9269 79.0037 18.9232 79.0045 18.9196L80.8221 8.70476C80.8232 8.69878 80.8263 8.69339 80.831 8.68952C80.8356 8.68564 80.8415 8.68354 80.8475 8.68356H81.5003C85.4386 8.68356 87.2726 10.1402 87.2726 13.2678ZM87.3062 22.5874C87.3048 22.585 87.304 22.5823 87.3038 22.5796C87.3037 22.5768 87.3042 22.5741 87.3052 22.5716C87.3068 22.5675 87.3092 22.5639 87.3123 22.5609C87.3154 22.5579 87.3191 22.5556 87.3231 22.5542C91.1638 21.0668 93.3665 17.6818 93.3665 13.2678C93.3665 10.2586 92.3276 7.7795 90.3624 6.09918C88.4104 4.43024 85.5388 3.548 82.0576 3.548H76.2684C76.0227 3.548 75.8132 3.72072 75.7705 3.95923L71.0861 30.0846C71.0603 30.2301 71.1008 30.3782 71.197 30.4911C71.2934 30.6044 71.4344 30.6692 71.5843 30.6692H76.4996C76.7452 30.6692 76.9548 30.4965 76.9975 30.258L78.1139 24.0672C78.1152 24.0612 78.1184 24.0558 78.1231 24.052C78.1278 24.0481 78.1336 24.046 78.1397 24.046H80.704C81.0784 24.046 81.4321 24.046 81.7818 24.0207C81.7865 24.0207 81.8012 24.0207 81.8078 24.0327L85.2348 30.4044C85.3227 30.5677 85.4936 30.6692 85.6818 30.6692H90.8135C90.9926 30.6692 91.1547 30.5791 91.2467 30.4282C91.2921 30.3552 91.3174 30.2713 91.3198 30.1852C91.3222 30.0991 91.3018 30.014 91.2605 29.9385L87.3062 22.5874ZM107.697 10.6761C111.676 10.6761 114.349 13.6129 114.349 17.9842C114.349 23.0647 111.423 26.3479 106.896 26.3479C102.917 26.3479 100.244 23.4105 100.244 19.0398C100.244 13.9589 103.169 10.6761 107.697 10.6761ZM116.707 8.98281C114.419 6.68407 111.27 5.41844 107.842 5.41844C104.192 5.41844 100.814 6.71348 98.3308 9.06537C95.6905 11.5656 94.2951 14.9766 94.2951 18.9303C94.2951 22.482 95.5636 25.7171 97.8665 28.0396C100.146 30.3383 103.288 31.6046 106.714 31.6046C110.366 31.6046 113.75 30.3095 116.243 27.958C118.896 25.4558 120.298 22.0449 120.298 18.0933C120.298 14.5438 119.023 11.3078 116.707 8.98281ZM33.052 22.8955L37.5866 13.0985L39.1152 22.8952L33.052 22.8955ZM46.9177 30.115L40.6812 3.91431C40.6554 3.80927 40.5953 3.71601 40.5105 3.64956C40.4257 3.58311 40.3212 3.54734 40.2137 3.548H37.3001C37.1223 3.548 36.959 3.64512 36.8757 3.80043L22.8517 30.0018C22.8112 30.0684 22.7892 30.1447 22.7881 30.2228C22.787 30.3009 22.8068 30.3778 22.8454 30.4456C22.924 30.5838 23.0726 30.6695 23.2328 30.6695H28.1239C28.2809 30.6695 28.4261 30.5876 28.5062 30.4544L30.221 27.6012H40.334L41.0336 30.3371C41.0589 30.4327 41.115 30.5173 41.1931 30.5774C41.2712 30.6375 41.3669 30.6698 41.4652 30.6692H46.4694C46.5919 30.6692 46.7145 30.6284 46.8008 30.5427C46.9164 30.4275 46.9592 30.2675 46.9177 30.115Z" fill="#FF5722"/>
</g>
<defs>
<clipPath id="clip0_1958_19730">
<rect width="120" height="31" fill="white" transform="translate(0.5 0.742188)"/>
</clipPath>
</defs>
</svg>
