<svg width="24" height="24" viewBox="0 0 24 24" fill="none" xmlns="http://www.w3.org/2000/svg">
<path d="M22 5.39164C21.9195 6.02188 21.8476 6.65357 21.7569 7.28208C21.5027 9.04575 21.2438 10.8086 20.9803 12.5705C20.7754 13.9407 20.5568 15.309 20.3513 16.6792C20.2497 17.3593 20.1721 18.0431 20.0707 18.7232C20.0238 19.0215 19.9617 19.3172 19.8847 19.6089C19.8387 19.7796 19.7762 19.9453 19.6981 20.1033C19.3209 20.8896 18.7382 21.1517 17.9094 20.9174C17.4424 20.7851 17.0266 20.5452 16.6297 20.2704C15.6523 19.5935 14.6818 18.9059 13.7044 18.2299C12.9035 17.6758 12.0953 17.1331 11.2924 16.5828C11.1905 16.5146 11.0947 16.437 11.0064 16.3511C10.5923 15.9369 10.5285 15.3979 10.8546 14.9052C10.9942 14.7003 11.1551 14.5116 11.3345 14.3425C13.0283 12.7045 14.7246 11.0691 16.4233 9.43637C16.5856 9.27968 16.7296 9.10242 16.877 8.9298C16.9328 8.86928 16.9774 8.79893 17.0088 8.72213C17.1003 8.46523 16.9241 8.2425 16.6638 8.30245C16.5202 8.33576 16.3796 8.41512 16.2554 8.50114C15.0243 9.35073 13.7956 10.2048 12.5693 11.0632C11.4522 11.8452 10.3433 12.6388 9.22423 13.4174C8.68475 13.7939 8.12324 14.1293 7.4776 14.2845C7.0807 14.3821 6.66619 14.3749 6.27272 14.2637C5.37103 14.0131 4.46596 13.7771 3.56427 13.5242C3.2512 13.4374 2.9432 13.3241 2.64057 13.2056C2.49881 13.1497 2.36569 13.0731 2.24534 12.978C1.96303 12.7559 1.92436 12.4529 2.12931 12.1525C2.30434 11.8965 2.55475 11.7381 2.82774 11.6141C3.7202 11.2098 4.61285 10.8064 5.5057 10.404C9.64938 8.54691 13.8032 6.7144 17.9946 4.97312C18.607 4.71883 19.2182 4.46076 19.8395 4.23253C20.1424 4.12102 20.4645 4.03269 20.7835 4.00575C21.5051 3.94522 21.9393 4.36577 21.974 5.10636C21.9783 5.2002 21.974 5.29404 21.974 5.38817L22 5.39164Z" fill="black"/>
</svg>
