<svg width="564" height="97" viewBox="0 0 564 97" fill="none" xmlns="http://www.w3.org/2000/svg">
<g clip-path="url(#clip0_93_147)">
<path d="M48.7438 6.60215e-06C48.7438 6.60215e-06 41.2032 10.5911 43.3551 24.6354H72.4549L70.3432 36.6657L69.8967 39.2723C69.7561 40.0388 69.786 40.8268 69.9841 41.5805C70.1823 42.3342 70.5439 43.0353 71.0435 43.6341C71.543 44.233 72.1683 44.715 72.875 45.0461C73.5818 45.3773 74.3528 45.5494 75.1336 45.5504H94.0141C94.8543 45.5491 95.6742 45.2926 96.3648 44.8151C97.0554 44.3376 97.5841 43.6616 97.8804 42.8769C97.8777 42.8682 97.8777 42.8589 97.8804 42.8502C97.9688 42.6164 98.0346 42.3747 98.0769 42.1284C98.0809 42.1063 98.0809 42.0837 98.0769 42.0616L98.1394 41.7007L102.068 19.7966C102.457 17.3498 102.309 14.8479 101.635 12.4636C100.961 10.0793 99.7769 7.86931 98.1641 5.98608C96.5513 4.10285 94.5483 2.59121 92.2934 1.55544C90.0385 0.519668 87.5852 -0.0155716 85.1029 -0.0133599L48.7438 6.60215e-06Z" fill="url(#paint0_linear_93_147)"/>
<path d="M25.872 -2.23517e-07C21.0158 -0.000907262 16.3188 1.72839 12.6266 4.87655C8.93449 8.02471 6.48971 12.3849 5.73246 17.1722L0.183048 52.1447C-0.140978 54.1963 -0.0154218 56.2935 0.551064 58.292C1.11755 60.2904 2.11149 62.1425 3.46438 63.7205C4.81728 65.2986 6.49694 66.5651 8.38761 67.4328C10.2783 68.3005 12.335 68.7487 14.416 68.7466L26.4077 68.6575L32.7652 28.3604C32.7652 28.3604 36.0377 4.09476 48.7661 -0.0133667L25.872 -2.23517e-07Z" fill="url(#paint1_linear_93_147)"/>
<path d="M99.2421 70.6046L97.5679 81.2225C96.8658 85.6268 94.6133 89.6369 91.215 92.5328C87.8167 95.4286 83.4952 97.0204 79.0267 97.0223H38.7611C36.1083 97.03 33.5061 96.2985 31.2473 94.9103L30.6624 94.5316C30.2785 94.2642 29.9168 93.9924 29.5597 93.6984C29.203 93.4026 28.8618 93.0888 28.5373 92.7582C26.9345 91.1499 25.7376 89.1844 25.0452 87.0238C24.3528 84.8633 24.1848 82.5694 24.5549 80.3313L26.3854 68.6619L70.7584 68.6174C70.9912 67.0732 71.771 65.6634 72.9563 64.644C74.1416 63.6245 75.6539 63.063 77.2186 63.0611H92.7641C93.7105 63.0587 94.6462 63.2612 95.5066 63.6548C96.367 64.0484 97.1315 64.6236 97.7474 65.3408C98.3633 66.0581 98.8159 66.9001 99.074 67.8089C99.332 68.7177 99.3894 69.6715 99.2421 70.6046Z" fill="url(#paint2_linear_93_147)"/>
<path opacity="0.6" d="M82.5805 24.6354H72.4549L70.4102 36.6167L70.3432 36.6702L69.8967 39.2767C69.7569 40.0429 69.7873 40.8304 69.9858 41.5835C70.1842 42.3367 70.546 43.0372 71.0455 43.6355C71.5449 44.2339 72.1699 44.7155 72.8763 45.0463C73.5827 45.3772 74.3533 45.5492 75.1336 45.5503H94.0141C94.8543 45.5491 95.6742 45.2926 96.3648 44.8151C97.0554 44.3375 97.5841 43.6615 97.8804 42.8769H98.0099C98.0813 42.4804 98.1304 42.0927 98.1662 41.7006C98.3716 39.5359 98.1211 37.3523 97.4309 35.2899C96.7407 33.2274 95.626 31.3319 94.1583 29.7249C92.6906 28.1179 90.9024 26.8349 88.9086 25.9585C86.9147 25.082 84.7592 24.6313 82.5805 24.6354Z" fill="url(#paint3_linear_93_147)"/>
<path opacity="0.6" d="M70.7584 68.6263C69.8236 75.7155 66.6127 82.3117 61.6065 87.4268C56.6003 92.5419 50.0684 95.9007 42.989 97H38.7566C36.1039 97.0077 33.5016 96.2763 31.2428 94.888L30.6579 94.5093C30.274 94.242 29.9124 93.9702 29.5552 93.6761C29.1986 93.3803 28.8573 93.0665 28.5328 92.7359C26.9342 91.1295 25.7401 89.1676 25.0486 87.0112C24.3571 84.8549 24.1879 82.5656 24.5549 80.3313L26.3854 68.6619L70.7584 68.6263Z" fill="url(#paint4_linear_93_147)"/>
<path d="M125.083 91.7111C125.008 91.7145 124.933 91.7005 124.864 91.6704C124.795 91.6403 124.734 91.5947 124.685 91.5373C124.633 91.477 124.596 91.4051 124.578 91.3276C124.559 91.25 124.559 91.1692 124.578 91.0918L127.217 74.7395C127.243 74.5664 127.33 74.4083 127.462 74.2939C127.586 74.1851 127.744 74.1235 127.909 74.1201H134.065C135.464 74.0583 136.857 74.3254 138.133 74.8999C139.106 75.3735 139.862 76.1985 140.249 77.2079C140.661 78.4113 140.754 79.701 140.517 80.9507C140.427 81.6903 140.338 82.3408 140.249 82.9112C140.16 83.4815 140.035 84.1276 139.887 84.8449C139.674 86.2197 139.171 87.5336 138.409 88.6991C137.717 89.7072 136.746 90.4934 135.615 90.9626C134.259 91.4918 132.811 91.7433 131.355 91.7022L125.083 91.7111ZM128.445 88.8238H131.69C132.495 88.8474 133.296 88.7111 134.048 88.4228C134.672 88.157 135.198 87.7039 135.552 87.1262C135.969 86.4014 136.246 85.6049 136.369 84.7781C136.467 84.2746 136.552 83.8379 136.619 83.4414C136.686 83.0448 136.749 82.6884 136.802 82.3096C136.856 81.9309 136.914 81.5032 136.972 81.0175C137.164 79.6452 136.972 78.6337 136.432 77.9787C135.891 77.3237 134.896 76.9985 133.467 76.9985H130.342L128.445 88.8238Z" fill="#050505"/>
<path d="M155.049 91.7111C154.974 91.7141 154.899 91.7 154.83 91.6699C154.761 91.6398 154.7 91.5945 154.651 91.5373C154.6 91.4763 154.564 91.4043 154.546 91.327C154.527 91.2498 154.527 91.1692 154.544 91.0918L156.451 79.262C156.477 79.088 156.566 78.9295 156.701 78.8164C156.824 78.7072 156.982 78.6456 157.147 78.6426H159.187C159.264 78.6401 159.341 78.6544 159.412 78.6844C159.483 78.7144 159.546 78.7594 159.598 78.8164C159.651 78.8765 159.689 78.9481 159.709 79.0254C159.729 79.1028 159.731 79.1838 159.714 79.262L159.549 80.2912C160.014 79.7575 160.594 79.3356 161.246 79.057C161.94 78.7602 162.687 78.6085 163.442 78.6114H164.473C164.551 78.6056 164.628 78.6183 164.7 78.6486C164.771 78.6788 164.835 78.7256 164.884 78.7852C164.932 78.848 164.965 78.9205 164.981 78.9975C164.997 79.0745 164.996 79.1542 164.978 79.2308L164.688 81.0398C164.663 81.2037 164.58 81.3537 164.456 81.4631C164.329 81.5817 164.16 81.6457 163.987 81.6413H162.022C161.3 81.6137 160.594 81.8551 160.04 82.3185C159.506 82.8035 159.163 83.4621 159.071 84.1766L157.955 91.0873C157.926 91.2568 157.837 91.4104 157.704 91.5205C157.572 91.6307 157.404 91.6903 157.232 91.6888L155.049 91.7111Z" fill="#050505"/>
<path d="M178.139 91.7111C178.064 91.7145 177.988 91.7006 177.918 91.6705C177.849 91.6404 177.787 91.5948 177.738 91.5373C177.687 91.4763 177.65 91.4043 177.632 91.3271C177.613 91.2498 177.613 91.1693 177.63 91.0918L179.546 79.2352C179.575 79.0698 179.661 78.9197 179.789 78.8101C179.917 78.7006 180.078 78.6382 180.247 78.6337H182.336C182.413 78.6279 182.491 78.6406 182.562 78.6709C182.634 78.7011 182.697 78.7479 182.747 78.8075C182.794 78.8703 182.827 78.9428 182.843 79.0198C182.86 79.0968 182.859 79.1765 182.84 79.2531L180.943 91.1096C180.919 91.2803 180.837 91.4375 180.711 91.5552C180.582 91.6705 180.415 91.7327 180.242 91.7289L178.139 91.7111ZM180.497 76.4905C180.42 76.4967 180.343 76.485 180.272 76.4564C180.2 76.4278 180.137 76.383 180.086 76.3257C180.037 76.2636 180.003 76.1911 179.987 76.1139C179.97 76.0366 179.972 75.9566 179.992 75.8801L180.282 74.0756C180.304 73.9042 180.386 73.7462 180.514 73.63C180.641 73.5114 180.81 73.4474 180.983 73.4518H183.274C183.353 73.4468 183.433 73.4604 183.507 73.4913C183.58 73.5222 183.646 73.5697 183.698 73.63C183.749 73.6907 183.786 73.7626 183.804 73.84C183.823 73.9174 183.823 73.9981 183.805 74.0756L183.515 75.8801C183.493 76.0547 183.405 76.2143 183.269 76.3257C183.133 76.4361 182.962 76.4946 182.787 76.4905H180.497Z" fill="#050505"/>
<path d="M201.395 91.7111C201.293 91.7225 201.19 91.7117 201.093 91.6794C200.996 91.6471 200.907 91.594 200.833 91.524C200.724 91.392 200.64 91.2409 200.587 91.0784L197.765 79.4402C197.75 79.3667 197.75 79.2909 197.765 79.2174C197.794 79.0644 197.874 78.9258 197.993 78.8253C198.108 78.7238 198.255 78.6669 198.408 78.6649H200.449C200.53 78.6538 200.614 78.6626 200.691 78.6905C200.769 78.7185 200.839 78.7647 200.895 78.8253C200.968 78.9182 201.018 79.0264 201.042 79.1417L202.967 87.955L207.739 79.1417C207.803 79.0224 207.888 78.9153 207.989 78.8253C208.124 78.7135 208.296 78.6563 208.471 78.6649H210.534C210.599 78.6654 210.663 78.6801 210.721 78.7078C210.78 78.7355 210.832 78.7756 210.873 78.8253C210.918 78.8792 210.95 78.9424 210.967 79.0102C210.984 79.0781 210.986 79.1489 210.972 79.2174C210.959 79.2933 210.94 79.3678 210.913 79.4402L204.297 91.0962C204.202 91.2662 204.076 91.4172 203.926 91.5418C203.743 91.6754 203.519 91.7415 203.293 91.7289L201.395 91.7111Z" fill="#050505"/>
<path d="M228.91 91.9606C227.047 91.9606 225.657 91.426 224.74 90.3566C223.823 89.2872 223.483 87.7634 223.718 85.7851C223.732 85.5698 223.759 85.3556 223.798 85.1434C223.826 84.936 223.868 84.7306 223.923 84.5286C224.156 83.3553 224.63 82.2431 225.316 81.2626C225.95 80.3621 226.798 79.6332 227.785 79.1417C228.816 78.6357 229.953 78.3807 231.102 78.3976C232.257 78.3432 233.402 78.6366 234.388 79.2397C235.214 79.7955 235.82 80.621 236.102 81.5745C236.417 82.6988 236.468 83.8806 236.25 85.0276L236.165 85.5578C236.138 85.7304 236.051 85.888 235.919 86.0034C235.785 86.1178 235.614 86.1795 235.437 86.1772H227.08C227.08 86.2796 227.053 86.3465 227.048 86.3777C226.966 86.918 226.992 87.4692 227.124 87.9995C227.24 88.4652 227.499 88.8829 227.865 89.1937C228.263 89.503 228.759 89.661 229.263 89.6392C229.679 89.6497 230.094 89.577 230.482 89.4254C230.791 89.3037 231.081 89.1387 231.343 88.9352C231.521 88.7998 231.688 88.6508 231.843 88.4897C231.966 88.3393 232.118 88.215 232.29 88.1243C232.426 88.0771 232.57 88.0559 232.714 88.0619H234.879C234.951 88.0572 235.023 88.0683 235.09 88.0945C235.157 88.1207 235.218 88.1613 235.267 88.2134C235.313 88.2628 235.345 88.3236 235.359 88.3895C235.373 88.4554 235.369 88.5239 235.348 88.5877C235.232 88.9534 235.035 89.2884 234.772 89.5679C234.394 90.0039 233.957 90.3848 233.473 90.6997C232.862 91.0973 232.197 91.4064 231.499 91.6175C230.659 91.8632 229.786 91.9789 228.91 91.9606ZM227.419 84.0518H232.982V83.9761C233.092 83.4089 233.074 82.8242 232.928 82.2651C232.808 81.8059 232.538 81.3998 232.16 81.1111C231.743 80.8054 231.235 80.6485 230.718 80.6655C230.16 80.6632 229.612 80.8176 229.138 81.1111C228.672 81.3975 228.284 81.7938 228.008 82.2651C227.707 82.794 227.507 83.3742 227.419 83.9761V84.0518Z" fill="#050505"/>
<path d="M269.711 96.4831C269.649 96.4856 269.587 96.4731 269.53 96.4468C269.473 96.4204 269.424 96.381 269.385 96.3316C269.343 96.2844 269.312 96.2281 269.295 96.167C269.278 96.106 269.276 96.0419 269.287 95.9796C269.287 95.9128 269.314 95.8504 269.332 95.7925C269.36 95.7153 269.401 95.643 269.452 95.5786L272.167 90.9314L269.171 79.556C269.138 79.4418 269.123 79.323 269.127 79.204C269.167 79.0527 269.251 78.9165 269.368 78.8119C269.476 78.7084 269.62 78.6508 269.769 78.6515H271.81C271.89 78.6409 271.972 78.6486 272.05 78.674C272.127 78.6995 272.198 78.7421 272.256 78.7986C272.338 78.8941 272.398 79.0068 272.43 79.1283L274.453 87.3401L279.207 79.1283C279.276 78.9967 279.372 78.8812 279.489 78.7897C279.626 78.6901 279.793 78.6412 279.962 78.6515H281.975C282.04 78.6498 282.104 78.662 282.163 78.6874C282.223 78.7128 282.276 78.7507 282.319 78.7986C282.361 78.8462 282.392 78.9023 282.411 78.963C282.429 79.0237 282.435 79.0877 282.426 79.1506C282.391 79.2936 282.334 79.4304 282.257 79.556L272.466 96.0064C272.384 96.1352 272.282 96.2496 272.162 96.345C272.024 96.4446 271.855 96.4934 271.685 96.4831H269.711Z" fill="#050505"/>
<path d="M300.414 91.9606C299.283 92.0081 298.158 91.7673 297.146 91.2611C296.333 90.8312 295.7 90.1268 295.36 89.2739C295.004 88.3198 294.888 87.2934 295.021 86.2841C295.052 85.9856 295.106 85.6158 295.177 85.1791C295.248 84.7425 295.315 84.3771 295.378 84.0741C295.602 82.9898 296.059 81.9668 296.717 81.0754C297.35 80.2266 298.185 79.5482 299.146 79.1016C300.23 78.6137 301.409 78.3731 302.597 78.3976C303.713 78.3544 304.821 78.5968 305.816 79.1016C306.619 79.5376 307.249 80.2339 307.602 81.0754C307.974 82.0286 308.097 83.0605 307.959 84.0741C307.928 84.3771 307.874 84.7469 307.807 85.1791C307.74 85.6113 307.669 85.9856 307.602 86.2841C307.381 87.3597 306.938 88.3777 306.303 89.2739C305.683 90.1312 304.853 90.8154 303.892 91.2611C302.798 91.7477 301.611 91.9866 300.414 91.9606ZM300.816 89.4744C301.22 89.4886 301.624 89.4213 302.002 89.2766C302.38 89.132 302.725 88.9128 303.017 88.6323C303.658 87.9471 304.078 87.0856 304.222 86.1593C304.28 85.9098 304.338 85.5801 304.405 85.1791C304.472 84.7781 304.512 84.4528 304.539 84.1989C304.66 83.1295 304.539 82.3097 304.128 81.7393C303.907 81.4454 303.614 81.2126 303.277 81.0629C302.941 80.9132 302.571 80.8516 302.204 80.8838C301.798 80.8704 301.394 80.9393 301.016 81.0863C300.637 81.2334 300.293 81.4555 300.003 81.7393C299.366 82.4218 298.946 83.2779 298.798 84.1989C298.744 84.4528 298.682 84.7781 298.615 85.1791C298.548 85.5801 298.508 85.9098 298.485 86.1593C298.36 87.2525 298.494 88.0768 298.887 88.6323C299.112 88.9226 299.407 89.1518 299.744 89.2989C300.081 89.4461 300.449 89.5064 300.816 89.4744Z" fill="#050505"/>
<path d="M326.969 91.9606C326.07 91.9965 325.181 91.7554 324.424 91.27C323.745 90.7973 323.249 90.1071 323.018 89.3139C322.744 88.336 322.702 87.3075 322.897 86.3108L324.036 79.253C324.066 79.0876 324.151 78.9375 324.279 78.8279C324.407 78.7184 324.568 78.6561 324.737 78.6515H326.969C327.047 78.6457 327.125 78.6584 327.198 78.6886C327.27 78.7188 327.334 78.7657 327.384 78.8253C327.432 78.8881 327.465 78.9606 327.481 79.0376C327.497 79.1146 327.496 79.1943 327.478 79.2709L326.362 86.1771C326.028 88.2565 326.773 89.2961 328.594 89.2961C329.411 89.3189 330.204 89.0214 330.804 88.4674C331.436 87.8588 331.838 87.0515 331.942 86.1816L333.054 79.2753C333.077 79.1013 333.165 78.9423 333.3 78.8297C333.423 78.7206 333.581 78.659 333.746 78.656H335.978C336.054 78.6526 336.13 78.6665 336.199 78.6966C336.269 78.7267 336.331 78.7723 336.38 78.8297C336.432 78.8904 336.468 78.9624 336.487 79.0398C336.506 79.1172 336.506 79.1979 336.487 79.2753L334.577 91.1319C334.551 91.3051 334.464 91.4633 334.331 91.5774C334.207 91.6862 334.049 91.7478 333.885 91.7512H331.849C331.771 91.7574 331.694 91.7448 331.622 91.7146C331.55 91.6843 331.487 91.6373 331.438 91.5774C331.389 91.5151 331.355 91.4428 331.338 91.3657C331.321 91.2886 331.322 91.2087 331.34 91.1319L331.509 90.1026C330.941 90.7258 330.243 91.2172 329.464 91.542C328.685 91.8669 327.844 92.0174 327 91.9829L326.969 91.9606Z" fill="#050505"/>
<path d="M350.97 91.7111C350.895 91.7145 350.819 91.7006 350.749 91.6704C350.68 91.6403 350.618 91.5948 350.569 91.5373C350.518 91.4763 350.481 91.4043 350.463 91.327C350.444 91.2498 350.444 91.1692 350.461 91.0918L352.381 79.2798C352.406 79.1053 352.495 78.9463 352.631 78.8342C352.754 78.724 352.913 78.6622 353.078 78.6604H355.113C355.191 78.6579 355.268 78.6721 355.34 78.7021C355.412 78.7321 355.476 78.7771 355.529 78.8342C355.581 78.8948 355.618 78.9664 355.638 79.0436C355.658 79.1208 355.66 79.2016 355.645 79.2798L355.479 80.309C355.943 79.7756 356.521 79.3536 357.172 79.0748C357.866 78.7788 358.613 78.6272 359.368 78.6292H360.417C360.495 78.6234 360.574 78.6362 360.646 78.6664C360.718 78.6966 360.782 78.7434 360.832 78.803C360.88 78.8658 360.913 78.9383 360.929 79.0153C360.945 79.0924 360.944 79.172 360.926 79.2486L360.636 81.0576C360.607 81.2213 360.524 81.3705 360.399 81.4809C360.279 81.5953 360.119 81.6591 359.953 81.6591H357.993C357.269 81.6308 356.561 81.8722 356.006 82.3364C355.472 82.8205 355.13 83.4798 355.042 84.1944L353.926 91.1051C353.902 91.279 353.815 91.4379 353.68 91.5507C353.546 91.6658 353.375 91.7277 353.198 91.7245L350.97 91.7111Z" fill="#050505"/>
<path d="M396.08 91.9606C395.312 91.9804 394.549 91.8281 393.848 91.5151C393.258 91.244 392.757 90.8133 392.401 90.2719C392.037 89.6953 391.798 89.0486 391.7 88.3738C391.588 87.5787 391.588 86.7718 391.7 85.9767C391.732 85.6737 391.767 85.4019 391.803 85.1613C391.839 84.9207 391.897 84.6444 391.959 84.3414C392.12 83.5352 392.378 82.7513 392.727 82.0066C393.057 81.3064 393.501 80.6652 394.04 80.1085C394.571 79.5667 395.205 79.1364 395.906 78.8431C396.659 78.5356 397.467 78.384 398.281 78.3976C399.05 78.3631 399.816 78.516 400.513 78.8431C401.06 79.1287 401.532 79.5376 401.893 80.0372L402.786 74.4632C402.808 74.2918 402.89 74.1339 403.018 74.0176C403.146 73.901 403.313 73.8373 403.487 73.8394H405.625C405.701 73.8366 405.777 73.8512 405.847 73.8821C405.916 73.913 405.978 73.9593 406.027 74.0176C406.079 74.0783 406.115 74.1503 406.134 74.2277C406.152 74.3051 406.152 74.3857 406.134 74.4632L403.455 91.0918C403.432 91.2656 403.344 91.4245 403.21 91.5373C403.087 91.6472 402.928 91.7089 402.763 91.7111H400.777C400.699 91.7173 400.62 91.7047 400.548 91.6745C400.476 91.6443 400.412 91.5972 400.361 91.5373C400.314 91.4742 400.282 91.4017 400.266 91.3248C400.249 91.2479 400.25 91.1684 400.268 91.0918L400.419 90.1605C399.904 90.6897 399.3 91.1241 398.634 91.4438C397.833 91.8086 396.96 91.9855 396.08 91.9606ZM397.446 89.2872C398.069 89.3091 398.683 89.1429 399.21 88.8105C399.676 88.4984 400.063 88.0818 400.339 87.5941C400.61 87.1216 400.803 86.6085 400.911 86.0747C400.973 85.7717 401.036 85.4509 401.089 85.1078C401.143 84.7647 401.187 84.4394 401.223 84.1409C401.287 83.6552 401.246 83.1614 401.103 82.6928C400.965 82.244 400.696 81.8466 400.33 81.5522C399.877 81.2273 399.325 81.0698 398.768 81.1066C398.15 81.082 397.54 81.2451 397.018 81.5744C396.558 81.8823 396.183 82.3006 395.928 82.7908C395.654 83.3132 395.454 83.8711 395.334 84.4483C395.236 84.9518 395.156 85.4553 395.089 85.9588C395.025 86.5113 395.046 87.0702 395.151 87.6163C395.238 88.0892 395.483 88.5184 395.848 88.8327C396.311 89.1645 396.878 89.3208 397.446 89.2738V89.2872Z" fill="#050505"/>
<path d="M419.88 91.7111C419.805 91.7145 419.729 91.7006 419.659 91.6705C419.59 91.6404 419.528 91.5949 419.479 91.5374C419.428 91.4763 419.391 91.4044 419.373 91.3271C419.354 91.2498 419.354 91.1693 419.371 91.0918L421.282 79.262C421.308 79.088 421.397 78.9296 421.532 78.8164C421.655 78.7062 421.814 78.6445 421.979 78.6426H424.019C424.096 78.6405 424.172 78.6548 424.243 78.6848C424.314 78.7148 424.378 78.7597 424.43 78.8164C424.483 78.8765 424.521 78.9481 424.541 79.0255C424.561 79.1028 424.563 79.1838 424.546 79.262L424.381 80.2912C424.845 79.7567 425.425 79.3346 426.077 79.057C426.77 78.7606 427.516 78.6089 428.269 78.6115H429.301C429.379 78.6053 429.457 78.6178 429.529 78.6481C429.602 78.6783 429.665 78.7253 429.716 78.7852C429.763 78.848 429.796 78.9205 429.813 78.9976C429.829 79.0746 429.828 79.1542 429.81 79.2308L429.519 81.0398C429.492 81.2031 429.41 81.3523 429.287 81.4631C429.166 81.5764 429.007 81.64 428.841 81.6413H426.876C426.153 81.613 425.445 81.8544 424.89 82.3186C424.356 82.8028 424.013 83.462 423.925 84.1766L422.809 91.0873C422.779 91.2576 422.69 91.4118 422.556 91.522C422.423 91.6323 422.255 91.6914 422.081 91.6889L419.88 91.7111Z" fill="#050505"/>
<path d="M447.775 91.9606C445.912 91.9606 444.522 91.426 443.605 90.3566C442.688 89.2872 442.341 87.7634 442.565 85.7851C442.579 85.5698 442.606 85.3556 442.645 85.1435C442.675 84.9365 442.715 84.7313 442.766 84.5286C443.001 83.3556 443.477 82.2438 444.163 81.2626C444.797 80.3621 445.645 79.6332 446.632 79.1417C447.663 78.6357 448.8 78.3807 449.949 78.3976C451.104 78.3438 452.249 78.6371 453.235 79.2397C454.061 79.7946 454.666 80.6207 454.945 81.5745C455.263 82.6982 455.315 83.8804 455.097 85.0276L455.007 85.5578C454.984 85.7307 454.898 85.8891 454.766 86.0034C454.632 86.1178 454.461 86.1795 454.284 86.1772H445.926C445.926 86.2797 445.9 86.3465 445.895 86.3777C445.813 86.918 445.839 87.4692 445.971 87.9995C446.087 88.4652 446.346 88.8829 446.712 89.1937C447.11 89.503 447.606 89.661 448.11 89.6392C448.526 89.6497 448.941 89.577 449.328 89.4254C449.636 89.3037 449.925 89.1387 450.186 88.9352C450.366 88.8008 450.534 88.6517 450.69 88.4897C450.813 88.3393 450.965 88.215 451.137 88.1243C451.28 88.0742 451.432 88.0531 451.583 88.0619H453.726C453.798 88.0578 453.87 88.0692 453.937 88.0953C454.004 88.1215 454.064 88.1618 454.114 88.2134C454.16 88.2628 454.192 88.3236 454.206 88.3895C454.22 88.4554 454.216 88.5239 454.195 88.5877C454.079 88.9534 453.882 89.2884 453.619 89.5679C453.24 90.0049 452.801 90.3859 452.315 90.6997C451.706 91.0983 451.043 91.4074 450.346 91.6175C449.512 91.8614 448.644 91.9771 447.775 91.9606ZM446.284 84.0518H451.846V83.9761C451.955 83.4087 451.937 82.8246 451.793 82.2651C451.673 81.8059 451.402 81.3998 451.025 81.1111C450.608 80.8054 450.1 80.6485 449.583 80.6655C449.025 80.6632 448.477 80.8176 448.003 81.1111C447.537 81.3975 447.149 81.7938 446.873 82.2651C446.572 82.794 446.372 83.3742 446.284 83.9761V84.0518Z" fill="#050505"/>
<path d="M473.044 91.9606C472.253 91.9794 471.469 91.8035 470.763 91.4482C470.153 91.1411 469.648 90.6604 469.312 90.067C468.991 89.4715 468.884 88.7845 469.008 88.1199C469.098 87.5449 469.313 86.9964 469.636 86.5124C469.96 86.0285 470.386 85.6206 470.883 85.3172C472.094 84.5686 473.455 84.0941 474.87 83.9271L478.402 83.4236L478.486 82.8933C478.555 82.6179 478.568 82.3313 478.523 82.0509C478.477 81.7706 478.375 81.5024 478.223 81.2626C477.928 80.8749 477.357 80.6833 476.5 80.6833C475.967 80.6653 475.439 80.7915 474.973 81.0487C474.563 81.2822 474.22 81.6147 473.973 82.0156C473.901 82.1169 473.806 82.1994 473.696 82.2561C473.585 82.3127 473.463 82.3418 473.339 82.3408H471.352C471.279 82.3498 471.205 82.3407 471.137 82.3142C471.068 82.2878 471.007 82.2449 470.959 82.1894C470.92 82.1312 470.893 82.0654 470.881 81.9964C470.869 81.9273 470.871 81.8565 470.888 81.7883C470.989 81.4348 471.154 81.1027 471.374 80.8081C471.685 80.3745 472.069 79.9977 472.508 79.6942C473.071 79.2987 473.689 78.9893 474.343 78.7763C475.167 78.5084 476.03 78.3804 476.897 78.3976C477.786 78.3705 478.672 78.5033 479.513 78.7897C480.121 78.995 480.666 79.3543 481.094 79.8323C481.462 80.27 481.707 80.7974 481.803 81.3606C481.911 81.9768 481.911 82.6069 481.803 83.2231L480.531 91.1096C480.508 91.2824 480.422 91.4408 480.29 91.5552C480.166 91.664 480.008 91.7255 479.844 91.7289H477.808C477.73 91.7351 477.651 91.7226 477.579 91.6923C477.507 91.6621 477.443 91.6151 477.393 91.5552C477.346 91.4921 477.313 91.4196 477.297 91.3427C477.28 91.2657 477.281 91.1862 477.299 91.1096L477.46 90.1294C477.16 90.4718 476.814 90.7717 476.433 91.0205C475.982 91.3146 475.492 91.5427 474.977 91.6978C474.35 91.8851 473.698 91.9738 473.044 91.9606ZM474.285 89.5769C474.861 89.5807 475.429 89.4511 475.946 89.1981C476.489 88.936 476.952 88.5328 477.285 88.0307C477.676 87.4278 477.927 86.7461 478.022 86.0346L478.107 85.5088L475.526 85.9098C474.708 85.997 473.915 86.2438 473.191 86.6361C472.956 86.761 472.751 86.9358 472.591 87.1483C472.43 87.3607 472.318 87.6057 472.263 87.8659C472.229 88.0281 472.229 88.1955 472.262 88.3578C472.295 88.5202 472.36 88.6742 472.455 88.8105C472.649 89.0759 472.918 89.2775 473.227 89.3897C473.566 89.5142 473.924 89.5776 474.285 89.5769Z" fill="#050505"/>
<path d="M496.844 91.7111C496.769 91.7141 496.695 91.7 496.626 91.6699C496.557 91.6398 496.496 91.5945 496.447 91.5373C496.396 91.4763 496.36 91.4043 496.341 91.327C496.323 91.2498 496.322 91.1693 496.34 91.0918L498.251 79.2352C498.272 79.0607 498.36 78.901 498.496 78.7897C498.62 78.6805 498.778 78.6189 498.943 78.6159H500.907C500.982 78.6125 501.057 78.6265 501.126 78.6566C501.195 78.6867 501.256 78.7323 501.305 78.7897C501.357 78.8498 501.394 78.9217 501.413 78.9993C501.432 79.0769 501.431 79.1578 501.412 79.2352L501.278 80.0863C501.737 79.5937 502.283 79.1903 502.889 78.8966C503.578 78.5613 504.333 78.3847 505.099 78.3797C507.019 78.35 508.233 79.0926 508.742 80.6076C509.264 79.9181 509.939 79.3584 510.713 78.9719C511.488 78.5855 512.341 78.3828 513.207 78.3797C514.011 78.361 514.803 78.5695 515.493 78.9813C516.157 79.406 516.649 80.0516 516.881 80.8036C517.172 81.8048 517.214 82.8617 517.002 83.8825L515.841 91.0918C515.816 91.265 515.728 91.4232 515.595 91.5373C515.472 91.6465 515.314 91.7081 515.149 91.7111H513.082C513.007 91.7141 512.932 91.7 512.863 91.6699C512.794 91.6398 512.733 91.5945 512.685 91.5373C512.634 91.4763 512.597 91.4043 512.579 91.327C512.56 91.2498 512.56 91.1693 512.577 91.0918L513.707 84.083C513.83 83.4939 513.818 82.8845 513.671 82.3007C513.559 81.9029 513.297 81.5641 512.939 81.3561C512.573 81.1658 512.164 81.0708 511.752 81.0799C511.352 81.0883 510.959 81.1826 510.6 81.3561C510.168 81.5703 509.803 81.8966 509.542 82.3007C509.2 82.8411 508.981 83.4493 508.899 84.083L507.747 91.1096C507.723 91.2835 507.636 91.4424 507.501 91.5552C507.378 91.665 507.22 91.7267 507.055 91.7289H504.992C504.914 91.7347 504.836 91.722 504.764 91.6918C504.692 91.6616 504.628 91.6148 504.577 91.5552C504.53 91.4921 504.497 91.4196 504.481 91.3426C504.465 91.2657 504.466 91.1862 504.483 91.1096L505.617 84.1008C505.743 83.5106 505.721 82.8986 505.555 82.3185C505.429 81.9216 505.16 81.5852 504.8 81.3739C504.45 81.1883 504.058 81.0933 503.662 81.0977C503.251 81.1042 502.846 81.2031 502.479 81.3873C502.052 81.608 501.688 81.933 501.421 82.3319C501.077 82.871 500.859 83.48 500.782 84.1142L499.653 91.123C499.627 91.2962 499.54 91.4544 499.407 91.5685C499.284 91.6777 499.125 91.7393 498.961 91.7423L496.844 91.7111Z" fill="#050505"/>
<path d="M536.445 91.9606C535.591 91.9826 534.739 91.8652 533.922 91.6131C533.334 91.4225 532.788 91.1199 532.315 90.7219C531.967 90.4316 531.682 90.072 531.48 89.666C531.333 89.3927 531.26 89.0852 531.271 88.7748C531.272 88.6876 531.293 88.6018 531.333 88.5244C531.374 88.447 531.432 88.3802 531.503 88.3293C531.628 88.2247 531.786 88.1664 531.949 88.1644H533.936C533.995 88.164 534.053 88.1715 534.11 88.1867C534.181 88.222 534.242 88.274 534.289 88.3382C534.476 88.5253 534.673 88.7169 534.887 88.9174C535.116 89.133 535.383 89.3065 535.673 89.4298C536.06 89.5892 536.477 89.6622 536.896 89.6437C537.489 89.6583 538.077 89.525 538.606 89.256C538.827 89.152 539.02 88.9959 539.168 88.8011C539.316 88.6063 539.414 88.3786 539.454 88.1376C539.487 87.9928 539.49 87.843 539.464 87.6969C539.438 87.5508 539.383 87.4113 539.302 87.2866C539.041 87.001 538.703 86.7955 538.329 86.694C537.632 86.4639 536.923 86.275 536.204 86.1281C535.432 85.9616 534.689 85.6823 533.998 85.2994C533.479 85.018 533.064 84.5775 532.815 84.0429C532.588 83.4869 532.529 82.8765 532.646 82.2874C532.769 81.5947 533.078 80.9482 533.539 80.416C534.083 79.7786 534.767 79.2754 535.539 78.9456C536.485 78.5388 537.509 78.3412 538.539 78.3664C539.322 78.3491 540.102 78.4636 540.847 78.705C541.407 78.8902 541.929 79.1755 542.387 79.5471C542.733 79.829 543.022 80.1737 543.24 80.563C543.402 80.8315 543.484 81.1407 543.477 81.4541C543.474 81.5401 543.453 81.6245 543.414 81.7015C543.376 81.7784 543.321 81.8461 543.253 81.8997C543.13 82.0085 542.971 82.0673 542.807 82.0646H540.945C540.869 82.0658 540.794 82.049 540.726 82.0156C540.662 81.9796 540.6 81.9379 540.543 81.8908C540.387 81.7215 540.213 81.5433 540.026 81.3606C539.815 81.1606 539.574 80.9952 539.311 80.8704C538.937 80.7107 538.531 80.6376 538.124 80.6566C537.585 80.6293 537.051 80.7745 536.601 81.071C536.423 81.1895 536.272 81.3431 536.156 81.5225C536.04 81.7018 535.962 81.903 535.927 82.1136C535.877 82.368 535.92 82.6318 536.048 82.8577C536.277 83.1417 536.589 83.3473 536.941 83.4458C537.631 83.6939 538.34 83.8876 539.061 84.0251C539.957 84.1532 540.818 84.456 541.597 84.9162C542.125 85.2264 542.541 85.6939 542.789 86.2529C542.985 86.7965 543.033 87.3824 542.927 87.9505C542.804 88.7111 542.458 89.4181 541.932 89.9823C541.33 90.6273 540.579 91.1153 539.744 91.4037C538.686 91.7839 537.569 91.9725 536.445 91.9606Z" fill="#050505"/>
<path d="M148.316 60.566C143.417 60.566 139.314 59.7684 136.008 58.1733C132.84 56.7135 130.247 54.2451 128.637 51.1556C127.035 48.0663 126.373 44.2344 126.65 39.6599C126.823 37.5539 127.037 35.2919 127.293 32.874C127.549 30.456 127.821 28.142 128.11 25.932C128.788 21.4556 130.277 17.6623 132.574 14.5522C134.866 11.4363 137.948 8.98624 141.503 7.45434C145.176 5.83842 149.413 5.03045 154.214 5.03045C157.366 4.99037 160.506 5.41834 163.531 6.30032C166.132 7.05687 168.559 8.31481 170.675 10.003C172.627 11.5561 174.161 13.5697 175.139 15.8622C176.128 18.3196 176.495 20.9825 176.206 23.6151C176.211 23.8371 176.165 24.0572 176.07 24.2583C175.976 24.4593 175.836 24.6357 175.662 24.7735C175.312 25.0667 174.868 25.2248 174.411 25.2191H163.978C163.44 25.2561 162.908 25.0979 162.478 24.7735C162.067 24.3388 161.802 23.7877 161.719 23.1962C161.284 20.4694 160.309 18.6039 158.795 17.5999C157.28 16.5959 155.336 16.0954 152.964 16.0983C150.127 16.0983 147.803 16.8825 145.99 18.4509C144.178 20.0193 142.999 22.6289 142.454 26.2796C141.859 30.5006 141.401 34.8211 141.079 39.2411C140.844 42.8888 141.468 45.4984 142.95 47.0697C144.432 48.6411 146.59 49.4253 149.423 49.4223C151.589 49.4748 153.729 48.9421 155.616 47.8807C157.375 46.8499 158.732 44.9978 159.687 42.3244C159.871 41.7032 160.238 41.1519 160.741 40.7427C161.23 40.4419 161.797 40.2945 162.371 40.3194H172.809C173.02 40.3109 173.231 40.3461 173.429 40.4228C173.626 40.4994 173.806 40.6159 173.956 40.7649C174.104 40.9138 174.209 41.0989 174.263 41.3014C174.316 41.504 174.315 41.7169 174.26 41.919C173.943 44.6731 173.014 47.322 171.541 49.6718C170.061 51.9885 168.128 53.9829 165.857 55.5355C163.424 57.2011 160.731 58.4523 157.888 59.2382C154.776 60.1255 151.553 60.5725 148.316 60.566Z" fill="#050505"/>
<path d="M178.233 59.7951C178.03 59.7867 177.831 59.7377 177.647 59.651C177.464 59.5643 177.299 59.4417 177.164 59.2905C177.029 59.1392 176.925 58.9624 176.86 58.7705C176.794 58.5786 176.768 58.3755 176.782 58.1733C176.805 57.9368 176.855 57.7037 176.929 57.4782L200.355 7.95783C200.588 7.36445 200.977 6.84439 201.48 6.45181C202.088 5.99151 202.839 5.75961 203.601 5.79682H215.039C215.692 5.73232 216.345 5.92052 216.864 6.32262C217.382 6.72472 217.726 7.31003 217.825 7.95783L230.651 57.4782C230.733 57.7002 230.761 57.9385 230.732 58.1733C230.67 58.6098 230.449 59.0083 230.111 59.2916C229.772 59.6127 229.324 59.7928 228.856 59.7951H219.338C219.033 59.8225 218.726 59.785 218.436 59.6852C218.147 59.5853 217.882 59.4254 217.659 59.2159C217.37 58.9235 217.156 58.5659 217.034 58.1733L214.874 50.3045H194.234L190.461 58.1733C190.258 58.5673 189.984 58.9207 189.653 59.2159C189.114 59.6487 188.428 59.8563 187.738 59.7951H178.233ZM198.582 39.1965H212.958L207.855 18.843L198.582 39.1965Z" fill="#050505"/>
<path d="M259.519 60.566C254.879 60.566 250.902 59.807 247.59 58.2891C244.391 56.8881 241.792 54.402 240.254 51.2714C238.689 48.1079 238.163 44.0829 238.678 39.1966L242.022 7.72614C242.065 7.19319 242.311 6.69676 242.708 6.3382C243.106 5.97965 243.625 5.78601 244.161 5.79683H254.161C254.41 5.78404 254.659 5.82566 254.891 5.91878C255.122 6.01189 255.33 6.15427 255.501 6.33597C255.663 6.52571 255.782 6.74818 255.85 6.98814C255.917 7.22809 255.932 7.47985 255.894 7.72614L252.559 39.1208C252.201 42.4626 252.746 44.9696 254.193 46.642C255.639 48.3144 257.825 49.1476 260.751 49.1416C263.635 49.1416 265.978 48.3054 267.778 46.6331C269.579 44.9607 270.658 42.4537 271.015 39.1119L274.35 7.71722C274.372 7.44927 274.448 7.18842 274.572 6.94978C274.696 6.71115 274.867 6.49949 275.073 6.32706C275.464 5.98667 275.965 5.79842 276.484 5.79683H286.534C286.775 5.79216 287.015 5.83769 287.238 5.9305C287.461 6.02332 287.662 6.1614 287.828 6.33597C288.004 6.5183 288.136 6.73839 288.213 6.97936C288.291 7.22032 288.312 7.47578 288.275 7.72614L284.931 39.1966C284.413 44.0829 283.032 48.1079 280.788 51.2714C278.591 54.3988 275.544 56.8338 272.006 58.2891C268.381 59.804 264.218 60.563 259.519 60.566Z" fill="#050505"/>
<path d="M314.647 60.566C309.495 60.566 305.295 59.8323 302.048 58.3649C298.801 56.8975 296.429 54.983 294.932 52.6215C293.462 50.3793 292.766 47.7198 292.949 45.0469C293.007 44.6082 293.231 44.2083 293.574 43.9285C293.91 43.6061 294.358 43.4257 294.824 43.425H304.562C305.129 43.3853 305.695 43.5206 306.182 43.8126C306.556 44.084 306.874 44.4243 307.12 44.8152C307.487 45.6386 307.995 46.3924 308.62 47.043C309.39 47.8286 310.333 48.4237 311.374 48.7807C312.812 49.2609 314.324 49.4827 315.839 49.4357C318.815 49.4357 321.119 48.9723 322.75 48.0455C324.381 47.1187 325.274 45.8593 325.429 44.2671C325.503 43.7573 325.458 43.2371 325.295 42.7481C325.132 42.2591 324.857 41.8149 324.491 41.4511C323.741 40.7085 322.485 40.0402 320.723 39.4461C318.389 38.7084 316.014 38.103 313.611 37.6326C310.263 36.9765 307.012 35.9032 303.932 34.4379C301.316 33.125 299.399 31.4021 298.182 29.2693C296.964 27.1365 296.518 24.475 296.842 21.2848C297.162 18.1883 298.406 15.2592 300.414 12.8769C302.584 10.311 305.358 8.32104 308.486 7.08452C311.834 5.71514 315.699 5.03045 320.08 5.03045C323.219 4.96577 326.345 5.43436 329.326 6.41617C331.702 7.20837 333.895 8.46904 335.773 10.1233C337.328 11.4864 338.585 13.1549 339.465 15.0245C340.207 16.6013 340.54 18.3386 340.434 20.0773C340.38 20.5072 340.174 20.9038 339.854 21.1956C339.695 21.3554 339.506 21.4818 339.297 21.5675C339.088 21.6532 338.865 21.6965 338.639 21.6947H328.438C327.941 21.71 327.447 21.6045 327 21.3872C326.585 21.1553 326.246 20.8067 326.027 20.3847C325.834 19.253 325.127 18.2623 323.906 17.4128C322.686 16.5632 321.016 16.137 318.897 16.134C316.629 16.134 314.822 16.532 313.477 17.3281C312.824 17.7049 312.273 18.2366 311.875 18.8762C311.476 19.5158 311.241 20.2435 311.191 20.9951C311.132 21.4688 311.169 21.9494 311.299 22.4087C311.429 22.8679 311.651 23.2963 311.95 23.6685C312.563 24.4438 313.651 25.1137 315.214 25.678C317.341 26.4021 319.511 26.9973 321.71 27.4603C326.308 28.3336 329.98 29.4267 332.724 30.7397C335.468 32.0526 337.403 33.7488 338.528 35.8281C339.644 37.9074 340.037 40.5169 339.706 43.6567C339.393 47.0199 338.013 50.1959 335.769 52.724C333.36 55.3781 330.322 57.3852 326.933 58.5609C322.989 59.9489 318.829 60.6277 314.647 60.566Z" fill="#050505"/>
<path d="M349.198 59.7951C348.949 59.8113 348.699 59.7706 348.468 59.6762C348.237 59.5817 348.031 59.436 347.865 59.25C347.699 59.064 347.577 58.8427 347.509 58.6029C347.442 58.363 347.43 58.111 347.475 57.8658L352.796 7.72613C352.841 7.19175 353.089 6.69461 353.488 6.33596C353.884 5.97851 354.401 5.78561 354.935 5.79682H391.031C391.28 5.78373 391.529 5.82521 391.76 5.91835C391.991 6.01148 392.2 6.15402 392.37 6.33596C392.532 6.5257 392.651 6.74818 392.719 6.98813C392.787 7.22809 392.802 7.47985 392.763 7.72613L391.99 14.9755C391.947 15.5094 391.701 16.0066 391.303 16.3657C390.908 16.7243 390.39 16.9174 389.856 16.9048H365.194L364.087 27.3088H387.044C387.297 27.2958 387.549 27.3414 387.781 27.4418C388.014 27.5423 388.22 27.695 388.383 27.8881C388.543 28.086 388.66 28.3149 388.727 28.5603C388.794 28.8058 388.809 29.0623 388.772 29.3139L388.062 36.0241C388 36.5375 387.756 37.0119 387.374 37.3608C387.183 37.5492 386.957 37.6975 386.707 37.797C386.458 37.8965 386.191 37.9451 385.923 37.94H362.958L361.819 48.696H387.093C387.342 48.682 387.591 48.7231 387.823 48.8163C388.054 48.9095 388.262 49.0525 388.432 49.2352C388.595 49.4238 388.714 49.6455 388.782 49.8848C388.85 50.1241 388.864 50.3753 388.825 50.6209L388.057 57.8747C388.011 58.4065 387.765 58.9011 387.368 59.259C386.971 59.6169 386.453 59.8117 385.919 59.804L349.198 59.7951Z" fill="#050505"/>
<path d="M406.848 59.7951C406.478 59.8197 406.107 59.7634 405.761 59.6303C405.415 59.4972 405.102 59.2904 404.844 59.0243C404.394 58.536 404.133 57.9044 404.107 57.242L400.915 7.95337C400.876 7.85431 400.861 7.74749 400.87 7.64147C400.87 7.54048 400.879 7.46473 400.897 7.41423C400.974 6.98503 401.19 6.59316 401.513 6.29977C401.836 6.00637 402.248 5.82796 402.683 5.79237H412.268C413.712 5.79237 414.456 6.35824 414.501 7.48998L416.322 37.6504L423.778 19.8277C424.029 19.3468 424.338 18.8979 424.698 18.491C424.93 18.2363 425.218 18.0377 425.539 17.9103C425.86 17.7829 426.206 17.7301 426.55 17.7558H432.118C433.011 17.7558 433.582 18.0009 433.903 18.491C434.177 18.8941 434.364 19.3492 434.453 19.8277L438.136 37.5702L446.355 7.48553C446.627 6.35379 447.489 5.78791 448.931 5.78791H458.516C458.727 5.77935 458.937 5.82048 459.128 5.90797C459.32 5.99546 459.488 6.12683 459.619 6.29141C459.751 6.44393 459.85 6.62195 459.91 6.81438C459.97 7.0068 459.99 7.20949 459.967 7.40978C459.967 7.45879 459.967 7.53454 459.941 7.63702C459.914 7.7395 459.918 7.84644 459.909 7.94892L446.248 57.2376C446.064 57.9301 445.675 58.5512 445.132 59.0198C444.533 59.5431 443.757 59.8188 442.962 59.7907H435.622C435.268 59.8208 434.912 59.7743 434.577 59.6543C434.243 59.5344 433.939 59.3438 433.685 59.0956C433.324 58.7262 433.055 58.2775 432.899 57.7856L427.434 35.7211L417.282 57.7856C417.02 58.2796 416.673 58.7231 416.255 59.0956C415.692 59.5867 414.957 59.8364 414.21 59.7907L406.848 59.7951Z" fill="#050505"/>
<path d="M458.637 59.7951C458.434 59.7867 458.235 59.7377 458.052 59.651C457.868 59.5642 457.704 59.4416 457.569 59.2902C457.434 59.1389 457.331 58.962 457.266 58.7702C457.201 58.5783 457.175 58.3753 457.191 58.1733C457.214 57.9368 457.263 57.7037 457.338 57.4782L480.763 7.95783C480.997 7.36446 481.385 6.8444 481.888 6.45182C482.495 5.99218 483.244 5.7603 484.004 5.79683H495.447C495.804 5.77036 496.162 5.8146 496.502 5.92702C496.841 6.03943 497.155 6.21779 497.425 6.45182C497.848 6.85525 498.131 7.38282 498.233 7.95783L511.06 57.4782C511.142 57.7002 511.169 57.9385 511.14 58.1733C511.081 58.6116 510.858 59.0113 510.515 59.2916C510.178 59.6132 509.731 59.7935 509.265 59.7951H499.76C499.455 59.8228 499.148 59.7855 498.858 59.6856C498.569 59.5857 498.304 59.4256 498.081 59.2159C497.792 58.9235 497.578 58.5659 497.456 58.1733L495.277 50.3046H474.642L470.87 58.1733C470.667 58.5673 470.393 58.9207 470.062 59.2159C469.522 59.6487 468.836 59.8563 468.147 59.7951H458.637ZM478.991 39.1966H493.367L488.268 18.843L478.991 39.1966Z" fill="#050505"/>
<path d="M528.284 59.7951C528.042 59.8001 527.802 59.7542 527.579 59.6606C527.355 59.5669 527.155 59.4276 526.989 59.2515C526.813 59.0703 526.681 58.851 526.604 58.6107C526.526 58.3704 526.505 58.1155 526.543 57.8658L528.306 41.2818L513.881 8.26527C513.845 8.10933 513.805 7.9712 513.77 7.81971C513.729 7.67488 513.718 7.52323 513.738 7.37414C513.796 6.93633 514.017 6.5366 514.359 6.25576C514.696 5.93495 515.143 5.75484 515.609 5.75227H525.27C525.587 5.72856 525.906 5.76752 526.208 5.86692C526.509 5.96631 526.789 6.12419 527.029 6.33151C527.355 6.60672 527.596 6.96811 527.726 7.37414L536.766 27.3088L550.008 7.40978C550.28 7.00848 550.618 6.65598 551.008 6.36716C551.548 5.96124 552.213 5.75634 552.888 5.78792H562.549C562.76 5.77864 562.971 5.81943 563.163 5.90694C563.356 5.99446 563.525 6.12621 563.656 6.29141C563.788 6.44415 563.886 6.62232 563.945 6.81477C564.004 7.00722 564.023 7.20979 564 7.40978C563.986 7.56067 563.958 7.70987 563.915 7.85535C563.87 8.00665 563.816 8.15539 563.754 8.30092L542.24 41.3175L540.454 57.9015C540.409 58.4328 540.164 58.9274 539.768 59.2854C539.372 59.6434 538.854 59.8383 538.32 59.8308L528.284 59.7951Z" fill="#050505"/>
</g>
<defs>
<linearGradient id="paint0_linear_93_147" x1="46.2838" y1="-18.4955" x2="116.377" y2="78.5076" gradientUnits="userSpaceOnUse">
<stop offset="0.18" stop-color="#FF1C21"/>
<stop offset="0.83" stop-color="#68000C"/>
</linearGradient>
<linearGradient id="paint1_linear_93_147" x1="9.05408" y1="8.4034" x2="79.1383" y2="105.398" gradientUnits="userSpaceOnUse">
<stop offset="0.18" stop-color="#FF1C21"/>
<stop offset="0.83" stop-color="#68000C"/>
</linearGradient>
<linearGradient id="paint2_linear_93_147" x1="10.8533" y1="7.10236" x2="80.9464" y2="104.11" gradientUnits="userSpaceOnUse">
<stop offset="0.18" stop-color="#FF1C21"/>
<stop offset="0.83" stop-color="#68000C"/>
</linearGradient>
<linearGradient id="paint3_linear_93_147" x1="79.7901" y1="47.8807" x2="90.468" y2="20.0319" gradientUnits="userSpaceOnUse">
<stop stop-opacity="0"/>
<stop offset="1"/>
</linearGradient>
<linearGradient id="paint4_linear_93_147" x1="33.2608" y1="63.6849" x2="65.3391" y2="97.086" gradientUnits="userSpaceOnUse">
<stop stop-opacity="0"/>
<stop offset="1"/>
</linearGradient>
<clipPath id="clip0_93_147">
<rect width="564" height="97" fill="white"/>
</clipPath>
</defs>
</svg>
