<svg width="127" height="22" viewBox="0 0 127 22" fill="none" xmlns="http://www.w3.org/2000/svg">
<g clip-path="url(#clip0_10934_6476)">
<path d="M10.9762 2.37031e-05C10.9762 2.37031e-05 9.2782 2.3849 9.76276 5.54736H16.3154L15.8399 8.25631L15.7393 8.84325C15.7077 9.01585 15.7144 9.19328 15.759 9.363C15.8036 9.53272 15.8851 9.69058 15.9976 9.82543C16.11 9.96028 16.2508 10.0688 16.41 10.1434C16.5691 10.2179 16.7428 10.2567 16.9186 10.2569H21.17C21.3592 10.2566 21.5438 10.1989 21.6994 10.0914C21.8549 9.98383 21.9739 9.83161 22.0406 9.65494C22.04 9.65298 22.04 9.65088 22.0406 9.64892C22.0605 9.59627 22.0753 9.54184 22.0849 9.48638C22.0858 9.4814 22.0858 9.4763 22.0849 9.47133L22.0989 9.39006L22.9836 4.45776C23.0712 3.90679 23.0379 3.34343 22.8861 2.80654C22.7343 2.26965 22.4677 1.77201 22.1045 1.34795C21.7413 0.923887 21.2903 0.583504 20.7826 0.350272C20.2748 0.11704 19.7224 -0.00348721 19.1634 -0.00298919L10.9762 2.37031e-05Z" fill="black"/>
<path d="M5.82605 2.21659e-05C4.73255 -0.000182078 3.67489 0.389216 2.8435 1.09811C2.01211 1.807 1.4616 2.78882 1.29109 3.8668L0.0414848 11.7418C-0.0314786 12.2038 -0.00320613 12.676 0.124354 13.126C0.251913 13.576 0.475727 13.9931 0.780367 14.3484C1.08501 14.7038 1.46323 14.989 1.88897 15.1844C2.3147 15.3797 2.77783 15.4807 3.24642 15.4802L5.94668 15.4601L7.37825 6.38613C7.37825 6.38613 8.11514 0.922067 10.9813 -0.00299072L5.82605 2.21659e-05Z" fill="black"/>
<path d="M22.3473 15.8986L21.9703 18.2895C21.8122 19.2812 21.305 20.1842 20.5398 20.8363C19.7746 21.4884 18.8015 21.8468 17.7952 21.8472H8.72834C8.131 21.849 7.54503 21.6842 7.0364 21.3717L6.9047 21.2864C6.81824 21.2262 6.73681 21.165 6.65639 21.0988C6.57608 21.0322 6.49924 20.9615 6.42617 20.8871C6.06631 20.5256 5.79742 20.0842 5.64154 19.599C5.48567 19.1139 5.44725 18.5987 5.52944 18.0958L5.94161 15.4681L15.9334 15.4581C15.9858 15.1104 16.1614 14.7929 16.4283 14.5634C16.6952 14.3338 17.0358 14.2074 17.3881 14.207H20.8886C21.101 14.2066 21.311 14.252 21.5042 14.3403C21.6973 14.4285 21.8691 14.5573 22.0077 14.718C22.1462 14.8787 22.2483 15.0674 22.307 15.2712C22.3656 15.475 22.3793 15.689 22.3473 15.8986Z" fill="black"/>
<path opacity="0.6" d="M18.5953 5.54731H16.3152L15.8548 8.24523L15.8397 8.25727L15.7392 8.8442C15.7077 9.01673 15.7145 9.19405 15.7592 9.36364C15.8039 9.53323 15.8854 9.69097 15.9978 9.8257C16.1103 9.96043 16.251 10.0689 16.4101 10.1434C16.5692 10.2179 16.7427 10.2566 16.9184 10.2569H21.1699C21.359 10.2566 21.5437 10.1988 21.6992 10.0913C21.8547 9.98378 21.9737 9.83156 22.0405 9.65489H22.0696C22.0857 9.56559 22.0968 9.4783 22.1048 9.39001C22.1511 8.90256 22.0947 8.41086 21.9392 7.94645C21.7838 7.48204 21.5328 7.05521 21.2023 6.69335C20.8718 6.33148 20.4692 6.04259 20.0202 5.84523C19.5712 5.64786 19.0859 5.54639 18.5953 5.54731Z" fill="black"/>
<path opacity="0.6" d="M15.9334 15.4531C15.7229 17.0494 14.9999 18.5347 13.8726 19.6865C12.7454 20.8383 11.2745 21.5946 9.6804 21.8422H8.72736C8.13002 21.8439 7.54406 21.6792 7.03542 21.3666L6.90373 21.2813C6.81727 21.2211 6.73584 21.1599 6.65541 21.0937C6.57511 21.0271 6.49827 20.9564 6.4252 20.882C6.06534 20.5206 5.79644 20.0792 5.64057 19.594C5.48469 19.1088 5.44627 18.5937 5.52846 18.0908L5.94064 15.4631L15.9334 15.4531Z" fill="black"/>
<path d="M28.1657 20.6512C28.1488 20.652 28.1319 20.6488 28.1164 20.6421C28.1009 20.6353 28.0871 20.625 28.0762 20.6121C28.0645 20.5985 28.0561 20.5823 28.0519 20.5649C28.0477 20.5474 28.0478 20.5292 28.0521 20.5118L28.6462 16.8296C28.652 16.7906 28.6717 16.755 28.7015 16.7293C28.7293 16.7048 28.765 16.6909 28.8021 16.6901H30.1884C30.5032 16.6762 30.8169 16.7364 31.1042 16.8657C31.3234 16.9724 31.4937 17.1581 31.5807 17.3854C31.6736 17.6564 31.6944 17.9468 31.6411 18.2282C31.621 18.3948 31.6008 18.5413 31.5807 18.6697C31.5606 18.7981 31.5325 18.9436 31.4993 19.1051C31.4514 19.4147 31.3379 19.7105 31.1666 19.973C31.0105 20.2 30.7919 20.377 30.5372 20.4827C30.232 20.6018 29.9058 20.6585 29.5782 20.6492L28.1657 20.6512ZM28.9227 20.0011H29.6536C29.8347 20.0064 30.0152 19.9757 30.1844 19.9108C30.3249 19.8509 30.4433 19.7489 30.5231 19.6188C30.6171 19.4556 30.6795 19.2762 30.7071 19.0901C30.7292 18.9767 30.7483 18.8784 30.7634 18.7891C30.7785 18.6998 30.7926 18.6195 30.8046 18.5342C30.8167 18.4489 30.8298 18.3526 30.8428 18.2433C30.8861 17.9343 30.8428 17.7065 30.7212 17.559C30.5996 17.4115 30.3754 17.3383 30.0537 17.3383H29.35L28.9227 20.0011Z" fill="black"/>
<path d="M34.9134 20.6513C34.8965 20.652 34.8796 20.6488 34.8641 20.642C34.8486 20.6352 34.8349 20.625 34.8239 20.6122C34.8124 20.5984 34.8043 20.5822 34.8001 20.5648C34.7959 20.5474 34.7958 20.5293 34.7998 20.5118L35.229 17.848C35.2349 17.8088 35.255 17.7732 35.2853 17.7477C35.3131 17.7231 35.3488 17.7092 35.3859 17.7086H35.8453C35.8626 17.708 35.8799 17.7112 35.8959 17.718C35.9118 17.7247 35.9261 17.7349 35.9378 17.7477C35.9497 17.7612 35.9582 17.7773 35.9628 17.7948C35.9673 17.8122 35.9677 17.8304 35.9639 17.848L35.9267 18.0798C36.0315 17.9596 36.1621 17.8646 36.3088 17.8019C36.4654 17.7367 36.6337 17.7043 36.8034 17.7065H37.0356C37.053 17.7052 37.0705 17.7081 37.0866 17.7149C37.1027 17.7217 37.1169 17.7323 37.1281 17.7457C37.1388 17.7598 37.1462 17.7761 37.1499 17.7935C37.1535 17.8108 37.1533 17.8288 37.1492 17.846L37.0838 18.2534C37.0782 18.2903 37.0597 18.324 37.0316 18.3487C37.003 18.3754 36.9651 18.3898 36.926 18.3888H36.4837C36.3211 18.3826 36.162 18.4369 36.0373 18.5413C35.9171 18.6505 35.8398 18.7988 35.8192 18.9597L35.5678 20.5158C35.5612 20.554 35.5411 20.5886 35.5113 20.6134C35.4815 20.6382 35.4438 20.6516 35.405 20.6513H34.9134Z" fill="black"/>
<path d="M40.1126 20.6513C40.0956 20.652 40.0785 20.6489 40.0629 20.6421C40.0472 20.6353 40.0333 20.6251 40.0222 20.6121C40.0107 20.5984 40.0025 20.5822 39.9983 20.5648C39.9942 20.5474 39.994 20.5292 39.998 20.5118L40.4293 17.842C40.436 17.8047 40.4553 17.7709 40.4841 17.7462C40.5128 17.7216 40.5492 17.7075 40.5871 17.7065H41.0576C41.075 17.7052 41.0925 17.7081 41.1086 17.7149C41.1247 17.7217 41.1389 17.7322 41.1501 17.7456C41.1608 17.7598 41.1682 17.7761 41.1719 17.7935C41.1755 17.8108 41.1753 17.8287 41.1712 17.846L40.744 20.5158C40.7386 20.5542 40.7201 20.5896 40.6917 20.6161C40.6628 20.6421 40.625 20.6561 40.5861 20.6553L40.1126 20.6513ZM40.6424 17.2239C40.6252 17.2253 40.6079 17.2227 40.5918 17.2162C40.5757 17.2098 40.5614 17.1997 40.5499 17.1868C40.5389 17.1728 40.5313 17.1565 40.5276 17.1391C40.5239 17.1217 40.5244 17.1037 40.5288 17.0865L40.5942 16.6851C40.5991 16.6466 40.6176 16.611 40.6464 16.5848C40.675 16.5581 40.7129 16.5437 40.752 16.5447H41.2677C41.2865 16.5428 41.3054 16.5454 41.3229 16.5524C41.3405 16.5594 41.356 16.5705 41.3683 16.5848C41.3799 16.5985 41.3881 16.6147 41.3923 16.6321C41.3965 16.6495 41.3965 16.6677 41.3924 16.6851L41.327 17.0865C41.3223 17.1258 41.3025 17.1617 41.2718 17.1868C41.2411 17.2117 41.2026 17.2248 41.1632 17.2239H40.6424Z" fill="black"/>
<path d="M45.3492 20.6513C45.3262 20.6539 45.303 20.6514 45.2812 20.6441C45.2593 20.6369 45.2393 20.6249 45.2225 20.6091C45.198 20.5794 45.1792 20.5454 45.1672 20.5088L44.5318 17.8881C44.5285 17.8716 44.5285 17.8545 44.5318 17.838C44.5382 17.8035 44.5563 17.7723 44.5831 17.7497C44.6089 17.7268 44.6421 17.714 44.6766 17.7136H45.136C45.1545 17.7111 45.1732 17.7131 45.1907 17.7193C45.2082 17.7256 45.224 17.736 45.2366 17.7497C45.2529 17.7706 45.2642 17.795 45.2697 17.8209L45.703 19.8055L46.7777 17.8209C46.7921 17.7941 46.8112 17.77 46.834 17.7497C46.8644 17.7245 46.9031 17.7116 46.9426 17.7136H47.407C47.4216 17.7137 47.436 17.717 47.4492 17.7232C47.4624 17.7295 47.4741 17.7385 47.4834 17.7497C47.4935 17.7618 47.5007 17.7761 47.5045 17.7913C47.5084 17.8066 47.5087 17.8226 47.5055 17.838C47.5027 17.8551 47.4983 17.8719 47.4925 17.8881L46.0026 20.5128C45.9812 20.5511 45.9529 20.5851 45.9192 20.6132C45.8779 20.6432 45.8274 20.6581 45.7764 20.6553L45.3492 20.6513Z" fill="black"/>
<path d="M51.5457 20.7075C51.1262 20.7075 50.8132 20.5871 50.6068 20.3463C50.4004 20.1055 50.3236 19.7623 50.3766 19.3169C50.3798 19.2684 50.3859 19.2202 50.3947 19.1724C50.4011 19.1257 50.4105 19.0794 50.4228 19.0339C50.4751 18.7697 50.582 18.5193 50.7365 18.2985C50.8792 18.0957 51.0702 17.9316 51.2924 17.8209C51.5246 17.707 51.7806 17.6496 52.0393 17.6534C52.2995 17.6411 52.5572 17.7072 52.7793 17.843C52.9652 17.9681 53.1017 18.154 53.1653 18.3687C53.2363 18.6219 53.2476 18.888 53.1985 19.1463L53.1794 19.2657C53.1732 19.3045 53.1537 19.34 53.1241 19.366C53.0938 19.3918 53.0553 19.4057 53.0155 19.4051H51.1336C51.1336 19.4282 51.1275 19.4433 51.1265 19.4503C51.1081 19.572 51.1139 19.6961 51.1436 19.8155C51.1697 19.9204 51.228 20.0144 51.3105 20.0844C51.4001 20.1541 51.5117 20.1896 51.6252 20.1847C51.7189 20.1871 51.8123 20.1707 51.8996 20.1366C51.9692 20.1092 52.0346 20.072 52.0936 20.0262C52.1337 19.9957 52.1713 19.9622 52.2062 19.9259C52.2339 19.892 52.2681 19.864 52.3068 19.8436C52.3374 19.833 52.3698 19.8282 52.4023 19.8295H52.8898C52.906 19.8285 52.9223 19.831 52.9374 19.8369C52.9525 19.8428 52.9661 19.8519 52.9773 19.8637C52.9876 19.8748 52.9948 19.8885 52.998 19.9033C53.0011 19.9181 53.0003 19.9336 52.9954 19.9479C52.9693 20.0303 52.925 20.1057 52.8657 20.1687C52.7806 20.2668 52.6821 20.3526 52.5732 20.4235C52.4356 20.5131 52.286 20.5826 52.1288 20.6302C51.9396 20.6855 51.7429 20.7116 51.5457 20.7075ZM51.21 18.9266H52.4626V18.9095C52.4875 18.7818 52.4834 18.6501 52.4505 18.5242C52.4234 18.4208 52.3626 18.3294 52.2776 18.2644C52.1837 18.1956 52.0693 18.1602 51.9529 18.164C51.8272 18.1635 51.7039 18.1983 51.597 18.2644C51.4922 18.3289 51.4048 18.4181 51.3427 18.5242C51.2749 18.6433 51.2299 18.774 51.21 18.9095V18.9266Z" fill="black"/>
<path d="M60.7324 21.7258C60.7184 21.7263 60.7044 21.7235 60.6916 21.7176C60.6788 21.7117 60.6677 21.7028 60.659 21.6917C60.6495 21.681 60.6426 21.6684 60.6387 21.6546C60.6349 21.6409 60.6343 21.6264 60.6369 21.6124C60.6369 21.5974 60.6429 21.5833 60.647 21.5703C60.6534 21.5529 60.6625 21.5366 60.6741 21.5221L61.2853 20.4757L60.6108 17.9142C60.6032 17.8885 60.5998 17.8617 60.6007 17.8349C60.6098 17.8009 60.6287 17.7702 60.655 17.7466C60.6793 17.7233 60.7118 17.7104 60.7455 17.7105H61.2049C61.2231 17.7081 61.2416 17.7099 61.259 17.7156C61.2764 17.7213 61.2923 17.7309 61.3055 17.7436C61.3239 17.7651 61.3373 17.7905 61.3447 17.8179L61.8001 19.667L62.8747 17.8179C62.8902 17.7882 62.9118 17.7622 62.9381 17.7416C62.9689 17.7192 63.0066 17.7082 63.0446 17.7105H63.498C63.5126 17.7101 63.527 17.7129 63.5404 17.7186C63.5537 17.7243 63.5657 17.7329 63.5754 17.7436C63.5849 17.7544 63.5919 17.767 63.5961 17.7807C63.6003 17.7943 63.6014 17.8087 63.5996 17.8229C63.5916 17.8551 63.5787 17.8859 63.5614 17.9142L61.3527 21.6184C61.3343 21.6474 61.3112 21.6732 61.2843 21.6947C61.2531 21.7171 61.2151 21.7281 61.1768 21.7258H60.7324Z" fill="black"/>
<path d="M67.6464 20.7074C67.3916 20.7181 67.1384 20.6639 66.9105 20.5499C66.7275 20.4531 66.5849 20.2945 66.5083 20.1024C66.4282 19.8876 66.402 19.6565 66.4319 19.4292C66.439 19.362 66.451 19.2787 66.4671 19.1804C66.4832 19.0821 66.4983 18.9998 66.5124 18.9316C66.5629 18.6874 66.6658 18.457 66.814 18.2563C66.9565 18.0652 67.1444 17.9124 67.3609 17.8119C67.6048 17.702 67.8703 17.6478 68.138 17.6533C68.3892 17.6436 68.6387 17.6982 68.8628 17.8119C69.0436 17.91 69.1854 18.0668 69.2649 18.2563C69.3487 18.4709 69.3764 18.7033 69.3453 18.9316C69.3383 18.9998 69.3262 19.0831 69.3112 19.1804C69.2961 19.2777 69.28 19.362 69.2649 19.4292C69.2151 19.6714 69.1155 19.9006 68.9724 20.1024C68.8327 20.2955 68.6458 20.4495 68.4295 20.5499C68.1833 20.6595 67.9159 20.7133 67.6464 20.7074ZM67.7368 20.1476C67.828 20.1508 67.9188 20.1356 68.004 20.103C68.0891 20.0705 68.1668 20.0211 68.2325 19.9579C68.3768 19.8037 68.4713 19.6097 68.5039 19.4011C68.517 19.3449 68.53 19.2707 68.5451 19.1804C68.5602 19.0901 68.5692 19.0168 68.5753 18.9597C68.6024 18.7189 68.5753 18.5342 68.4828 18.4058C68.4329 18.3396 68.3669 18.2872 68.2911 18.2535C68.2153 18.2198 68.1322 18.2059 68.0495 18.2132C67.9581 18.2101 67.8671 18.2257 67.7819 18.2588C67.6967 18.2919 67.6191 18.3419 67.5539 18.4058C67.4104 18.5595 67.3159 18.7523 67.2824 18.9597C67.2704 19.0168 67.2563 19.0901 67.2412 19.1804C67.2261 19.2707 67.2171 19.3449 67.2121 19.4011C67.1839 19.6472 67.2141 19.8329 67.3025 19.9579C67.3532 20.0233 67.4196 20.0749 67.4954 20.1081C67.5713 20.1412 67.6543 20.1548 67.7368 20.1476Z" fill="black"/>
<path d="M73.6257 20.7074C73.4233 20.7155 73.2232 20.6612 73.0527 20.5519C72.8999 20.4455 72.7881 20.29 72.736 20.1115C72.6742 19.8912 72.665 19.6597 72.7089 19.4352L72.9652 17.846C72.9719 17.8087 72.9913 17.7749 73.02 17.7502C73.0488 17.7256 73.0852 17.7115 73.1231 17.7105H73.6257C73.6433 17.7092 73.6609 17.7121 73.6772 17.7189C73.6934 17.7257 73.7078 17.7362 73.7192 17.7496C73.7299 17.7638 73.7374 17.7801 73.741 17.7975C73.7447 17.8148 73.7444 17.8327 73.7403 17.85L73.489 19.4051C73.4139 19.8733 73.5815 20.1074 73.9917 20.1074C74.1756 20.1126 74.3542 20.0456 74.4893 19.9208C74.6315 19.7838 74.722 19.602 74.7456 19.4061L74.996 17.851C75.0011 17.8118 75.0209 17.776 75.0513 17.7506C75.079 17.7261 75.1147 17.7122 75.1518 17.7115H75.6544C75.6715 17.7108 75.6885 17.7139 75.7042 17.7207C75.7199 17.7275 75.7338 17.7377 75.7449 17.7506C75.7565 17.7643 75.7648 17.7805 75.769 17.7979C75.7732 17.8154 75.7732 17.8335 75.7691 17.851L75.3388 20.5208C75.3331 20.5598 75.3134 20.5954 75.2835 20.6211C75.2557 20.6456 75.22 20.6595 75.183 20.6603H74.7245C74.7071 20.6617 74.6896 20.6588 74.6735 20.652C74.6574 20.6452 74.6432 20.6346 74.632 20.6211C74.6211 20.6071 74.6134 20.5908 74.6096 20.5735C74.6058 20.5561 74.6059 20.5381 74.6099 20.5208L74.6481 20.289C74.5202 20.4294 74.3629 20.54 74.1875 20.6132C74.0121 20.6863 73.8227 20.7202 73.6328 20.7124L73.6257 20.7074Z" fill="black"/>
<path d="M79.0306 20.6513C79.0135 20.652 78.9965 20.6489 78.9808 20.6421C78.9652 20.6353 78.9512 20.6251 78.9401 20.6122C78.9286 20.5984 78.9205 20.5822 78.9163 20.5648C78.9121 20.5474 78.912 20.5293 78.916 20.5118L79.3463 17.848C79.3518 17.8087 79.3719 17.7729 79.4026 17.7477C79.4302 17.7229 79.4659 17.709 79.5031 17.7086H79.9615C79.979 17.708 79.9964 17.7112 80.0125 17.7179C80.0287 17.7247 80.0432 17.7348 80.055 17.7477C80.0667 17.7613 80.0751 17.7775 80.0797 17.7948C80.0842 17.8122 80.0847 17.8304 80.0811 17.848L80.0439 18.0798C80.1483 17.9597 80.2786 17.8646 80.425 17.8019C80.5817 17.7369 80.7499 17.7045 80.9196 17.7065H81.1578C81.1754 17.7052 81.193 17.7081 81.2093 17.7149C81.2255 17.7217 81.2399 17.7323 81.2513 17.7457C81.262 17.7598 81.2695 17.7761 81.2731 17.7935C81.2768 17.8108 81.2765 17.8288 81.2724 17.846L81.2071 18.2534C81.2006 18.2902 81.1819 18.3238 81.1538 18.3487C81.1267 18.3744 81.0907 18.3888 81.0533 18.3888H80.612C80.449 18.3824 80.2896 18.4368 80.1646 18.5413C80.0444 18.6503 79.9673 18.7988 79.9474 18.9597L79.6961 20.5158C79.6909 20.555 79.6711 20.5908 79.6408 20.6162C79.6107 20.6421 79.572 20.656 79.5322 20.6553L79.0306 20.6513Z" fill="black"/>
<path d="M89.1878 20.7075C89.0148 20.7119 88.8431 20.6776 88.6851 20.6071C88.5524 20.5461 88.4396 20.4491 88.3594 20.3272C88.2773 20.1974 88.2235 20.0517 88.2016 19.8998C88.1763 19.7207 88.1763 19.5391 88.2016 19.36C88.2086 19.2918 88.2166 19.2306 88.2247 19.1764C88.2327 19.1222 88.2458 19.06 88.2599 18.9918C88.2962 18.8103 88.3542 18.6337 88.4328 18.4661C88.5072 18.3084 88.607 18.164 88.7283 18.0386C88.848 17.9166 88.9908 17.8197 89.1486 17.7537C89.3182 17.6844 89.5001 17.6503 89.6834 17.6534C89.8566 17.6456 90.0291 17.68 90.186 17.7537C90.3091 17.818 90.4155 17.9101 90.4967 18.0226L90.6978 16.7674C90.7027 16.7289 90.7212 16.6933 90.75 16.6671C90.7788 16.6408 90.8166 16.6265 90.8556 16.627H91.3371C91.3543 16.6263 91.3713 16.6296 91.387 16.6366C91.4027 16.6435 91.4166 16.654 91.4276 16.6671C91.4392 16.6808 91.4475 16.697 91.4517 16.7144C91.4558 16.7318 91.4559 16.75 91.4517 16.7674L90.8486 20.5118C90.8433 20.551 90.8236 20.5867 90.7933 20.6121C90.7656 20.6369 90.7299 20.6508 90.6927 20.6513H90.2454C90.2278 20.6527 90.2101 20.6498 90.1939 20.643C90.1776 20.6362 90.1632 20.6256 90.1519 20.6121C90.1413 20.5979 90.1339 20.5816 90.1303 20.5643C90.1266 20.547 90.1268 20.5291 90.1308 20.5118L90.1649 20.3021C90.049 20.4213 89.9128 20.5191 89.7628 20.5911C89.5826 20.6732 89.3859 20.713 89.1878 20.7075ZM89.4954 20.1055C89.6356 20.1104 89.774 20.073 89.8925 19.9981C89.9975 19.9278 90.0846 19.834 90.1468 19.7242C90.2079 19.6178 90.2514 19.5023 90.2755 19.3821C90.2896 19.3139 90.3037 19.2416 90.3157 19.1644C90.3278 19.0871 90.3379 19.0139 90.3459 18.9466C90.3603 18.8373 90.351 18.7261 90.3188 18.6206C90.2878 18.5195 90.2273 18.43 90.1448 18.3637C90.0428 18.2906 89.9184 18.2551 89.793 18.2634C89.6545 18.2563 89.5171 18.2913 89.3989 18.3637C89.2954 18.433 89.211 18.5272 89.1536 18.6376C89.0919 18.7552 89.0469 18.8809 89.0199 19.0108C88.9978 19.1242 88.9797 19.2376 88.9646 19.351C88.9502 19.4754 88.955 19.6012 88.9787 19.7242C88.9981 19.8307 89.0535 19.9273 89.1355 19.9981C89.2392 20.0746 89.3668 20.1116 89.4954 20.1025V20.1055Z" fill="black"/>
<path d="M94.5472 20.6513C94.5301 20.652 94.5131 20.6489 94.4974 20.6421C94.4818 20.6353 94.4678 20.6251 94.4567 20.6121C94.4452 20.5984 94.4371 20.5822 94.4329 20.5648C94.4287 20.5474 94.4286 20.5292 94.4326 20.5118L94.8629 17.848C94.8687 17.8088 94.8888 17.7731 94.9192 17.7477C94.9468 17.7228 94.9825 17.7089 95.0197 17.7085H95.4791C95.4964 17.708 95.5137 17.7113 95.5296 17.718C95.5456 17.7248 95.5599 17.7349 95.5716 17.7477C95.5835 17.7612 95.5921 17.7773 95.5966 17.7947C95.6011 17.8121 95.6015 17.8304 95.5977 17.848L95.5606 18.0798C95.6651 17.9594 95.7957 17.8643 95.9426 17.8018C96.0989 17.7368 96.2668 17.7044 96.4362 17.7065H96.6684C96.686 17.7051 96.7036 17.708 96.7199 17.7148C96.7362 17.7216 96.7506 17.7322 96.7619 17.7457C96.7726 17.7598 96.78 17.7761 96.7837 17.7935C96.7873 17.8108 96.7871 17.8287 96.783 17.846L96.7177 18.2533C96.7116 18.2901 96.6931 18.3237 96.6654 18.3486C96.6381 18.3741 96.6022 18.3885 96.5649 18.3888H96.1225C95.9596 18.3824 95.8001 18.4368 95.6752 18.5413C95.5549 18.6503 95.4779 18.7988 95.458 18.9597L95.2067 20.5158C95.2 20.5541 95.1798 20.5889 95.1498 20.6137C95.1197 20.6385 95.0818 20.6518 95.0428 20.6513H94.5472Z" fill="black"/>
<path d="M100.829 20.7074C100.409 20.7074 100.096 20.587 99.89 20.3462C99.6836 20.1054 99.6068 19.7623 99.6598 19.3168C99.663 19.2684 99.6691 19.2201 99.6779 19.1724C99.6845 19.1258 99.6936 19.0795 99.705 19.0339C99.7581 18.7698 99.8652 18.5194 100.02 18.2985C100.162 18.0957 100.353 17.9316 100.576 17.8209C100.808 17.707 101.064 17.6495 101.323 17.6533C101.583 17.6412 101.84 17.7073 102.062 17.843C102.248 17.9679 102.385 18.1539 102.447 18.3687C102.519 18.6217 102.531 18.8879 102.482 19.1463L102.462 19.2657C102.456 19.3046 102.437 19.3402 102.407 19.366C102.377 19.3917 102.338 19.4057 102.299 19.4051H100.417C100.417 19.4282 100.411 19.4432 100.41 19.4503C100.391 19.5719 100.397 19.6961 100.427 19.8155C100.453 19.9203 100.511 20.0144 100.594 20.0844C100.683 20.154 100.795 20.1896 100.908 20.1847C101.002 20.1871 101.095 20.1707 101.183 20.1365C101.252 20.1092 101.317 20.072 101.376 20.0262C101.416 19.9959 101.454 19.9623 101.489 19.9258C101.517 19.892 101.551 19.864 101.59 19.8436C101.622 19.8323 101.656 19.8275 101.69 19.8295H102.169C102.185 19.8286 102.201 19.8312 102.216 19.837C102.232 19.8429 102.245 19.852 102.256 19.8636C102.267 19.8748 102.274 19.8885 102.277 19.9033C102.28 19.9181 102.279 19.9335 102.275 19.9479C102.248 20.0303 102.204 20.1057 102.145 20.1686C102.06 20.267 101.961 20.3528 101.851 20.4235C101.714 20.5133 101.565 20.5829 101.408 20.6302C101.22 20.6851 101.025 20.7111 100.829 20.7074ZM100.493 18.9265H101.746V18.9095C101.77 18.7817 101.766 18.6502 101.734 18.5242C101.707 18.4208 101.646 18.3294 101.561 18.2644C101.467 18.1955 101.353 18.1602 101.236 18.164C101.11 18.1635 100.987 18.1983 100.88 18.2644C100.775 18.3288 100.688 18.4181 100.626 18.5242C100.558 18.6433 100.513 18.774 100.493 18.9095V18.9265Z" fill="black"/>
<path d="M106.519 20.7075C106.341 20.7117 106.164 20.6721 106.005 20.5921C105.868 20.5229 105.754 20.4147 105.678 20.281C105.606 20.147 105.582 19.9923 105.61 19.8426C105.63 19.7131 105.679 19.5896 105.751 19.4806C105.824 19.3717 105.92 19.2798 106.032 19.2115C106.305 19.0429 106.611 18.9361 106.93 18.8985L107.725 18.7851L107.744 18.6657C107.76 18.6037 107.763 18.5391 107.752 18.476C107.742 18.4129 107.719 18.3525 107.685 18.2985C107.619 18.2112 107.49 18.1681 107.297 18.1681C107.177 18.164 107.058 18.1924 106.953 18.2503C106.861 18.3029 106.783 18.3778 106.728 18.4681C106.712 18.4909 106.69 18.5095 106.666 18.5222C106.641 18.535 106.613 18.5415 106.585 18.5413H106.138C106.121 18.5433 106.105 18.5413 106.089 18.5353C106.074 18.5294 106.06 18.5197 106.049 18.5072C106.04 18.4941 106.034 18.4793 106.032 18.4637C106.029 18.4482 106.029 18.4322 106.033 18.4169C106.056 18.3373 106.093 18.2625 106.143 18.1962C106.213 18.0985 106.299 18.0137 106.398 17.9453C106.525 17.8563 106.664 17.7866 106.811 17.7386C106.997 17.6783 107.191 17.6495 107.386 17.6534C107.586 17.6473 107.786 17.6772 107.975 17.7417C108.112 17.7879 108.235 17.8688 108.331 17.9764C108.414 18.075 108.469 18.1938 108.491 18.3206C108.515 18.4593 108.515 18.6012 108.491 18.74L108.205 20.5158C108.199 20.5547 108.18 20.5904 108.15 20.6162C108.123 20.6407 108.087 20.6545 108.05 20.6553H107.591C107.574 20.6567 107.556 20.6538 107.54 20.647C107.524 20.6402 107.509 20.6296 107.498 20.6162C107.487 20.6019 107.48 20.5856 107.476 20.5683C107.473 20.551 107.473 20.5331 107.477 20.5158L107.513 20.2951C107.446 20.3722 107.368 20.4397 107.282 20.4958C107.18 20.562 107.07 20.6133 106.954 20.6483C106.813 20.6905 106.666 20.7104 106.519 20.7075ZM106.798 20.1707C106.928 20.1716 107.056 20.1424 107.172 20.0854C107.295 20.0264 107.399 19.9356 107.474 19.8225C107.562 19.6868 107.618 19.5333 107.64 19.3731L107.659 19.2547L107.078 19.345C106.893 19.3646 106.715 19.4202 106.552 19.5085C106.499 19.5366 106.453 19.576 106.417 19.6238C106.381 19.6717 106.355 19.7268 106.343 19.7854C106.335 19.8219 106.335 19.8596 106.343 19.8962C106.35 19.9327 106.365 19.9674 106.386 19.9981C106.43 20.0579 106.49 20.1033 106.56 20.1285C106.636 20.1566 106.717 20.1708 106.798 20.1707Z" fill="black"/>
<path d="M111.878 20.6512C111.861 20.6519 111.844 20.6487 111.829 20.642C111.813 20.6352 111.8 20.625 111.789 20.6121C111.777 20.5984 111.769 20.5822 111.765 20.5648C111.761 20.5474 111.761 20.5292 111.765 20.5118L112.195 17.8419C112.2 17.8026 112.219 17.7667 112.25 17.7416C112.278 17.717 112.314 17.7032 112.351 17.7025H112.793C112.81 17.7017 112.827 17.7049 112.842 17.7117C112.858 17.7184 112.872 17.7287 112.883 17.7416C112.894 17.7552 112.903 17.7714 112.907 17.7888C112.911 17.8063 112.911 17.8245 112.907 17.8419L112.877 18.0336C112.98 17.9227 113.103 17.8318 113.239 17.7657C113.394 17.6902 113.565 17.6504 113.737 17.6493C114.169 17.6426 114.443 17.8098 114.557 18.151C114.675 17.9957 114.827 17.8697 115.001 17.7827C115.176 17.6956 115.368 17.65 115.563 17.6493C115.744 17.6451 115.922 17.692 116.077 17.7848C116.227 17.8804 116.338 18.0258 116.39 18.1951C116.456 18.4206 116.465 18.6585 116.417 18.8884L116.156 20.5118C116.15 20.5508 116.13 20.5864 116.101 20.6121C116.073 20.6367 116.037 20.6506 116 20.6512H115.535C115.518 20.6519 115.501 20.6487 115.485 20.642C115.47 20.6352 115.456 20.625 115.445 20.6121C115.434 20.5984 115.425 20.5822 115.421 20.5648C115.417 20.5474 115.417 20.5292 115.421 20.5118L115.675 18.9336C115.703 18.8009 115.7 18.6637 115.667 18.5322C115.642 18.4427 115.583 18.3664 115.502 18.3195C115.42 18.2767 115.328 18.2553 115.235 18.2573C115.145 18.2592 115.057 18.2804 114.976 18.3195C114.878 18.3678 114.796 18.4412 114.737 18.5322C114.66 18.6539 114.611 18.7909 114.593 18.9336L114.338 20.5118C114.333 20.5509 114.313 20.5867 114.283 20.6121C114.255 20.6368 114.22 20.6507 114.182 20.6512H113.718C113.7 20.6525 113.683 20.6497 113.666 20.6429C113.65 20.6361 113.636 20.6255 113.624 20.6121C113.614 20.5979 113.607 20.5816 113.603 20.5643C113.599 20.5469 113.599 20.529 113.603 20.5118L113.859 18.9336C113.887 18.8006 113.882 18.6628 113.845 18.5322C113.816 18.4429 113.756 18.3671 113.675 18.3195C113.596 18.2777 113.508 18.2563 113.418 18.2573C113.326 18.2588 113.235 18.2811 113.152 18.3225C113.056 18.3722 112.974 18.4454 112.914 18.5352C112.836 18.6566 112.787 18.7937 112.77 18.9366L112.516 20.5148C112.51 20.5538 112.49 20.5894 112.46 20.6151C112.433 20.6397 112.397 20.6536 112.36 20.6542L111.878 20.6512Z" fill="black"/>
<path d="M120.795 20.7074C120.603 20.7124 120.411 20.6859 120.227 20.6292C120.095 20.5862 119.972 20.5181 119.865 20.4285C119.787 20.3631 119.723 20.2821 119.677 20.1907C119.644 20.1292 119.628 20.0599 119.63 19.99C119.63 19.9704 119.635 19.9511 119.644 19.9337C119.653 19.9162 119.666 19.9012 119.682 19.8897C119.711 19.8662 119.746 19.8531 119.783 19.8526H120.23C120.243 19.8509 120.256 19.8509 120.269 19.8526C120.285 19.8606 120.299 19.8723 120.31 19.8867C120.352 19.9289 120.396 19.972 120.444 20.0171C120.496 20.0657 120.556 20.1048 120.621 20.1325C120.709 20.1684 120.803 20.1848 120.897 20.1807C121.03 20.184 121.163 20.154 121.282 20.0934C121.332 20.07 121.375 20.0348 121.408 19.9909C121.442 19.9471 121.464 19.8958 121.473 19.8416C121.48 19.809 121.481 19.7752 121.475 19.7423C121.469 19.7094 121.457 19.678 121.439 19.6499C121.38 19.5856 121.304 19.5393 121.22 19.5165C121.063 19.4647 120.903 19.4221 120.741 19.3891C120.567 19.3516 120.4 19.2887 120.244 19.2024C120.127 19.1391 120.034 19.0399 119.978 18.9195C119.927 18.7943 119.913 18.6569 119.94 18.5242C119.968 18.3682 120.037 18.2227 120.141 18.1028C120.263 17.9593 120.418 17.846 120.591 17.7717C120.804 17.6801 121.035 17.6356 121.267 17.6413C121.443 17.6374 121.619 17.6632 121.787 17.7175C121.913 17.7592 122.03 17.8235 122.133 17.9072C122.211 17.9707 122.276 18.0483 122.325 18.1359C122.362 18.1964 122.38 18.266 122.379 18.3366C122.378 18.3559 122.373 18.375 122.365 18.3923C122.356 18.4096 122.344 18.4248 122.328 18.4369C122.301 18.4614 122.265 18.4747 122.228 18.474H121.809C121.792 18.4743 121.775 18.4705 121.759 18.463C121.745 18.4549 121.731 18.4455 121.718 18.4349C121.683 18.3968 121.644 18.3567 121.602 18.3155C121.554 18.2705 121.5 18.2332 121.441 18.2052C121.356 18.1692 121.265 18.1527 121.173 18.157C121.052 18.1509 120.932 18.1835 120.83 18.2503C120.79 18.277 120.756 18.3116 120.73 18.352C120.704 18.3924 120.687 18.4377 120.679 18.4851C120.667 18.5424 120.677 18.6018 120.706 18.6526C120.757 18.7166 120.828 18.7629 120.907 18.7851C121.062 18.8409 121.222 18.8845 121.384 18.9155C121.586 18.9444 121.78 19.0125 121.955 19.1162C122.074 19.186 122.168 19.2913 122.224 19.4172C122.268 19.5396 122.279 19.6715 122.255 19.7994C122.227 19.9707 122.149 20.1299 122.031 20.2569C121.895 20.4022 121.726 20.5121 121.538 20.577C121.3 20.6643 121.049 20.7085 120.795 20.7074Z" fill="black"/>
<path d="M33.3974 13.6381C32.2943 13.6381 31.3704 13.4585 30.6258 13.0993C29.9124 12.7706 29.3286 12.2147 28.966 11.5191C28.6055 10.8241 28.4563 9.96123 28.5187 8.93049C28.5575 8.45559 28.6058 7.94624 28.6634 7.40244C28.7211 6.85865 28.7824 6.33759 28.8474 5.83928C29.0002 4.83128 29.3353 3.97712 29.8527 3.27681C30.3687 2.57517 31.0627 2.02347 31.8633 1.67853C32.6904 1.31466 33.6444 1.13272 34.7255 1.13272C35.4352 1.12369 36.1423 1.22006 36.8235 1.41866C37.4091 1.58902 37.9556 1.87228 38.432 2.25242C38.8716 2.60215 39.2171 3.05556 39.4374 3.57178C39.6601 4.12514 39.7426 4.72477 39.6776 5.31756C39.6788 5.36754 39.6683 5.41712 39.6471 5.46239C39.6258 5.50766 39.5943 5.54737 39.555 5.57842C39.4762 5.64443 39.3763 5.68004 39.2735 5.67875H36.9241C36.803 5.68708 36.6831 5.65145 36.5863 5.57842C36.4939 5.48052 36.4342 5.35643 36.4154 5.22324C36.3175 4.60921 36.098 4.18916 35.7569 3.96308C35.4158 3.737 34.9781 3.62429 34.444 3.62496C33.8053 3.62496 33.2818 3.80154 32.8737 4.15471C32.4655 4.50788 32.2001 5.09549 32.0775 5.91754C31.9434 6.86801 31.8402 7.8409 31.7678 8.83619C31.7149 9.65757 31.8553 10.2452 32.1891 10.599C32.5228 10.9528 33.0087 11.1294 33.6468 11.1288C34.1344 11.1406 34.6162 11.0206 35.0411 10.7816C35.4372 10.5502 35.7428 10.1331 35.958 9.53048C35.9993 9.3906 36.082 9.26645 36.1952 9.1743C36.3047 9.10482 36.4325 9.06986 36.5622 9.07397H38.9126C38.9602 9.07207 39.0078 9.07999 39.0522 9.09725C39.0967 9.11451 39.1371 9.14075 39.1709 9.1743C39.2042 9.20783 39.228 9.24949 39.24 9.2951C39.252 9.34071 39.2517 9.38867 39.2393 9.43416C39.1681 10.0543 38.9589 10.6508 38.6271 11.1799C38.2939 11.7016 37.8586 12.1507 37.3473 12.5003C36.7995 12.8753 36.1931 13.1571 35.5528 13.3341C34.8522 13.5356 34.1266 13.6379 33.3974 13.6381Z" fill="black"/>
<path d="M40.1342 13.4645C40.0885 13.4626 40.0437 13.4516 40.0023 13.432C39.961 13.4125 39.924 13.3849 39.8935 13.3508C39.863 13.3168 39.8397 13.277 39.8249 13.2338C39.8102 13.1905 39.8042 13.1448 39.8075 13.0993C39.8127 13.046 39.8238 12.9935 39.8407 12.9428L45.1156 1.7919C45.1681 1.65829 45.2556 1.54118 45.3689 1.45278C45.5058 1.34913 45.6748 1.29691 45.8464 1.30529H48.422C48.5691 1.29076 48.7162 1.33315 48.833 1.42369C48.9497 1.51424 49.0271 1.64603 49.0493 1.7919L51.9376 12.9428C51.9561 12.9927 51.9623 13.0464 51.9557 13.0993C51.9419 13.1976 51.8921 13.2873 51.816 13.3511C51.7397 13.4234 51.6387 13.464 51.5335 13.4645H49.3901C49.3215 13.4706 49.2523 13.4622 49.1871 13.4397C49.122 13.4172 49.0623 13.3812 49.0121 13.3341C48.947 13.2682 48.8987 13.1877 48.8714 13.0993L48.3848 11.3274H43.7373L42.8878 13.0993C42.8421 13.188 42.7804 13.2676 42.7058 13.3341C42.5844 13.4315 42.4298 13.4782 42.2745 13.4645H40.1342ZM44.7165 8.82615H47.9536L46.8045 4.243L44.7165 8.82615Z" fill="black"/>
<path d="M58.438 13.6381C57.3931 13.6381 56.4977 13.4672 55.7518 13.1254C55.0315 12.8099 54.4463 12.2501 54.1001 11.5452C53.7475 10.8328 53.6292 9.92646 53.7452 8.82616L54.4982 1.73974C54.5079 1.61973 54.5631 1.50794 54.6526 1.4272C54.7421 1.34647 54.8591 1.30286 54.9797 1.3053H57.2316C57.2877 1.30242 57.3438 1.3118 57.3958 1.33276C57.4479 1.35373 57.4948 1.38579 57.5332 1.4267C57.5697 1.46943 57.5965 1.51952 57.6118 1.57356C57.627 1.62759 57.6304 1.68428 57.6217 1.73974L56.8707 8.80911C56.7903 9.56159 56.9129 10.1261 57.2387 10.5027C57.5644 10.8793 58.0566 11.0669 58.7155 11.0656C59.3649 11.0656 59.8923 10.8773 60.2978 10.5007C60.7033 10.1241 60.9462 9.55958 61.0267 8.8071L61.7776 1.73773C61.7827 1.6774 61.7997 1.61866 61.8276 1.56492C61.8556 1.51119 61.8939 1.46352 61.9405 1.42469C62.0283 1.34732 62.1411 1.30421 62.2582 1.3033H64.5211C64.5755 1.30225 64.6295 1.31249 64.6797 1.33339C64.7299 1.35429 64.7752 1.38538 64.8127 1.42469C64.8523 1.46575 64.8819 1.51531 64.8993 1.56958C64.9167 1.62384 64.9215 1.68136 64.9132 1.73773L64.1602 8.82415C64.0436 9.92512 63.7326 10.8315 63.2273 11.5431C62.7327 12.2473 62.0465 12.7957 61.2498 13.1234C60.4335 13.4658 59.4962 13.6374 58.438 13.6381Z" fill="black"/>
<path d="M70.8513 13.6381C69.6911 13.6381 68.7455 13.4729 68.0143 13.1424C67.2831 12.812 66.7489 12.3809 66.4118 11.8492C66.081 11.3443 65.9242 10.7454 65.9654 10.1435C65.9785 10.0448 66.0289 9.95469 66.1062 9.89169C66.1819 9.81909 66.2827 9.77848 66.3877 9.77831H68.5803C68.708 9.76937 68.8354 9.79984 68.9452 9.8656C69.0294 9.92671 69.101 10.0033 69.1563 10.0913C69.239 10.2768 69.3533 10.4465 69.4941 10.593C69.6675 10.7699 69.8799 10.9039 70.1144 10.9843C70.4381 11.0924 70.7785 11.1424 71.1197 11.1318C71.7899 11.1318 72.3086 11.0274 72.6759 10.8187C73.0432 10.6101 73.2442 10.3265 73.2791 9.96794C73.2959 9.85314 73.2856 9.73599 73.2489 9.62588C73.2123 9.51578 73.1503 9.41576 73.068 9.33384C72.8991 9.16662 72.6163 9.01613 72.2195 8.88235C71.6938 8.71625 71.1591 8.57991 70.618 8.474C69.8642 8.32626 69.132 8.08458 68.4385 7.75462C67.8494 7.45898 67.4178 7.07103 67.1437 6.59078C66.8696 6.11052 66.769 5.51121 66.8421 4.79283C66.9141 4.09559 67.1943 3.436 67.6463 2.89957C68.1351 2.32179 68.7595 1.8737 69.4639 1.59526C70.2179 1.28691 71.0882 1.13273 72.0747 1.13273C72.7814 1.11817 73.4855 1.22368 74.1567 1.44476C74.6918 1.62315 75.1854 1.90702 75.6084 2.27952C75.9586 2.58648 76.2416 2.96218 76.4398 3.38317C76.6068 3.73822 76.6818 4.12944 76.6579 4.52094C76.6458 4.61774 76.5995 4.70705 76.5272 4.77277C76.4915 4.80874 76.4489 4.83721 76.4019 4.85651C76.3549 4.8758 76.3046 4.88554 76.2538 4.88514H73.9567C73.8447 4.8886 73.7336 4.86484 73.633 4.81591C73.5393 4.76369 73.4631 4.6852 73.4138 4.59017C73.3702 4.33532 73.2111 4.11225 72.9363 3.92095C72.6615 3.72965 72.2855 3.63367 71.8083 3.633C71.2976 3.633 70.8908 3.72263 70.5879 3.90189C70.4407 3.98673 70.3168 4.10646 70.227 4.25048C70.1372 4.3945 70.0844 4.55838 70.0731 4.72762C70.0598 4.83427 70.068 4.9425 70.0974 5.04591C70.1268 5.14932 70.1766 5.2458 70.2441 5.32961C70.3821 5.50419 70.6271 5.65502 70.9789 5.78211C71.458 5.94514 71.9464 6.07916 72.4417 6.18343C73.4771 6.38008 74.3038 6.62623 74.9218 6.92187C75.5397 7.21752 75.9753 7.59944 76.2287 8.06766C76.48 8.53587 76.5685 9.12348 76.4941 9.83048C76.4234 10.5878 76.1128 11.303 75.6074 11.8722C75.0651 12.4699 74.381 12.9218 73.6179 13.1866C72.7297 13.4991 71.793 13.652 70.8513 13.6381Z" fill="black"/>
<path d="M78.6313 13.4645C78.5752 13.4681 78.519 13.459 78.467 13.4377C78.415 13.4164 78.3685 13.3836 78.3311 13.3417C78.2937 13.2998 78.2663 13.25 78.2511 13.196C78.2359 13.142 78.2332 13.0852 78.2433 13.03L79.4416 1.73972C79.4517 1.61939 79.5075 1.50744 79.5974 1.42668C79.6865 1.34619 79.803 1.30275 79.9231 1.30528H88.0511C88.1072 1.30233 88.1632 1.31167 88.2153 1.33265C88.2674 1.35362 88.3143 1.38571 88.3527 1.42668C88.3892 1.46941 88.416 1.5195 88.4312 1.57354C88.4465 1.62757 88.4499 1.68426 88.4411 1.73972L88.2672 3.37212C88.2574 3.49233 88.2021 3.60429 88.1124 3.68515C88.0235 3.76591 87.9069 3.80939 87.7867 3.80655H82.2333L81.984 6.14929H87.1533C87.2103 6.14637 87.2671 6.15662 87.3194 6.17925C87.3718 6.20187 87.4181 6.23626 87.4549 6.27972C87.4909 6.3243 87.5173 6.37585 87.5324 6.43111C87.5474 6.48637 87.5508 6.54414 87.5424 6.60079L87.3825 8.11178C87.3688 8.22739 87.3138 8.33421 87.2277 8.41278C87.1848 8.4552 87.1337 8.48859 87.0776 8.51099C87.0215 8.5334 86.9614 8.54435 86.901 8.54321H81.7297L81.4733 10.9652H87.1644C87.2205 10.9621 87.2766 10.9713 87.3288 10.9923C87.3809 11.0133 87.4278 11.0455 87.466 11.0866C87.5026 11.1291 87.5294 11.179 87.5447 11.2329C87.56 11.2868 87.5633 11.3433 87.5545 11.3986L87.3815 13.032C87.3711 13.1518 87.3157 13.2632 87.2264 13.3437C87.137 13.4243 87.0204 13.4682 86.9 13.4665L78.6313 13.4645Z" fill="black"/>
<path d="M91.6134 13.4645C91.53 13.47 91.4464 13.4573 91.3685 13.4274C91.2905 13.3974 91.2201 13.3508 91.162 13.2909C91.0608 13.181 91.002 13.0387 90.9961 12.8896L90.2773 1.7909C90.2685 1.76859 90.2651 1.74454 90.2672 1.72067C90.2672 1.69726 90.2693 1.6802 90.2733 1.6695C90.2905 1.57285 90.3393 1.48461 90.412 1.41854C90.4848 1.35248 90.5774 1.31231 90.6754 1.30429H92.8338C93.1589 1.30429 93.3264 1.43171 93.3365 1.68656L93.7466 8.47801L95.4255 4.46474C95.4821 4.35643 95.5516 4.25537 95.6326 4.16375C95.685 4.10637 95.7498 4.06165 95.8221 4.03297C95.8943 4.00429 95.9722 3.9924 96.0498 3.9982H97.3034C97.5045 3.9982 97.6332 4.05338 97.7055 4.16375C97.7671 4.25451 97.8092 4.35698 97.8292 4.46474L98.6586 8.45995L100.509 1.68555C100.571 1.43071 100.765 1.30329 101.089 1.30329H103.248C103.295 1.30136 103.342 1.31062 103.386 1.33032C103.429 1.35002 103.467 1.37961 103.496 1.41666C103.526 1.45101 103.548 1.49109 103.562 1.53442C103.575 1.57775 103.58 1.6234 103.575 1.6685C103.575 1.67953 103.575 1.69659 103.569 1.71966C103.562 1.74274 103.563 1.76682 103.561 1.7899L100.485 12.8886C100.444 13.0445 100.356 13.1844 100.234 13.2899C100.099 13.4077 99.9244 13.4698 99.7453 13.4635H98.0926C98.0129 13.4703 97.9326 13.4598 97.8573 13.4328C97.782 13.4058 97.7134 13.3629 97.6563 13.307C97.575 13.2238 97.5144 13.1228 97.4793 13.012L96.2488 8.04357L93.9628 13.012C93.9038 13.1232 93.8255 13.2231 93.7315 13.307C93.6047 13.4175 93.4392 13.4738 93.2711 13.4635L91.6134 13.4645Z" fill="black"/>
<path d="M103.275 13.4645C103.229 13.4626 103.184 13.4516 103.143 13.4321C103.102 13.4125 103.065 13.3849 103.034 13.3508C103.004 13.3168 102.981 13.2769 102.966 13.2337C102.952 13.1905 102.946 13.1448 102.949 13.0993C102.954 13.0461 102.966 12.9936 102.982 12.9428L108.257 1.79194C108.31 1.65833 108.397 1.54122 108.511 1.45282C108.647 1.34932 108.816 1.2971 108.987 1.30533H111.564C111.644 1.29937 111.725 1.30933 111.801 1.33464C111.878 1.35996 111.948 1.40012 112.009 1.45282C112.104 1.54366 112.168 1.66246 112.191 1.79194L115.079 12.9428C115.098 12.9928 115.104 13.0465 115.097 13.0993C115.084 13.198 115.034 13.288 114.957 13.3512C114.881 13.4236 114.78 13.4641 114.675 13.4645H112.535C112.466 13.4707 112.397 13.4623 112.332 13.4399C112.267 13.4174 112.207 13.3813 112.157 13.3341C112.092 13.2683 112.043 13.1877 112.016 13.0993L111.525 11.3275H106.879L106.029 13.0993C105.984 13.188 105.922 13.2676 105.848 13.3341C105.726 13.4315 105.571 13.4783 105.416 13.4645H103.275ZM107.858 8.82619H111.095L109.947 4.24304L107.858 8.82619Z" fill="black"/>
<path d="M118.958 13.4645C118.903 13.4656 118.849 13.4553 118.799 13.4342C118.749 13.4131 118.704 13.3817 118.666 13.3421C118.627 13.3013 118.597 13.2519 118.579 13.1978C118.562 13.1437 118.557 13.0863 118.566 13.0301L118.963 9.29571L115.715 1.86114C115.707 1.82603 115.698 1.79492 115.689 1.76081C115.681 1.7298 115.679 1.69742 115.682 1.66549C115.695 1.56691 115.745 1.4769 115.822 1.41366C115.898 1.34142 115.999 1.30086 116.104 1.30029H118.279C118.351 1.29495 118.422 1.30372 118.49 1.3261C118.558 1.34849 118.621 1.38403 118.675 1.43072C118.749 1.49269 118.803 1.57407 118.832 1.66549L120.868 6.14932L123.85 1.66851C123.911 1.57814 123.987 1.49876 124.075 1.43373C124.196 1.34232 124.346 1.29619 124.498 1.3033H126.674C126.721 1.30121 126.768 1.3104 126.812 1.3301C126.855 1.34981 126.893 1.37947 126.923 1.41667C126.952 1.45107 126.975 1.49118 126.988 1.53452C127.001 1.57785 127.005 1.62347 127 1.66851C126.997 1.70079 126.99 1.73269 126.981 1.76382C126.971 1.79789 126.959 1.83138 126.945 1.86415L122.1 9.29873L121.698 13.0331C121.688 13.1527 121.633 13.2641 121.544 13.3447C121.454 13.4253 121.338 13.4692 121.218 13.4675L118.958 13.4645Z" fill="black"/>
</g>
<defs>
<clipPath id="clip0_10934_6476">
<rect width="127" height="21.8422" fill="white"/>
</clipPath>
</defs>
</svg>
